<?xml version="1.0" encoding="UTF-8" standalone="no"?><svg xmlns="http://www.w3.org/2000/svg" xmlns:xlink="http://www.w3.org/1999/xlink" contentScriptType="application/ecmascript" contentStyleType="text/css" height="225px" preserveAspectRatio="none" style="width:749px;height:225px;" version="1.1" viewBox="0 0 749 225" width="749px" zoomAndPan="magnify"><defs><filter height="300%" id="f1pfa1pux4efgx" width="300%" x="-1" y="-1"><feGaussianBlur result="blurOut" stdDeviation="2.0"/><feColorMatrix in="blurOut" result="blurOut2" type="matrix" values="0 0 0 0 0 0 0 0 0 0 0 0 0 0 0 0 0 0 .4 0"/><feOffset dx="4.0" dy="4.0" in="blurOut2" result="blurOut3"/><feBlend in="SourceGraphic" in2="blurOut3" mode="normal"/></filter></defs><g><!--MD5=[653063ea0abdf0fdec35ebbf2b04476e]
entity a0--><rect fill="#fa7373" filter="url(#f1pfa1pux4efgx)" height="45" style="stroke: #000000; stroke-width: 1.5;" width="44" x="6" y="64"/><svg x="16" y="74"><!--Generated by the Batik Graphics2D SVG Generator--><defs id="genericDefs"
  /><g
  ><g transform="scale(20,20) translate(0.2,0.8833)" style="font-size:1; text-rendering:geometricPrecision; color-rendering:optimizeQuality; image-rendering:optimizeQuality; font-family:&apos;jlm_cmmi10&apos;; color-interpolation:linearRGB;"
    ><path style="stroke:none;" d="M0.375 -0.6094 L0.2344 -0.0781 Q0.2344 -0.0625 0.2344 -0.0469 Q0.2344 -0.0312 0.25 -0.0312 L0.25 -0.0312 L0.25 -0.0312 Q0.25 -0.0312 0.2656 -0.0312 Q0.2812 -0.0312 0.2969 -0.0312 Q0.3281 -0.0312 0.3281 -0.0312 Q0.3281 -0.0156 0.3281 -0.0156 Q0.3281 0 0.3125 0 L0.1875 0 L0.1875 0 L0.0469 0 L0.0469 0 Q0.0312 0 0.0312 -0.0156 Q0.0312 -0.0312 0.0469 -0.0312 Q0.0469 -0.0312 0.0625 -0.0312 Q0.1406 -0.0312 0.1406 -0.0469 Q0.1562 -0.0625 0.1562 -0.0781 L0.2969 -0.6094 Q0.2969 -0.625 0.2969 -0.6406 Q0.2969 -0.6562 0.25 -0.6562 L0.25 -0.6562 L0.2188 -0.6562 Q0.2031 -0.6562 0.2031 -0.6562 Q0.2031 -0.6875 0.2188 -0.6875 L0.3438 -0.6875 L0.3438 -0.6875 L0.4844 -0.6875 L0.4844 -0.6875 Q0.5 -0.6875 0.5 -0.6719 Q0.5 -0.6562 0.4844 -0.6562 Q0.4844 -0.6562 0.4688 -0.6562 Q0.3906 -0.6562 0.3906 -0.6406 Q0.375 -0.625 0.375 -0.6094 Z"
    /></g
    ><g transform="matrix(20,0,0,20,0,0) translate(0.6396,1.0333) scale(0.7,0.7)" style="font-size:1; text-rendering:geometricPrecision; color-rendering:optimizeQuality; image-rendering:optimizeQuality; font-family:&apos;jlm_cmr10&apos;; color-interpolation:linearRGB;"
    ><path style="stroke:none;" d="M0.4531 -0.3125 Q0.4531 -0.1719 0.4219 -0.0938 Q0.3594 0.0156 0.25 0.0156 Q0.1562 0.0156 0.1094 -0.0469 Q0.0938 -0.0625 0.0781 -0.0781 Q0.0312 -0.1562 0.0312 -0.3125 Q0.0312 -0.4688 0.0781 -0.5469 Q0.125 -0.6562 0.2344 -0.6719 L0.25 -0.6719 Q0.3438 -0.6719 0.3906 -0.5938 L0.3906 -0.5938 Q0.4062 -0.5781 0.4219 -0.5469 Q0.4531 -0.4688 0.4531 -0.3125 ZM0.25 0 L0.25 0 Q0.3125 0 0.3438 -0.0625 Q0.3594 -0.0938 0.3594 -0.125 Q0.375 -0.1875 0.375 -0.3281 Q0.375 -0.4688 0.3594 -0.5312 Q0.3438 -0.625 0.2812 -0.6406 Q0.2656 -0.6406 0.25 -0.6406 Q0.1719 -0.6406 0.1406 -0.5781 Q0.1406 -0.5469 0.125 -0.5156 Q0.125 -0.4688 0.125 -0.3281 Q0.125 -0.1875 0.1406 -0.125 Q0.1562 -0.0312 0.2188 0 Q0.2344 0 0.25 0 Z"
    /></g
  ></g
></svg
>
<!--MD5=[9b5fd479ff9e12a7cc0df0f0353b59f8]
entity a1--><rect fill="#d6f089" filter="url(#f1pfa1pux4efgx)" height="45" style="stroke: #000000; stroke-width: 1.5;" width="51" x="85.5" y="64"/><svg x="95.5" y="74"><!--Generated by the Batik Graphics2D SVG Generator--><defs id="genericDefs"
  /><g
  ><g transform="scale(20,20) translate(0.2,0.8833)" style="font-size:1; text-rendering:geometricPrecision; color-rendering:optimizeQuality; image-rendering:optimizeQuality; font-family:&apos;jlm_cmmi10&apos;; color-interpolation:linearRGB;"
    ><path style="stroke:none;" d="M0.1562 -0.0781 L0.2969 -0.6094 Q0.2969 -0.625 0.2969 -0.6406 Q0.2969 -0.6406 0.2812 -0.6562 L0.2812 -0.6562 L0.2812 -0.6562 Q0.2812 -0.6562 0.2656 -0.6562 Q0.25 -0.6562 0.2344 -0.6562 Q0.2031 -0.6562 0.2031 -0.6562 Q0.2031 -0.6875 0.2188 -0.6875 L0.2188 -0.6875 L0.2188 -0.6875 L0.2344 -0.6875 L0.5625 -0.6875 Q0.6875 -0.6875 0.7344 -0.6094 Q0.75 -0.5781 0.75 -0.5469 Q0.75 -0.4688 0.6719 -0.4062 Q0.6719 -0.4062 0.6562 -0.4062 Q0.6094 -0.375 0.5469 -0.3594 Q0.6562 -0.3438 0.6875 -0.2812 Q0.7031 -0.25 0.7031 -0.2188 Q0.7031 -0.1406 0.625 -0.0781 L0.625 -0.0781 Q0.5469 0 0.4219 0 L0.0625 0 Q0.0469 0 0.0469 -0.0156 Q0.0469 -0.0312 0.0625 -0.0312 L0.0625 -0.0312 Q0.1406 -0.0312 0.1406 -0.0469 Q0.1562 -0.0469 0.1562 -0.0781 Q0.1562 -0.0781 0.1562 -0.0781 ZM0.3125 -0.3594 L0.4531 -0.3594 Q0.5625 -0.3594 0.625 -0.4375 Q0.6719 -0.4844 0.6719 -0.5469 Q0.6719 -0.625 0.6094 -0.6406 Q0.5781 -0.6562 0.5625 -0.6562 L0.4219 -0.6562 Q0.3906 -0.6562 0.3906 -0.6406 L0.3906 -0.6406 L0.3906 -0.6406 L0.375 -0.6406 L0.375 -0.6406 Q0.375 -0.6406 0.375 -0.6094 L0.3125 -0.3594 ZM0.2656 -0.0312 L0.4062 -0.0312 Q0.5 -0.0312 0.5625 -0.1094 Q0.6094 -0.1562 0.6094 -0.2344 Q0.6094 -0.2969 0.5625 -0.3281 Q0.5312 -0.3438 0.5 -0.3438 L0.3125 -0.3438 L0.2344 -0.0625 Q0.2344 -0.0469 0.2344 -0.0469 Q0.2344 -0.0312 0.2344 -0.0312 L0.2344 -0.0312 L0.2344 -0.0312 L0.25 -0.0312 Q0.25 -0.0312 0.2656 -0.0312 Z"
    /></g
    ><g transform="matrix(20,0,0,20,0,0) translate(0.9585,1.0333) scale(0.7,0.7)" style="font-size:1; text-rendering:geometricPrecision; color-rendering:optimizeQuality; image-rendering:optimizeQuality; font-family:&apos;jlm_cmr10&apos;; color-interpolation:linearRGB;"
    ><path style="stroke:none;" d="M0.2969 -0.6406 L0.2969 -0.0781 Q0.2969 -0.0469 0.3125 -0.0469 Q0.3281 -0.0312 0.3906 -0.0312 L0.4219 -0.0312 L0.4219 0 Q0.3906 0 0.25 0 Q0.125 0 0.0938 0 L0.0938 -0.0312 L0.125 -0.0312 Q0.2031 -0.0312 0.2188 -0.0469 L0.2188 -0.0469 Q0.2188 -0.0625 0.2188 -0.0781 L0.2188 -0.5938 Q0.1719 -0.5781 0.0938 -0.5781 L0.0938 -0.6094 Q0.2031 -0.6094 0.2656 -0.6719 Q0.2969 -0.6719 0.2969 -0.6562 L0.2969 -0.6562 L0.2969 -0.6562 Q0.2969 -0.6562 0.2969 -0.6406 Z"
    /></g
  ></g
></svg
>
<!--MD5=[f89d8cb67b4d8c974030bdacf9c0cf39]
entity a2--><rect fill="#edc679" filter="url(#f1pfa1pux4efgx)" height="45" style="stroke: #000000; stroke-width: 1.5;" width="51" x="171.5" y="64"/><svg x="181.5" y="74"><!--Generated by the Batik Graphics2D SVG Generator--><defs id="genericDefs"
  /><g
  ><g transform="scale(20,20) translate(0.2,0.8833)" style="font-size:1; text-rendering:geometricPrecision; color-rendering:optimizeQuality; image-rendering:optimizeQuality; font-family:&apos;jlm_cmmi10&apos;; color-interpolation:linearRGB;"
    ><path style="stroke:none;" d="M0.1562 -0.0781 L0.2969 -0.6094 Q0.2969 -0.625 0.2969 -0.6406 Q0.2969 -0.6406 0.2812 -0.6562 L0.2812 -0.6562 L0.2812 -0.6562 Q0.2812 -0.6562 0.2656 -0.6562 Q0.25 -0.6562 0.2344 -0.6562 Q0.2031 -0.6562 0.2031 -0.6562 Q0.2031 -0.6875 0.2188 -0.6875 L0.2188 -0.6875 L0.2188 -0.6875 L0.2344 -0.6875 L0.5625 -0.6875 Q0.6875 -0.6875 0.7344 -0.6094 Q0.75 -0.5781 0.75 -0.5469 Q0.75 -0.4688 0.6719 -0.4062 Q0.6719 -0.4062 0.6562 -0.4062 Q0.6094 -0.375 0.5469 -0.3594 Q0.6562 -0.3438 0.6875 -0.2812 Q0.7031 -0.25 0.7031 -0.2188 Q0.7031 -0.1406 0.625 -0.0781 L0.625 -0.0781 Q0.5469 0 0.4219 0 L0.0625 0 Q0.0469 0 0.0469 -0.0156 Q0.0469 -0.0312 0.0625 -0.0312 L0.0625 -0.0312 Q0.1406 -0.0312 0.1406 -0.0469 Q0.1562 -0.0469 0.1562 -0.0781 Q0.1562 -0.0781 0.1562 -0.0781 ZM0.3125 -0.3594 L0.4531 -0.3594 Q0.5625 -0.3594 0.625 -0.4375 Q0.6719 -0.4844 0.6719 -0.5469 Q0.6719 -0.625 0.6094 -0.6406 Q0.5781 -0.6562 0.5625 -0.6562 L0.4219 -0.6562 Q0.3906 -0.6562 0.3906 -0.6406 L0.3906 -0.6406 L0.3906 -0.6406 L0.375 -0.6406 L0.375 -0.6406 Q0.375 -0.6406 0.375 -0.6094 L0.3125 -0.3594 ZM0.2656 -0.0312 L0.4062 -0.0312 Q0.5 -0.0312 0.5625 -0.1094 Q0.6094 -0.1562 0.6094 -0.2344 Q0.6094 -0.2969 0.5625 -0.3281 Q0.5312 -0.3438 0.5 -0.3438 L0.3125 -0.3438 L0.2344 -0.0625 Q0.2344 -0.0469 0.2344 -0.0469 Q0.2344 -0.0312 0.2344 -0.0312 L0.2344 -0.0312 L0.2344 -0.0312 L0.25 -0.0312 Q0.25 -0.0312 0.2656 -0.0312 Z"
    /></g
    ><g transform="matrix(20,0,0,20,0,0) translate(0.9585,1.0333) scale(0.7,0.7)" style="font-size:1; text-rendering:geometricPrecision; color-rendering:optimizeQuality; image-rendering:optimizeQuality; font-family:&apos;jlm_cmr10&apos;; color-interpolation:linearRGB;"
    ><path style="stroke:none;" d="M0.4531 -0.1719 L0.4531 -0.1719 L0.4219 0 L0.0469 0 Q0.0469 -0.0312 0.0625 -0.0312 L0.0625 -0.0312 L0.25 -0.25 Q0.3594 -0.375 0.3594 -0.4688 Q0.3594 -0.5625 0.2969 -0.6094 L0.2969 -0.6094 L0.2969 -0.6094 Q0.2656 -0.6406 0.2188 -0.6406 Q0.1562 -0.6406 0.1094 -0.5781 Q0.0938 -0.5625 0.0938 -0.5312 Q0.0938 -0.5312 0.1094 -0.5312 Q0.1406 -0.5312 0.1562 -0.5 L0.1562 -0.5 Q0.1562 -0.4844 0.1562 -0.4844 Q0.1562 -0.4375 0.1094 -0.4375 Q0.1094 -0.4219 0.1094 -0.4219 Q0.0625 -0.4219 0.0469 -0.4531 Q0.0469 -0.4688 0.0469 -0.4844 Q0.0469 -0.5625 0.1094 -0.6094 Q0.1562 -0.6719 0.2344 -0.6719 Q0.3438 -0.6719 0.4062 -0.5938 Q0.4375 -0.5469 0.4531 -0.4844 Q0.4531 -0.4844 0.4531 -0.4688 Q0.4531 -0.4062 0.3906 -0.3281 Q0.3594 -0.2969 0.2969 -0.25 L0.25 -0.1875 L0.2344 -0.1875 L0.125 -0.0781 L0.3125 -0.0781 Q0.3906 -0.0781 0.4062 -0.0781 Q0.4062 -0.0938 0.4219 -0.1719 L0.4531 -0.1719 Z"
    /></g
  ></g
></svg
>
<!--MD5=[5fd553d62ae787dc09382bbdf294aa1e]
entity a3--><rect fill="#d6f089" filter="url(#f1pfa1pux4efgx)" height="45" style="stroke: #000000; stroke-width: 1.5;" width="51" x="257.5" y="64"/><svg x="267.5" y="74"><!--Generated by the Batik Graphics2D SVG Generator--><defs id="genericDefs"
  /><g
  ><g transform="scale(20,20) translate(0.2,0.8833)" style="font-size:1; text-rendering:geometricPrecision; color-rendering:optimizeQuality; image-rendering:optimizeQuality; font-family:&apos;jlm_cmmi10&apos;; color-interpolation:linearRGB;"
    ><path style="stroke:none;" d="M0.1562 -0.0781 L0.2969 -0.6094 Q0.2969 -0.625 0.2969 -0.6406 Q0.2969 -0.6406 0.2812 -0.6562 L0.2812 -0.6562 L0.2812 -0.6562 Q0.2812 -0.6562 0.2656 -0.6562 Q0.25 -0.6562 0.2344 -0.6562 Q0.2031 -0.6562 0.2031 -0.6562 Q0.2031 -0.6875 0.2188 -0.6875 L0.2188 -0.6875 L0.2188 -0.6875 L0.2344 -0.6875 L0.5625 -0.6875 Q0.6875 -0.6875 0.7344 -0.6094 Q0.75 -0.5781 0.75 -0.5469 Q0.75 -0.4688 0.6719 -0.4062 Q0.6719 -0.4062 0.6562 -0.4062 Q0.6094 -0.375 0.5469 -0.3594 Q0.6562 -0.3438 0.6875 -0.2812 Q0.7031 -0.25 0.7031 -0.2188 Q0.7031 -0.1406 0.625 -0.0781 L0.625 -0.0781 Q0.5469 0 0.4219 0 L0.0625 0 Q0.0469 0 0.0469 -0.0156 Q0.0469 -0.0312 0.0625 -0.0312 L0.0625 -0.0312 Q0.1406 -0.0312 0.1406 -0.0469 Q0.1562 -0.0469 0.1562 -0.0781 Q0.1562 -0.0781 0.1562 -0.0781 ZM0.3125 -0.3594 L0.4531 -0.3594 Q0.5625 -0.3594 0.625 -0.4375 Q0.6719 -0.4844 0.6719 -0.5469 Q0.6719 -0.625 0.6094 -0.6406 Q0.5781 -0.6562 0.5625 -0.6562 L0.4219 -0.6562 Q0.3906 -0.6562 0.3906 -0.6406 L0.3906 -0.6406 L0.3906 -0.6406 L0.375 -0.6406 L0.375 -0.6406 Q0.375 -0.6406 0.375 -0.6094 L0.3125 -0.3594 ZM0.2656 -0.0312 L0.4062 -0.0312 Q0.5 -0.0312 0.5625 -0.1094 Q0.6094 -0.1562 0.6094 -0.2344 Q0.6094 -0.2969 0.5625 -0.3281 Q0.5312 -0.3438 0.5 -0.3438 L0.3125 -0.3438 L0.2344 -0.0625 Q0.2344 -0.0469 0.2344 -0.0469 Q0.2344 -0.0312 0.2344 -0.0312 L0.2344 -0.0312 L0.2344 -0.0312 L0.25 -0.0312 Q0.25 -0.0312 0.2656 -0.0312 Z"
    /></g
    ><g transform="matrix(20,0,0,20,0,0) translate(0.9585,1.0333) scale(0.7,0.7)" style="font-size:1; text-rendering:geometricPrecision; color-rendering:optimizeQuality; image-rendering:optimizeQuality; font-family:&apos;jlm_cmr10&apos;; color-interpolation:linearRGB;"
    ><path style="stroke:none;" d="M0.2969 -0.3594 L0.2969 -0.3594 Q0.3906 -0.3281 0.4375 -0.25 Q0.4531 -0.2188 0.4531 -0.1719 Q0.4531 -0.0938 0.3906 -0.0312 Q0.3281 0.0156 0.25 0.0156 Q0.1406 0.0156 0.0781 -0.0312 Q0.0469 -0.0781 0.0469 -0.1406 Q0.0469 -0.1875 0.0781 -0.1875 Q0.0938 -0.1875 0.0938 -0.1875 Q0.1406 -0.1875 0.1562 -0.1562 Q0.1562 -0.1406 0.1562 -0.1406 Q0.1562 -0.0938 0.125 -0.0781 Q0.1094 -0.0781 0.0938 -0.0781 Q0.125 -0.0156 0.2188 -0.0156 Q0.2344 0 0.2344 0 Q0.3125 0 0.3281 -0.0625 Q0.3594 -0.1094 0.3594 -0.1719 Q0.3594 -0.2969 0.2812 -0.3281 Q0.25 -0.3438 0.2344 -0.3438 L0.1875 -0.3438 Q0.1719 -0.3438 0.1719 -0.3438 Q0.1719 -0.3594 0.1875 -0.3594 Q0.2031 -0.3594 0.2188 -0.3594 Q0.2656 -0.3594 0.2969 -0.4062 L0.2969 -0.4062 L0.2969 -0.4062 L0.2969 -0.4062 L0.2969 -0.4062 L0.3125 -0.4219 Q0.3438 -0.4688 0.3438 -0.5312 Q0.3438 -0.625 0.2656 -0.6406 Q0.25 -0.6406 0.2344 -0.6406 Q0.1719 -0.6406 0.125 -0.5938 Q0.1094 -0.5938 0.1094 -0.5781 Q0.1719 -0.5781 0.1719 -0.5312 Q0.1719 -0.5 0.1406 -0.4844 Q0.125 -0.4844 0.125 -0.4844 Q0.0781 -0.4844 0.0781 -0.5156 L0.0781 -0.5156 L0.0781 -0.5156 Q0.0625 -0.5156 0.0625 -0.5312 Q0.0625 -0.5938 0.1406 -0.6406 Q0.1875 -0.6719 0.25 -0.6719 Q0.3438 -0.6719 0.3906 -0.6094 L0.3906 -0.6094 Q0.4375 -0.5781 0.4375 -0.5312 Q0.4375 -0.4375 0.3594 -0.3906 Q0.3281 -0.3594 0.2969 -0.3594 Z"
    /></g
  ></g
></svg
>
<!--MD5=[271a946153eabc1495ee7e2445644215]
entity a4--><rect fill="#ed905a" filter="url(#f1pfa1pux4efgx)" height="45" style="stroke: #000000; stroke-width: 1.5;" width="51" x="343.5" y="64"/><svg x="353.5" y="74"><!--Generated by the Batik Graphics2D SVG Generator--><defs id="genericDefs"
  /><g
  ><g transform="scale(20,20) translate(0.2,0.8833)" style="font-size:1; text-rendering:geometricPrecision; color-rendering:optimizeQuality; image-rendering:optimizeQuality; font-family:&apos;jlm_cmmi10&apos;; color-interpolation:linearRGB;"
    ><path style="stroke:none;" d="M0.1562 -0.0781 L0.2969 -0.6094 Q0.2969 -0.625 0.2969 -0.6406 Q0.2969 -0.6406 0.2812 -0.6562 L0.2812 -0.6562 L0.2812 -0.6562 Q0.2812 -0.6562 0.2656 -0.6562 Q0.25 -0.6562 0.2344 -0.6562 Q0.2031 -0.6562 0.2031 -0.6562 Q0.2031 -0.6875 0.2188 -0.6875 L0.2188 -0.6875 L0.2188 -0.6875 L0.2344 -0.6875 L0.5625 -0.6875 Q0.6875 -0.6875 0.7344 -0.6094 Q0.75 -0.5781 0.75 -0.5469 Q0.75 -0.4688 0.6719 -0.4062 Q0.6719 -0.4062 0.6562 -0.4062 Q0.6094 -0.375 0.5469 -0.3594 Q0.6562 -0.3438 0.6875 -0.2812 Q0.7031 -0.25 0.7031 -0.2188 Q0.7031 -0.1406 0.625 -0.0781 L0.625 -0.0781 Q0.5469 0 0.4219 0 L0.0625 0 Q0.0469 0 0.0469 -0.0156 Q0.0469 -0.0312 0.0625 -0.0312 L0.0625 -0.0312 Q0.1406 -0.0312 0.1406 -0.0469 Q0.1562 -0.0469 0.1562 -0.0781 Q0.1562 -0.0781 0.1562 -0.0781 ZM0.3125 -0.3594 L0.4531 -0.3594 Q0.5625 -0.3594 0.625 -0.4375 Q0.6719 -0.4844 0.6719 -0.5469 Q0.6719 -0.625 0.6094 -0.6406 Q0.5781 -0.6562 0.5625 -0.6562 L0.4219 -0.6562 Q0.3906 -0.6562 0.3906 -0.6406 L0.3906 -0.6406 L0.3906 -0.6406 L0.375 -0.6406 L0.375 -0.6406 Q0.375 -0.6406 0.375 -0.6094 L0.3125 -0.3594 ZM0.2656 -0.0312 L0.4062 -0.0312 Q0.5 -0.0312 0.5625 -0.1094 Q0.6094 -0.1562 0.6094 -0.2344 Q0.6094 -0.2969 0.5625 -0.3281 Q0.5312 -0.3438 0.5 -0.3438 L0.3125 -0.3438 L0.2344 -0.0625 Q0.2344 -0.0469 0.2344 -0.0469 Q0.2344 -0.0312 0.2344 -0.0312 L0.2344 -0.0312 L0.2344 -0.0312 L0.25 -0.0312 Q0.25 -0.0312 0.2656 -0.0312 Z"
    /></g
    ><g transform="matrix(20,0,0,20,0,0) translate(0.9585,1.0333) scale(0.7,0.7)" style="font-size:1; text-rendering:geometricPrecision; color-rendering:optimizeQuality; image-rendering:optimizeQuality; font-family:&apos;jlm_cmr10&apos;; color-interpolation:linearRGB;"
    ><path style="stroke:none;" d="M0.0312 -0.1719 L0.0312 -0.2031 L0.3281 -0.6719 Q0.3438 -0.6719 0.3594 -0.6719 Q0.375 -0.6719 0.375 -0.6719 L0.375 -0.6562 L0.375 -0.2031 L0.4688 -0.2031 L0.4688 -0.1719 L0.375 -0.1719 L0.375 -0.0781 Q0.375 -0.0469 0.3906 -0.0469 Q0.3906 -0.0312 0.4531 -0.0312 L0.4688 -0.0312 L0.4688 0 Q0.4219 0 0.3281 0 Q0.2344 0 0.2031 0 L0.2031 -0.0312 L0.2188 -0.0312 Q0.2812 -0.0312 0.2969 -0.0469 Q0.2969 -0.0625 0.2969 -0.0781 L0.2969 -0.1719 L0.0312 -0.1719 ZM0.2969 -0.2031 L0.2969 -0.5625 L0.0625 -0.2031 L0.2969 -0.2031 Z"
    /></g
  ></g
></svg
>
<!--MD5=[cd79c22466dba43b02dd713e66f87bf6]
entity a5--><rect fill="#d6f089" filter="url(#f1pfa1pux4efgx)" height="45" style="stroke: #000000; stroke-width: 1.5;" width="51" x="429.5" y="64"/><svg x="439.5" y="74"><!--Generated by the Batik Graphics2D SVG Generator--><defs id="genericDefs"
  /><g
  ><g transform="scale(20,20) translate(0.2,0.8833)" style="font-size:1; text-rendering:geometricPrecision; color-rendering:optimizeQuality; image-rendering:optimizeQuality; font-family:&apos;jlm_cmmi10&apos;; color-interpolation:linearRGB;"
    ><path style="stroke:none;" d="M0.1562 -0.0781 L0.2969 -0.6094 Q0.2969 -0.625 0.2969 -0.6406 Q0.2969 -0.6406 0.2812 -0.6562 L0.2812 -0.6562 L0.2812 -0.6562 Q0.2812 -0.6562 0.2656 -0.6562 Q0.25 -0.6562 0.2344 -0.6562 Q0.2031 -0.6562 0.2031 -0.6562 Q0.2031 -0.6875 0.2188 -0.6875 L0.2188 -0.6875 L0.2188 -0.6875 L0.2344 -0.6875 L0.5625 -0.6875 Q0.6875 -0.6875 0.7344 -0.6094 Q0.75 -0.5781 0.75 -0.5469 Q0.75 -0.4688 0.6719 -0.4062 Q0.6719 -0.4062 0.6562 -0.4062 Q0.6094 -0.375 0.5469 -0.3594 Q0.6562 -0.3438 0.6875 -0.2812 Q0.7031 -0.25 0.7031 -0.2188 Q0.7031 -0.1406 0.625 -0.0781 L0.625 -0.0781 Q0.5469 0 0.4219 0 L0.0625 0 Q0.0469 0 0.0469 -0.0156 Q0.0469 -0.0312 0.0625 -0.0312 L0.0625 -0.0312 Q0.1406 -0.0312 0.1406 -0.0469 Q0.1562 -0.0469 0.1562 -0.0781 Q0.1562 -0.0781 0.1562 -0.0781 ZM0.3125 -0.3594 L0.4531 -0.3594 Q0.5625 -0.3594 0.625 -0.4375 Q0.6719 -0.4844 0.6719 -0.5469 Q0.6719 -0.625 0.6094 -0.6406 Q0.5781 -0.6562 0.5625 -0.6562 L0.4219 -0.6562 Q0.3906 -0.6562 0.3906 -0.6406 L0.3906 -0.6406 L0.3906 -0.6406 L0.375 -0.6406 L0.375 -0.6406 Q0.375 -0.6406 0.375 -0.6094 L0.3125 -0.3594 ZM0.2656 -0.0312 L0.4062 -0.0312 Q0.5 -0.0312 0.5625 -0.1094 Q0.6094 -0.1562 0.6094 -0.2344 Q0.6094 -0.2969 0.5625 -0.3281 Q0.5312 -0.3438 0.5 -0.3438 L0.3125 -0.3438 L0.2344 -0.0625 Q0.2344 -0.0469 0.2344 -0.0469 Q0.2344 -0.0312 0.2344 -0.0312 L0.2344 -0.0312 L0.2344 -0.0312 L0.25 -0.0312 Q0.25 -0.0312 0.2656 -0.0312 Z"
    /></g
    ><g transform="matrix(20,0,0,20,0,0) translate(0.9585,1.0333) scale(0.7,0.7)" style="font-size:1; text-rendering:geometricPrecision; color-rendering:optimizeQuality; image-rendering:optimizeQuality; font-family:&apos;jlm_cmr10&apos;; color-interpolation:linearRGB;"
    ><path style="stroke:none;" d="M0.4531 -0.2031 L0.4531 -0.2031 Q0.4531 -0.0938 0.375 -0.0312 Q0.3125 0.0156 0.2344 0.0156 Q0.1406 0.0156 0.0781 -0.0625 Q0.0469 -0.1094 0.0469 -0.1562 Q0.0469 -0.2031 0.0938 -0.2188 Q0.0938 -0.2188 0.0938 -0.2188 Q0.1406 -0.2188 0.1406 -0.1875 Q0.1562 -0.1719 0.1562 -0.1719 Q0.1562 -0.1406 0.125 -0.125 Q0.1094 -0.1094 0.0938 -0.1094 Q0.0938 -0.1094 0.0781 -0.125 Q0.0938 -0.0625 0.1562 -0.0312 Q0.1875 0 0.2344 0 Q0.2969 0 0.3438 -0.0781 Q0.3594 -0.1094 0.3594 -0.2031 Q0.3594 -0.2969 0.3438 -0.3281 Q0.3125 -0.3906 0.25 -0.3906 Q0.1719 -0.3906 0.125 -0.3281 Q0.125 -0.3125 0.1094 -0.3125 Q0.1094 -0.3125 0.0938 -0.3281 L0.0938 -0.3438 L0.0938 -0.6406 Q0.0938 -0.6562 0.1094 -0.6719 Q0.1094 -0.6719 0.125 -0.6562 Q0.1875 -0.6406 0.25 -0.6406 Q0.3281 -0.6406 0.3906 -0.6562 Q0.3906 -0.6719 0.4062 -0.6719 Q0.4062 -0.6719 0.4062 -0.6562 Q0.4062 -0.6406 0.375 -0.6094 Q0.3125 -0.5469 0.2188 -0.5469 Q0.1719 -0.5469 0.125 -0.5625 L0.125 -0.375 Q0.1875 -0.4219 0.2656 -0.4219 Q0.3438 -0.4219 0.4062 -0.3438 Q0.4531 -0.2812 0.4531 -0.2031 Z"
    /></g
  ></g
></svg
>
<!--MD5=[19a28bd249ddd063ea557d301ede702c]
entity a6--><rect fill="#edc679" filter="url(#f1pfa1pux4efgx)" height="45" style="stroke: #000000; stroke-width: 1.5;" width="51" x="515.5" y="64"/><svg x="525.5" y="74"><!--Generated by the Batik Graphics2D SVG Generator--><defs id="genericDefs"
  /><g
  ><g transform="scale(20,20) translate(0.2,0.8833)" style="font-size:1; text-rendering:geometricPrecision; color-rendering:optimizeQuality; image-rendering:optimizeQuality; font-family:&apos;jlm_cmmi10&apos;; color-interpolation:linearRGB;"
    ><path style="stroke:none;" d="M0.1562 -0.0781 L0.2969 -0.6094 Q0.2969 -0.625 0.2969 -0.6406 Q0.2969 -0.6406 0.2812 -0.6562 L0.2812 -0.6562 L0.2812 -0.6562 Q0.2812 -0.6562 0.2656 -0.6562 Q0.25 -0.6562 0.2344 -0.6562 Q0.2031 -0.6562 0.2031 -0.6562 Q0.2031 -0.6875 0.2188 -0.6875 L0.2188 -0.6875 L0.2188 -0.6875 L0.2344 -0.6875 L0.5625 -0.6875 Q0.6875 -0.6875 0.7344 -0.6094 Q0.75 -0.5781 0.75 -0.5469 Q0.75 -0.4688 0.6719 -0.4062 Q0.6719 -0.4062 0.6562 -0.4062 Q0.6094 -0.375 0.5469 -0.3594 Q0.6562 -0.3438 0.6875 -0.2812 Q0.7031 -0.25 0.7031 -0.2188 Q0.7031 -0.1406 0.625 -0.0781 L0.625 -0.0781 Q0.5469 0 0.4219 0 L0.0625 0 Q0.0469 0 0.0469 -0.0156 Q0.0469 -0.0312 0.0625 -0.0312 L0.0625 -0.0312 Q0.1406 -0.0312 0.1406 -0.0469 Q0.1562 -0.0469 0.1562 -0.0781 Q0.1562 -0.0781 0.1562 -0.0781 ZM0.3125 -0.3594 L0.4531 -0.3594 Q0.5625 -0.3594 0.625 -0.4375 Q0.6719 -0.4844 0.6719 -0.5469 Q0.6719 -0.625 0.6094 -0.6406 Q0.5781 -0.6562 0.5625 -0.6562 L0.4219 -0.6562 Q0.3906 -0.6562 0.3906 -0.6406 L0.3906 -0.6406 L0.3906 -0.6406 L0.375 -0.6406 L0.375 -0.6406 Q0.375 -0.6406 0.375 -0.6094 L0.3125 -0.3594 ZM0.2656 -0.0312 L0.4062 -0.0312 Q0.5 -0.0312 0.5625 -0.1094 Q0.6094 -0.1562 0.6094 -0.2344 Q0.6094 -0.2969 0.5625 -0.3281 Q0.5312 -0.3438 0.5 -0.3438 L0.3125 -0.3438 L0.2344 -0.0625 Q0.2344 -0.0469 0.2344 -0.0469 Q0.2344 -0.0312 0.2344 -0.0312 L0.2344 -0.0312 L0.2344 -0.0312 L0.25 -0.0312 Q0.25 -0.0312 0.2656 -0.0312 Z"
    /></g
    ><g transform="matrix(20,0,0,20,0,0) translate(0.9585,1.0333) scale(0.7,0.7)" style="font-size:1; text-rendering:geometricPrecision; color-rendering:optimizeQuality; image-rendering:optimizeQuality; font-family:&apos;jlm_cmr10&apos;; color-interpolation:linearRGB;"
    ><path style="stroke:none;" d="M0.125 -0.3281 L0.125 -0.3281 Q0.1719 -0.4219 0.25 -0.4219 Q0.3438 -0.4219 0.4062 -0.3438 Q0.4375 -0.3125 0.4531 -0.25 Q0.4531 -0.2344 0.4531 -0.2031 Q0.4531 -0.0938 0.375 -0.0312 Q0.3281 0.0156 0.25 0.0156 Q0.1562 0.0156 0.0938 -0.0781 Q0.0469 -0.1562 0.0469 -0.3125 Q0.0469 -0.4844 0.1406 -0.5938 Q0.2188 -0.6719 0.3125 -0.6719 Q0.3906 -0.6719 0.4219 -0.6094 Q0.4375 -0.5781 0.4375 -0.5625 Q0.4375 -0.5156 0.3906 -0.5156 Q0.3906 -0.5156 0.3906 -0.5156 Q0.3594 -0.5156 0.3438 -0.5312 Q0.3438 -0.5469 0.3438 -0.5625 Q0.3438 -0.5938 0.3906 -0.5938 Q0.375 -0.6406 0.3125 -0.6406 Q0.2344 -0.6406 0.1875 -0.5781 Q0.125 -0.5 0.125 -0.3594 L0.125 -0.3281 ZM0.25 0 L0.25 0 Q0.3125 0 0.3438 -0.0781 Q0.3594 -0.1094 0.3594 -0.2031 Q0.3594 -0.3125 0.3438 -0.3438 Q0.3125 -0.4062 0.25 -0.4062 Q0.1719 -0.4062 0.1406 -0.3125 Q0.1406 -0.2656 0.1406 -0.2188 Q0.1406 -0.125 0.1562 -0.0781 Q0.1719 -0.0312 0.2188 -0.0156 Q0.2344 0 0.25 0 Z"
    /></g
  ></g
></svg
>
<!--MD5=[4760dd4c98940b61f68998120f0667a8]
entity a7--><rect fill="#d6f089" filter="url(#f1pfa1pux4efgx)" height="45" style="stroke: #000000; stroke-width: 1.5;" width="51" x="601.5" y="64"/><svg x="611.5" y="74"><!--Generated by the Batik Graphics2D SVG Generator--><defs id="genericDefs"
  /><g
  ><g transform="scale(20,20) translate(0.2,0.8833)" style="font-size:1; text-rendering:geometricPrecision; color-rendering:optimizeQuality; image-rendering:optimizeQuality; font-family:&apos;jlm_cmmi10&apos;; color-interpolation:linearRGB;"
    ><path style="stroke:none;" d="M0.1562 -0.0781 L0.2969 -0.6094 Q0.2969 -0.625 0.2969 -0.6406 Q0.2969 -0.6406 0.2812 -0.6562 L0.2812 -0.6562 L0.2812 -0.6562 Q0.2812 -0.6562 0.2656 -0.6562 Q0.25 -0.6562 0.2344 -0.6562 Q0.2031 -0.6562 0.2031 -0.6562 Q0.2031 -0.6875 0.2188 -0.6875 L0.2188 -0.6875 L0.2188 -0.6875 L0.2344 -0.6875 L0.5625 -0.6875 Q0.6875 -0.6875 0.7344 -0.6094 Q0.75 -0.5781 0.75 -0.5469 Q0.75 -0.4688 0.6719 -0.4062 Q0.6719 -0.4062 0.6562 -0.4062 Q0.6094 -0.375 0.5469 -0.3594 Q0.6562 -0.3438 0.6875 -0.2812 Q0.7031 -0.25 0.7031 -0.2188 Q0.7031 -0.1406 0.625 -0.0781 L0.625 -0.0781 Q0.5469 0 0.4219 0 L0.0625 0 Q0.0469 0 0.0469 -0.0156 Q0.0469 -0.0312 0.0625 -0.0312 L0.0625 -0.0312 Q0.1406 -0.0312 0.1406 -0.0469 Q0.1562 -0.0469 0.1562 -0.0781 Q0.1562 -0.0781 0.1562 -0.0781 ZM0.3125 -0.3594 L0.4531 -0.3594 Q0.5625 -0.3594 0.625 -0.4375 Q0.6719 -0.4844 0.6719 -0.5469 Q0.6719 -0.625 0.6094 -0.6406 Q0.5781 -0.6562 0.5625 -0.6562 L0.4219 -0.6562 Q0.3906 -0.6562 0.3906 -0.6406 L0.3906 -0.6406 L0.3906 -0.6406 L0.375 -0.6406 L0.375 -0.6406 Q0.375 -0.6406 0.375 -0.6094 L0.3125 -0.3594 ZM0.2656 -0.0312 L0.4062 -0.0312 Q0.5 -0.0312 0.5625 -0.1094 Q0.6094 -0.1562 0.6094 -0.2344 Q0.6094 -0.2969 0.5625 -0.3281 Q0.5312 -0.3438 0.5 -0.3438 L0.3125 -0.3438 L0.2344 -0.0625 Q0.2344 -0.0469 0.2344 -0.0469 Q0.2344 -0.0312 0.2344 -0.0312 L0.2344 -0.0312 L0.2344 -0.0312 L0.25 -0.0312 Q0.25 -0.0312 0.2656 -0.0312 Z"
    /></g
    ><g transform="matrix(20,0,0,20,0,0) translate(0.9585,1.0333) scale(0.7,0.7)" style="font-size:1; text-rendering:geometricPrecision; color-rendering:optimizeQuality; image-rendering:optimizeQuality; font-family:&apos;jlm_cmr10&apos;; color-interpolation:linearRGB;"
    ><path style="stroke:none;" d="M0.4688 -0.6094 L0.3438 -0.4219 Q0.2969 -0.3594 0.2812 -0.25 Q0.2656 -0.1719 0.2656 -0.0781 L0.2656 -0.0312 Q0.2656 0.0156 0.2188 0.0156 Q0.1719 0.0156 0.1719 -0.0312 Q0.1719 -0.2031 0.2656 -0.375 L0.2969 -0.4062 L0.4062 -0.5625 L0.2031 -0.5625 Q0.1094 -0.5625 0.1094 -0.5625 Q0.0938 -0.5469 0.0781 -0.4688 L0.0625 -0.4688 L0.0938 -0.6719 L0.1094 -0.6719 Q0.125 -0.6562 0.125 -0.6562 L0.1406 -0.6562 L0.1406 -0.6562 Q0.1562 -0.6406 0.2344 -0.6406 L0.4844 -0.6406 Q0.4844 -0.625 0.4688 -0.6094 Z"
    /></g
  ></g
></svg
>
<!--MD5=[19465846c23a0439d196599815dfcca2]
entity a8--><rect fill="#fa7373" filter="url(#f1pfa1pux4efgx)" height="45" style="stroke: #000000; stroke-width: 1.5;" width="44" x="688" y="64"/><svg x="698" y="74"><!--Generated by the Batik Graphics2D SVG Generator--><defs id="genericDefs"
  /><g
  ><g transform="scale(20,20) translate(0.2,0.8833)" style="font-size:1; text-rendering:geometricPrecision; color-rendering:optimizeQuality; image-rendering:optimizeQuality; font-family:&apos;jlm_cmmi10&apos;; color-interpolation:linearRGB;"
    ><path style="stroke:none;" d="M0.375 -0.6094 L0.2344 -0.0781 Q0.2344 -0.0625 0.2344 -0.0469 Q0.2344 -0.0312 0.25 -0.0312 L0.25 -0.0312 L0.25 -0.0312 Q0.25 -0.0312 0.2656 -0.0312 Q0.2812 -0.0312 0.2969 -0.0312 Q0.3281 -0.0312 0.3281 -0.0312 Q0.3281 -0.0156 0.3281 -0.0156 Q0.3281 0 0.3125 0 L0.1875 0 L0.1875 0 L0.0469 0 L0.0469 0 Q0.0312 0 0.0312 -0.0156 Q0.0312 -0.0312 0.0469 -0.0312 Q0.0469 -0.0312 0.0625 -0.0312 Q0.1406 -0.0312 0.1406 -0.0469 Q0.1562 -0.0625 0.1562 -0.0781 L0.2969 -0.6094 Q0.2969 -0.625 0.2969 -0.6406 Q0.2969 -0.6562 0.25 -0.6562 L0.25 -0.6562 L0.2188 -0.6562 Q0.2031 -0.6562 0.2031 -0.6562 Q0.2031 -0.6875 0.2188 -0.6875 L0.3438 -0.6875 L0.3438 -0.6875 L0.4844 -0.6875 L0.4844 -0.6875 Q0.5 -0.6875 0.5 -0.6719 Q0.5 -0.6562 0.4844 -0.6562 Q0.4844 -0.6562 0.4688 -0.6562 Q0.3906 -0.6562 0.3906 -0.6406 Q0.375 -0.625 0.375 -0.6094 Z"
    /></g
    ><g transform="matrix(20,0,0,20,0,0) translate(0.6396,1.0333) scale(0.7,0.7)" style="font-size:1; text-rendering:geometricPrecision; color-rendering:optimizeQuality; image-rendering:optimizeQuality; font-family:&apos;jlm_cmr10&apos;; color-interpolation:linearRGB;"
    ><path style="stroke:none;" d="M0.2969 -0.6406 L0.2969 -0.0781 Q0.2969 -0.0469 0.3125 -0.0469 Q0.3281 -0.0312 0.3906 -0.0312 L0.4219 -0.0312 L0.4219 0 Q0.3906 0 0.25 0 Q0.125 0 0.0938 0 L0.0938 -0.0312 L0.125 -0.0312 Q0.2031 -0.0312 0.2188 -0.0469 L0.2188 -0.0469 Q0.2188 -0.0625 0.2188 -0.0781 L0.2188 -0.5938 Q0.1719 -0.5781 0.0938 -0.5781 L0.0938 -0.6094 Q0.2031 -0.6094 0.2656 -0.6719 Q0.2969 -0.6719 0.2969 -0.6562 L0.2969 -0.6562 L0.2969 -0.6562 Q0.2969 -0.6562 0.2969 -0.6406 Z"
    /></g
  ></g
></svg
>
<!--MD5=[6b0e729622303f4def5f3eba755f4c5f]
entity b0--><rect fill="#fa7373" filter="url(#f1pfa1pux4efgx)" height="45" style="stroke: #000000; stroke-width: 1.5;" width="44" x="6" y="169"/><svg x="16" y="179"><!--Generated by the Batik Graphics2D SVG Generator--><defs id="genericDefs"
  /><g
  ><g transform="scale(20,20) translate(0.2,0.8833)" style="font-size:1; text-rendering:geometricPrecision; color-rendering:optimizeQuality; image-rendering:optimizeQuality; font-family:&apos;jlm_cmmi10&apos;; color-interpolation:linearRGB;"
    ><path style="stroke:none;" d="M0.375 -0.6094 L0.2344 -0.0781 Q0.2344 -0.0625 0.2344 -0.0469 Q0.2344 -0.0312 0.25 -0.0312 L0.25 -0.0312 L0.25 -0.0312 Q0.25 -0.0312 0.2656 -0.0312 Q0.2812 -0.0312 0.2969 -0.0312 Q0.3281 -0.0312 0.3281 -0.0312 Q0.3281 -0.0156 0.3281 -0.0156 Q0.3281 0 0.3125 0 L0.1875 0 L0.1875 0 L0.0469 0 L0.0469 0 Q0.0312 0 0.0312 -0.0156 Q0.0312 -0.0312 0.0469 -0.0312 Q0.0469 -0.0312 0.0625 -0.0312 Q0.1406 -0.0312 0.1406 -0.0469 Q0.1562 -0.0625 0.1562 -0.0781 L0.2969 -0.6094 Q0.2969 -0.625 0.2969 -0.6406 Q0.2969 -0.6562 0.25 -0.6562 L0.25 -0.6562 L0.2188 -0.6562 Q0.2031 -0.6562 0.2031 -0.6562 Q0.2031 -0.6875 0.2188 -0.6875 L0.3438 -0.6875 L0.3438 -0.6875 L0.4844 -0.6875 L0.4844 -0.6875 Q0.5 -0.6875 0.5 -0.6719 Q0.5 -0.6562 0.4844 -0.6562 Q0.4844 -0.6562 0.4688 -0.6562 Q0.3906 -0.6562 0.3906 -0.6406 Q0.375 -0.625 0.375 -0.6094 Z"
    /></g
    ><g transform="matrix(20,0,0,20,0,0) translate(0.6396,1.0333) scale(0.7,0.7)" style="font-size:1; text-rendering:geometricPrecision; color-rendering:optimizeQuality; image-rendering:optimizeQuality; font-family:&apos;jlm_cmr10&apos;; color-interpolation:linearRGB;"
    ><path style="stroke:none;" d="M0.4531 -0.3125 Q0.4531 -0.1719 0.4219 -0.0938 Q0.3594 0.0156 0.25 0.0156 Q0.1562 0.0156 0.1094 -0.0469 Q0.0938 -0.0625 0.0781 -0.0781 Q0.0312 -0.1562 0.0312 -0.3125 Q0.0312 -0.4688 0.0781 -0.5469 Q0.125 -0.6562 0.2344 -0.6719 L0.25 -0.6719 Q0.3438 -0.6719 0.3906 -0.5938 L0.3906 -0.5938 Q0.4062 -0.5781 0.4219 -0.5469 Q0.4531 -0.4688 0.4531 -0.3125 ZM0.25 0 L0.25 0 Q0.3125 0 0.3438 -0.0625 Q0.3594 -0.0938 0.3594 -0.125 Q0.375 -0.1875 0.375 -0.3281 Q0.375 -0.4688 0.3594 -0.5312 Q0.3438 -0.625 0.2812 -0.6406 Q0.2656 -0.6406 0.25 -0.6406 Q0.1719 -0.6406 0.1406 -0.5781 Q0.1406 -0.5469 0.125 -0.5156 Q0.125 -0.4688 0.125 -0.3281 Q0.125 -0.1875 0.1406 -0.125 Q0.1562 -0.0312 0.2188 0 Q0.2344 0 0.25 0 Z"
    /></g
  ></g
></svg
>
<!--MD5=[55492eb1c4b62cc9e892e1fafdaeb44c]
entity b1--><rect fill="#d6f089" filter="url(#f1pfa1pux4efgx)" height="45" style="stroke: #000000; stroke-width: 1.5;" width="51" x="85.5" y="169"/><svg x="95.5" y="179"><!--Generated by the Batik Graphics2D SVG Generator--><defs id="genericDefs"
  /><g
  ><g transform="scale(20,20) translate(0.2,0.8833)" style="font-size:1; text-rendering:geometricPrecision; color-rendering:optimizeQuality; image-rendering:optimizeQuality; font-family:&apos;jlm_cmmi10&apos;; color-interpolation:linearRGB;"
    ><path style="stroke:none;" d="M0.1562 -0.0781 L0.2969 -0.6094 Q0.2969 -0.625 0.2969 -0.6406 Q0.2969 -0.6406 0.2812 -0.6562 L0.2812 -0.6562 L0.2812 -0.6562 Q0.2812 -0.6562 0.2656 -0.6562 Q0.25 -0.6562 0.2344 -0.6562 Q0.2031 -0.6562 0.2031 -0.6562 Q0.2031 -0.6875 0.2188 -0.6875 L0.2188 -0.6875 L0.2188 -0.6875 L0.2344 -0.6875 L0.5625 -0.6875 Q0.6875 -0.6875 0.7344 -0.6094 Q0.75 -0.5781 0.75 -0.5469 Q0.75 -0.4688 0.6719 -0.4062 Q0.6719 -0.4062 0.6562 -0.4062 Q0.6094 -0.375 0.5469 -0.3594 Q0.6562 -0.3438 0.6875 -0.2812 Q0.7031 -0.25 0.7031 -0.2188 Q0.7031 -0.1406 0.625 -0.0781 L0.625 -0.0781 Q0.5469 0 0.4219 0 L0.0625 0 Q0.0469 0 0.0469 -0.0156 Q0.0469 -0.0312 0.0625 -0.0312 L0.0625 -0.0312 Q0.1406 -0.0312 0.1406 -0.0469 Q0.1562 -0.0469 0.1562 -0.0781 Q0.1562 -0.0781 0.1562 -0.0781 ZM0.3125 -0.3594 L0.4531 -0.3594 Q0.5625 -0.3594 0.625 -0.4375 Q0.6719 -0.4844 0.6719 -0.5469 Q0.6719 -0.625 0.6094 -0.6406 Q0.5781 -0.6562 0.5625 -0.6562 L0.4219 -0.6562 Q0.3906 -0.6562 0.3906 -0.6406 L0.3906 -0.6406 L0.3906 -0.6406 L0.375 -0.6406 L0.375 -0.6406 Q0.375 -0.6406 0.375 -0.6094 L0.3125 -0.3594 ZM0.2656 -0.0312 L0.4062 -0.0312 Q0.5 -0.0312 0.5625 -0.1094 Q0.6094 -0.1562 0.6094 -0.2344 Q0.6094 -0.2969 0.5625 -0.3281 Q0.5312 -0.3438 0.5 -0.3438 L0.3125 -0.3438 L0.2344 -0.0625 Q0.2344 -0.0469 0.2344 -0.0469 Q0.2344 -0.0312 0.2344 -0.0312 L0.2344 -0.0312 L0.2344 -0.0312 L0.25 -0.0312 Q0.25 -0.0312 0.2656 -0.0312 Z"
    /></g
    ><g transform="matrix(20,0,0,20,0,0) translate(0.9585,1.0333) scale(0.7,0.7)" style="font-size:1; text-rendering:geometricPrecision; color-rendering:optimizeQuality; image-rendering:optimizeQuality; font-family:&apos;jlm_cmr10&apos;; color-interpolation:linearRGB;"
    ><path style="stroke:none;" d="M0.2969 -0.6406 L0.2969 -0.0781 Q0.2969 -0.0469 0.3125 -0.0469 Q0.3281 -0.0312 0.3906 -0.0312 L0.4219 -0.0312 L0.4219 0 Q0.3906 0 0.25 0 Q0.125 0 0.0938 0 L0.0938 -0.0312 L0.125 -0.0312 Q0.2031 -0.0312 0.2188 -0.0469 L0.2188 -0.0469 Q0.2188 -0.0625 0.2188 -0.0781 L0.2188 -0.5938 Q0.1719 -0.5781 0.0938 -0.5781 L0.0938 -0.6094 Q0.2031 -0.6094 0.2656 -0.6719 Q0.2969 -0.6719 0.2969 -0.6562 L0.2969 -0.6562 L0.2969 -0.6562 Q0.2969 -0.6562 0.2969 -0.6406 Z"
    /></g
  ></g
></svg
>
<!--MD5=[bb04a20f8ffc3fa40d9086bdeb8759dc]
entity b2--><rect fill="#edc679" filter="url(#f1pfa1pux4efgx)" height="45" style="stroke: #000000; stroke-width: 1.5;" width="51" x="171.5" y="169"/><svg x="181.5" y="179"><!--Generated by the Batik Graphics2D SVG Generator--><defs id="genericDefs"
  /><g
  ><g transform="scale(20,20) translate(0.2,0.8833)" style="font-size:1; text-rendering:geometricPrecision; color-rendering:optimizeQuality; image-rendering:optimizeQuality; font-family:&apos;jlm_cmmi10&apos;; color-interpolation:linearRGB;"
    ><path style="stroke:none;" d="M0.1562 -0.0781 L0.2969 -0.6094 Q0.2969 -0.625 0.2969 -0.6406 Q0.2969 -0.6406 0.2812 -0.6562 L0.2812 -0.6562 L0.2812 -0.6562 Q0.2812 -0.6562 0.2656 -0.6562 Q0.25 -0.6562 0.2344 -0.6562 Q0.2031 -0.6562 0.2031 -0.6562 Q0.2031 -0.6875 0.2188 -0.6875 L0.2188 -0.6875 L0.2188 -0.6875 L0.2344 -0.6875 L0.5625 -0.6875 Q0.6875 -0.6875 0.7344 -0.6094 Q0.75 -0.5781 0.75 -0.5469 Q0.75 -0.4688 0.6719 -0.4062 Q0.6719 -0.4062 0.6562 -0.4062 Q0.6094 -0.375 0.5469 -0.3594 Q0.6562 -0.3438 0.6875 -0.2812 Q0.7031 -0.25 0.7031 -0.2188 Q0.7031 -0.1406 0.625 -0.0781 L0.625 -0.0781 Q0.5469 0 0.4219 0 L0.0625 0 Q0.0469 0 0.0469 -0.0156 Q0.0469 -0.0312 0.0625 -0.0312 L0.0625 -0.0312 Q0.1406 -0.0312 0.1406 -0.0469 Q0.1562 -0.0469 0.1562 -0.0781 Q0.1562 -0.0781 0.1562 -0.0781 ZM0.3125 -0.3594 L0.4531 -0.3594 Q0.5625 -0.3594 0.625 -0.4375 Q0.6719 -0.4844 0.6719 -0.5469 Q0.6719 -0.625 0.6094 -0.6406 Q0.5781 -0.6562 0.5625 -0.6562 L0.4219 -0.6562 Q0.3906 -0.6562 0.3906 -0.6406 L0.3906 -0.6406 L0.3906 -0.6406 L0.375 -0.6406 L0.375 -0.6406 Q0.375 -0.6406 0.375 -0.6094 L0.3125 -0.3594 ZM0.2656 -0.0312 L0.4062 -0.0312 Q0.5 -0.0312 0.5625 -0.1094 Q0.6094 -0.1562 0.6094 -0.2344 Q0.6094 -0.2969 0.5625 -0.3281 Q0.5312 -0.3438 0.5 -0.3438 L0.3125 -0.3438 L0.2344 -0.0625 Q0.2344 -0.0469 0.2344 -0.0469 Q0.2344 -0.0312 0.2344 -0.0312 L0.2344 -0.0312 L0.2344 -0.0312 L0.25 -0.0312 Q0.25 -0.0312 0.2656 -0.0312 Z"
    /></g
    ><g transform="matrix(20,0,0,20,0,0) translate(0.9585,1.0333) scale(0.7,0.7)" style="font-size:1; text-rendering:geometricPrecision; color-rendering:optimizeQuality; image-rendering:optimizeQuality; font-family:&apos;jlm_cmr10&apos;; color-interpolation:linearRGB;"
    ><path style="stroke:none;" d="M0.4531 -0.1719 L0.4531 -0.1719 L0.4219 0 L0.0469 0 Q0.0469 -0.0312 0.0625 -0.0312 L0.0625 -0.0312 L0.25 -0.25 Q0.3594 -0.375 0.3594 -0.4688 Q0.3594 -0.5625 0.2969 -0.6094 L0.2969 -0.6094 L0.2969 -0.6094 Q0.2656 -0.6406 0.2188 -0.6406 Q0.1562 -0.6406 0.1094 -0.5781 Q0.0938 -0.5625 0.0938 -0.5312 Q0.0938 -0.5312 0.1094 -0.5312 Q0.1406 -0.5312 0.1562 -0.5 L0.1562 -0.5 Q0.1562 -0.4844 0.1562 -0.4844 Q0.1562 -0.4375 0.1094 -0.4375 Q0.1094 -0.4219 0.1094 -0.4219 Q0.0625 -0.4219 0.0469 -0.4531 Q0.0469 -0.4688 0.0469 -0.4844 Q0.0469 -0.5625 0.1094 -0.6094 Q0.1562 -0.6719 0.2344 -0.6719 Q0.3438 -0.6719 0.4062 -0.5938 Q0.4375 -0.5469 0.4531 -0.4844 Q0.4531 -0.4844 0.4531 -0.4688 Q0.4531 -0.4062 0.3906 -0.3281 Q0.3594 -0.2969 0.2969 -0.25 L0.25 -0.1875 L0.2344 -0.1875 L0.125 -0.0781 L0.3125 -0.0781 Q0.3906 -0.0781 0.4062 -0.0781 Q0.4062 -0.0938 0.4219 -0.1719 L0.4531 -0.1719 Z"
    /></g
  ></g
></svg
>
<!--MD5=[e9d95f20fc99ce2fb8b977df372e67de]
entity b3--><rect fill="#d6f089" filter="url(#f1pfa1pux4efgx)" height="45" style="stroke: #000000; stroke-width: 1.5;" width="51" x="257.5" y="169"/><svg x="267.5" y="179"><!--Generated by the Batik Graphics2D SVG Generator--><defs id="genericDefs"
  /><g
  ><g transform="scale(20,20) translate(0.2,0.8833)" style="font-size:1; text-rendering:geometricPrecision; color-rendering:optimizeQuality; image-rendering:optimizeQuality; font-family:&apos;jlm_cmmi10&apos;; color-interpolation:linearRGB;"
    ><path style="stroke:none;" d="M0.1562 -0.0781 L0.2969 -0.6094 Q0.2969 -0.625 0.2969 -0.6406 Q0.2969 -0.6406 0.2812 -0.6562 L0.2812 -0.6562 L0.2812 -0.6562 Q0.2812 -0.6562 0.2656 -0.6562 Q0.25 -0.6562 0.2344 -0.6562 Q0.2031 -0.6562 0.2031 -0.6562 Q0.2031 -0.6875 0.2188 -0.6875 L0.2188 -0.6875 L0.2188 -0.6875 L0.2344 -0.6875 L0.5625 -0.6875 Q0.6875 -0.6875 0.7344 -0.6094 Q0.75 -0.5781 0.75 -0.5469 Q0.75 -0.4688 0.6719 -0.4062 Q0.6719 -0.4062 0.6562 -0.4062 Q0.6094 -0.375 0.5469 -0.3594 Q0.6562 -0.3438 0.6875 -0.2812 Q0.7031 -0.25 0.7031 -0.2188 Q0.7031 -0.1406 0.625 -0.0781 L0.625 -0.0781 Q0.5469 0 0.4219 0 L0.0625 0 Q0.0469 0 0.0469 -0.0156 Q0.0469 -0.0312 0.0625 -0.0312 L0.0625 -0.0312 Q0.1406 -0.0312 0.1406 -0.0469 Q0.1562 -0.0469 0.1562 -0.0781 Q0.1562 -0.0781 0.1562 -0.0781 ZM0.3125 -0.3594 L0.4531 -0.3594 Q0.5625 -0.3594 0.625 -0.4375 Q0.6719 -0.4844 0.6719 -0.5469 Q0.6719 -0.625 0.6094 -0.6406 Q0.5781 -0.6562 0.5625 -0.6562 L0.4219 -0.6562 Q0.3906 -0.6562 0.3906 -0.6406 L0.3906 -0.6406 L0.3906 -0.6406 L0.375 -0.6406 L0.375 -0.6406 Q0.375 -0.6406 0.375 -0.6094 L0.3125 -0.3594 ZM0.2656 -0.0312 L0.4062 -0.0312 Q0.5 -0.0312 0.5625 -0.1094 Q0.6094 -0.1562 0.6094 -0.2344 Q0.6094 -0.2969 0.5625 -0.3281 Q0.5312 -0.3438 0.5 -0.3438 L0.3125 -0.3438 L0.2344 -0.0625 Q0.2344 -0.0469 0.2344 -0.0469 Q0.2344 -0.0312 0.2344 -0.0312 L0.2344 -0.0312 L0.2344 -0.0312 L0.25 -0.0312 Q0.25 -0.0312 0.2656 -0.0312 Z"
    /></g
    ><g transform="matrix(20,0,0,20,0,0) translate(0.9585,1.0333) scale(0.7,0.7)" style="font-size:1; text-rendering:geometricPrecision; color-rendering:optimizeQuality; image-rendering:optimizeQuality; font-family:&apos;jlm_cmr10&apos;; color-interpolation:linearRGB;"
    ><path style="stroke:none;" d="M0.2969 -0.3594 L0.2969 -0.3594 Q0.3906 -0.3281 0.4375 -0.25 Q0.4531 -0.2188 0.4531 -0.1719 Q0.4531 -0.0938 0.3906 -0.0312 Q0.3281 0.0156 0.25 0.0156 Q0.1406 0.0156 0.0781 -0.0312 Q0.0469 -0.0781 0.0469 -0.1406 Q0.0469 -0.1875 0.0781 -0.1875 Q0.0938 -0.1875 0.0938 -0.1875 Q0.1406 -0.1875 0.1562 -0.1562 Q0.1562 -0.1406 0.1562 -0.1406 Q0.1562 -0.0938 0.125 -0.0781 Q0.1094 -0.0781 0.0938 -0.0781 Q0.125 -0.0156 0.2188 -0.0156 Q0.2344 0 0.2344 0 Q0.3125 0 0.3281 -0.0625 Q0.3594 -0.1094 0.3594 -0.1719 Q0.3594 -0.2969 0.2812 -0.3281 Q0.25 -0.3438 0.2344 -0.3438 L0.1875 -0.3438 Q0.1719 -0.3438 0.1719 -0.3438 Q0.1719 -0.3594 0.1875 -0.3594 Q0.2031 -0.3594 0.2188 -0.3594 Q0.2656 -0.3594 0.2969 -0.4062 L0.2969 -0.4062 L0.2969 -0.4062 L0.2969 -0.4062 L0.2969 -0.4062 L0.3125 -0.4219 Q0.3438 -0.4688 0.3438 -0.5312 Q0.3438 -0.625 0.2656 -0.6406 Q0.25 -0.6406 0.2344 -0.6406 Q0.1719 -0.6406 0.125 -0.5938 Q0.1094 -0.5938 0.1094 -0.5781 Q0.1719 -0.5781 0.1719 -0.5312 Q0.1719 -0.5 0.1406 -0.4844 Q0.125 -0.4844 0.125 -0.4844 Q0.0781 -0.4844 0.0781 -0.5156 L0.0781 -0.5156 L0.0781 -0.5156 Q0.0625 -0.5156 0.0625 -0.5312 Q0.0625 -0.5938 0.1406 -0.6406 Q0.1875 -0.6719 0.25 -0.6719 Q0.3438 -0.6719 0.3906 -0.6094 L0.3906 -0.6094 Q0.4375 -0.5781 0.4375 -0.5312 Q0.4375 -0.4375 0.3594 -0.3906 Q0.3281 -0.3594 0.2969 -0.3594 Z"
    /></g
  ></g
></svg
>
<!--MD5=[1ce960fb38560755b862e8efbf4a4ac4]
entity b4--><rect fill="#ed905a" filter="url(#f1pfa1pux4efgx)" height="45" style="stroke: #000000; stroke-width: 1.5;" width="51" x="343.5" y="169"/><svg x="353.5" y="179"><!--Generated by the Batik Graphics2D SVG Generator--><defs id="genericDefs"
  /><g
  ><g transform="scale(20,20) translate(0.2,0.8833)" style="font-size:1; text-rendering:geometricPrecision; color-rendering:optimizeQuality; image-rendering:optimizeQuality; font-family:&apos;jlm_cmmi10&apos;; color-interpolation:linearRGB;"
    ><path style="stroke:none;" d="M0.1562 -0.0781 L0.2969 -0.6094 Q0.2969 -0.625 0.2969 -0.6406 Q0.2969 -0.6406 0.2812 -0.6562 L0.2812 -0.6562 L0.2812 -0.6562 Q0.2812 -0.6562 0.2656 -0.6562 Q0.25 -0.6562 0.2344 -0.6562 Q0.2031 -0.6562 0.2031 -0.6562 Q0.2031 -0.6875 0.2188 -0.6875 L0.2188 -0.6875 L0.2188 -0.6875 L0.2344 -0.6875 L0.5625 -0.6875 Q0.6875 -0.6875 0.7344 -0.6094 Q0.75 -0.5781 0.75 -0.5469 Q0.75 -0.4688 0.6719 -0.4062 Q0.6719 -0.4062 0.6562 -0.4062 Q0.6094 -0.375 0.5469 -0.3594 Q0.6562 -0.3438 0.6875 -0.2812 Q0.7031 -0.25 0.7031 -0.2188 Q0.7031 -0.1406 0.625 -0.0781 L0.625 -0.0781 Q0.5469 0 0.4219 0 L0.0625 0 Q0.0469 0 0.0469 -0.0156 Q0.0469 -0.0312 0.0625 -0.0312 L0.0625 -0.0312 Q0.1406 -0.0312 0.1406 -0.0469 Q0.1562 -0.0469 0.1562 -0.0781 Q0.1562 -0.0781 0.1562 -0.0781 ZM0.3125 -0.3594 L0.4531 -0.3594 Q0.5625 -0.3594 0.625 -0.4375 Q0.6719 -0.4844 0.6719 -0.5469 Q0.6719 -0.625 0.6094 -0.6406 Q0.5781 -0.6562 0.5625 -0.6562 L0.4219 -0.6562 Q0.3906 -0.6562 0.3906 -0.6406 L0.3906 -0.6406 L0.3906 -0.6406 L0.375 -0.6406 L0.375 -0.6406 Q0.375 -0.6406 0.375 -0.6094 L0.3125 -0.3594 ZM0.2656 -0.0312 L0.4062 -0.0312 Q0.5 -0.0312 0.5625 -0.1094 Q0.6094 -0.1562 0.6094 -0.2344 Q0.6094 -0.2969 0.5625 -0.3281 Q0.5312 -0.3438 0.5 -0.3438 L0.3125 -0.3438 L0.2344 -0.0625 Q0.2344 -0.0469 0.2344 -0.0469 Q0.2344 -0.0312 0.2344 -0.0312 L0.2344 -0.0312 L0.2344 -0.0312 L0.25 -0.0312 Q0.25 -0.0312 0.2656 -0.0312 Z"
    /></g
    ><g transform="matrix(20,0,0,20,0,0) translate(0.9585,1.0333) scale(0.7,0.7)" style="font-size:1; text-rendering:geometricPrecision; color-rendering:optimizeQuality; image-rendering:optimizeQuality; font-family:&apos;jlm_cmr10&apos;; color-interpolation:linearRGB;"
    ><path style="stroke:none;" d="M0.0312 -0.1719 L0.0312 -0.2031 L0.3281 -0.6719 Q0.3438 -0.6719 0.3594 -0.6719 Q0.375 -0.6719 0.375 -0.6719 L0.375 -0.6562 L0.375 -0.2031 L0.4688 -0.2031 L0.4688 -0.1719 L0.375 -0.1719 L0.375 -0.0781 Q0.375 -0.0469 0.3906 -0.0469 Q0.3906 -0.0312 0.4531 -0.0312 L0.4688 -0.0312 L0.4688 0 Q0.4219 0 0.3281 0 Q0.2344 0 0.2031 0 L0.2031 -0.0312 L0.2188 -0.0312 Q0.2812 -0.0312 0.2969 -0.0469 Q0.2969 -0.0625 0.2969 -0.0781 L0.2969 -0.1719 L0.0312 -0.1719 ZM0.2969 -0.2031 L0.2969 -0.5625 L0.0625 -0.2031 L0.2969 -0.2031 Z"
    /></g
  ></g
></svg
>
<!--MD5=[2a8c0f8b3c228d0be80896e8f45c28b0]
entity b5--><rect fill="#d6f089" filter="url(#f1pfa1pux4efgx)" height="45" style="stroke: #000000; stroke-width: 1.5;" width="51" x="429.5" y="169"/><svg x="439.5" y="179"><!--Generated by the Batik Graphics2D SVG Generator--><defs id="genericDefs"
  /><g
  ><g transform="scale(20,20) translate(0.2,0.8833)" style="font-size:1; text-rendering:geometricPrecision; color-rendering:optimizeQuality; image-rendering:optimizeQuality; font-family:&apos;jlm_cmmi10&apos;; color-interpolation:linearRGB;"
    ><path style="stroke:none;" d="M0.1562 -0.0781 L0.2969 -0.6094 Q0.2969 -0.625 0.2969 -0.6406 Q0.2969 -0.6406 0.2812 -0.6562 L0.2812 -0.6562 L0.2812 -0.6562 Q0.2812 -0.6562 0.2656 -0.6562 Q0.25 -0.6562 0.2344 -0.6562 Q0.2031 -0.6562 0.2031 -0.6562 Q0.2031 -0.6875 0.2188 -0.6875 L0.2188 -0.6875 L0.2188 -0.6875 L0.2344 -0.6875 L0.5625 -0.6875 Q0.6875 -0.6875 0.7344 -0.6094 Q0.75 -0.5781 0.75 -0.5469 Q0.75 -0.4688 0.6719 -0.4062 Q0.6719 -0.4062 0.6562 -0.4062 Q0.6094 -0.375 0.5469 -0.3594 Q0.6562 -0.3438 0.6875 -0.2812 Q0.7031 -0.25 0.7031 -0.2188 Q0.7031 -0.1406 0.625 -0.0781 L0.625 -0.0781 Q0.5469 0 0.4219 0 L0.0625 0 Q0.0469 0 0.0469 -0.0156 Q0.0469 -0.0312 0.0625 -0.0312 L0.0625 -0.0312 Q0.1406 -0.0312 0.1406 -0.0469 Q0.1562 -0.0469 0.1562 -0.0781 Q0.1562 -0.0781 0.1562 -0.0781 ZM0.3125 -0.3594 L0.4531 -0.3594 Q0.5625 -0.3594 0.625 -0.4375 Q0.6719 -0.4844 0.6719 -0.5469 Q0.6719 -0.625 0.6094 -0.6406 Q0.5781 -0.6562 0.5625 -0.6562 L0.4219 -0.6562 Q0.3906 -0.6562 0.3906 -0.6406 L0.3906 -0.6406 L0.3906 -0.6406 L0.375 -0.6406 L0.375 -0.6406 Q0.375 -0.6406 0.375 -0.6094 L0.3125 -0.3594 ZM0.2656 -0.0312 L0.4062 -0.0312 Q0.5 -0.0312 0.5625 -0.1094 Q0.6094 -0.1562 0.6094 -0.2344 Q0.6094 -0.2969 0.5625 -0.3281 Q0.5312 -0.3438 0.5 -0.3438 L0.3125 -0.3438 L0.2344 -0.0625 Q0.2344 -0.0469 0.2344 -0.0469 Q0.2344 -0.0312 0.2344 -0.0312 L0.2344 -0.0312 L0.2344 -0.0312 L0.25 -0.0312 Q0.25 -0.0312 0.2656 -0.0312 Z"
    /></g
    ><g transform="matrix(20,0,0,20,0,0) translate(0.9585,1.0333) scale(0.7,0.7)" style="font-size:1; text-rendering:geometricPrecision; color-rendering:optimizeQuality; image-rendering:optimizeQuality; font-family:&apos;jlm_cmr10&apos;; color-interpolation:linearRGB;"
    ><path style="stroke:none;" d="M0.4531 -0.2031 L0.4531 -0.2031 Q0.4531 -0.0938 0.375 -0.0312 Q0.3125 0.0156 0.2344 0.0156 Q0.1406 0.0156 0.0781 -0.0625 Q0.0469 -0.1094 0.0469 -0.1562 Q0.0469 -0.2031 0.0938 -0.2188 Q0.0938 -0.2188 0.0938 -0.2188 Q0.1406 -0.2188 0.1406 -0.1875 Q0.1562 -0.1719 0.1562 -0.1719 Q0.1562 -0.1406 0.125 -0.125 Q0.1094 -0.1094 0.0938 -0.1094 Q0.0938 -0.1094 0.0781 -0.125 Q0.0938 -0.0625 0.1562 -0.0312 Q0.1875 0 0.2344 0 Q0.2969 0 0.3438 -0.0781 Q0.3594 -0.1094 0.3594 -0.2031 Q0.3594 -0.2969 0.3438 -0.3281 Q0.3125 -0.3906 0.25 -0.3906 Q0.1719 -0.3906 0.125 -0.3281 Q0.125 -0.3125 0.1094 -0.3125 Q0.1094 -0.3125 0.0938 -0.3281 L0.0938 -0.3438 L0.0938 -0.6406 Q0.0938 -0.6562 0.1094 -0.6719 Q0.1094 -0.6719 0.125 -0.6562 Q0.1875 -0.6406 0.25 -0.6406 Q0.3281 -0.6406 0.3906 -0.6562 Q0.3906 -0.6719 0.4062 -0.6719 Q0.4062 -0.6719 0.4062 -0.6562 Q0.4062 -0.6406 0.375 -0.6094 Q0.3125 -0.5469 0.2188 -0.5469 Q0.1719 -0.5469 0.125 -0.5625 L0.125 -0.375 Q0.1875 -0.4219 0.2656 -0.4219 Q0.3438 -0.4219 0.4062 -0.3438 Q0.4531 -0.2812 0.4531 -0.2031 Z"
    /></g
  ></g
></svg
>
<!--MD5=[a77eeca02088215ee6f6daab415a21a2]
entity b6--><rect fill="#edc679" filter="url(#f1pfa1pux4efgx)" height="45" style="stroke: #000000; stroke-width: 1.5;" width="51" x="515.5" y="169"/><svg x="525.5" y="179"><!--Generated by the Batik Graphics2D SVG Generator--><defs id="genericDefs"
  /><g
  ><g transform="scale(20,20) translate(0.2,0.8833)" style="font-size:1; text-rendering:geometricPrecision; color-rendering:optimizeQuality; image-rendering:optimizeQuality; font-family:&apos;jlm_cmmi10&apos;; color-interpolation:linearRGB;"
    ><path style="stroke:none;" d="M0.1562 -0.0781 L0.2969 -0.6094 Q0.2969 -0.625 0.2969 -0.6406 Q0.2969 -0.6406 0.2812 -0.6562 L0.2812 -0.6562 L0.2812 -0.6562 Q0.2812 -0.6562 0.2656 -0.6562 Q0.25 -0.6562 0.2344 -0.6562 Q0.2031 -0.6562 0.2031 -0.6562 Q0.2031 -0.6875 0.2188 -0.6875 L0.2188 -0.6875 L0.2188 -0.6875 L0.2344 -0.6875 L0.5625 -0.6875 Q0.6875 -0.6875 0.7344 -0.6094 Q0.75 -0.5781 0.75 -0.5469 Q0.75 -0.4688 0.6719 -0.4062 Q0.6719 -0.4062 0.6562 -0.4062 Q0.6094 -0.375 0.5469 -0.3594 Q0.6562 -0.3438 0.6875 -0.2812 Q0.7031 -0.25 0.7031 -0.2188 Q0.7031 -0.1406 0.625 -0.0781 L0.625 -0.0781 Q0.5469 0 0.4219 0 L0.0625 0 Q0.0469 0 0.0469 -0.0156 Q0.0469 -0.0312 0.0625 -0.0312 L0.0625 -0.0312 Q0.1406 -0.0312 0.1406 -0.0469 Q0.1562 -0.0469 0.1562 -0.0781 Q0.1562 -0.0781 0.1562 -0.0781 ZM0.3125 -0.3594 L0.4531 -0.3594 Q0.5625 -0.3594 0.625 -0.4375 Q0.6719 -0.4844 0.6719 -0.5469 Q0.6719 -0.625 0.6094 -0.6406 Q0.5781 -0.6562 0.5625 -0.6562 L0.4219 -0.6562 Q0.3906 -0.6562 0.3906 -0.6406 L0.3906 -0.6406 L0.3906 -0.6406 L0.375 -0.6406 L0.375 -0.6406 Q0.375 -0.6406 0.375 -0.6094 L0.3125 -0.3594 ZM0.2656 -0.0312 L0.4062 -0.0312 Q0.5 -0.0312 0.5625 -0.1094 Q0.6094 -0.1562 0.6094 -0.2344 Q0.6094 -0.2969 0.5625 -0.3281 Q0.5312 -0.3438 0.5 -0.3438 L0.3125 -0.3438 L0.2344 -0.0625 Q0.2344 -0.0469 0.2344 -0.0469 Q0.2344 -0.0312 0.2344 -0.0312 L0.2344 -0.0312 L0.2344 -0.0312 L0.25 -0.0312 Q0.25 -0.0312 0.2656 -0.0312 Z"
    /></g
    ><g transform="matrix(20,0,0,20,0,0) translate(0.9585,1.0333) scale(0.7,0.7)" style="font-size:1; text-rendering:geometricPrecision; color-rendering:optimizeQuality; image-rendering:optimizeQuality; font-family:&apos;jlm_cmr10&apos;; color-interpolation:linearRGB;"
    ><path style="stroke:none;" d="M0.125 -0.3281 L0.125 -0.3281 Q0.1719 -0.4219 0.25 -0.4219 Q0.3438 -0.4219 0.4062 -0.3438 Q0.4375 -0.3125 0.4531 -0.25 Q0.4531 -0.2344 0.4531 -0.2031 Q0.4531 -0.0938 0.375 -0.0312 Q0.3281 0.0156 0.25 0.0156 Q0.1562 0.0156 0.0938 -0.0781 Q0.0469 -0.1562 0.0469 -0.3125 Q0.0469 -0.4844 0.1406 -0.5938 Q0.2188 -0.6719 0.3125 -0.6719 Q0.3906 -0.6719 0.4219 -0.6094 Q0.4375 -0.5781 0.4375 -0.5625 Q0.4375 -0.5156 0.3906 -0.5156 Q0.3906 -0.5156 0.3906 -0.5156 Q0.3594 -0.5156 0.3438 -0.5312 Q0.3438 -0.5469 0.3438 -0.5625 Q0.3438 -0.5938 0.3906 -0.5938 Q0.375 -0.6406 0.3125 -0.6406 Q0.2344 -0.6406 0.1875 -0.5781 Q0.125 -0.5 0.125 -0.3594 L0.125 -0.3281 ZM0.25 0 L0.25 0 Q0.3125 0 0.3438 -0.0781 Q0.3594 -0.1094 0.3594 -0.2031 Q0.3594 -0.3125 0.3438 -0.3438 Q0.3125 -0.4062 0.25 -0.4062 Q0.1719 -0.4062 0.1406 -0.3125 Q0.1406 -0.2656 0.1406 -0.2188 Q0.1406 -0.125 0.1562 -0.0781 Q0.1719 -0.0312 0.2188 -0.0156 Q0.2344 0 0.25 0 Z"
    /></g
  ></g
></svg
>
<!--MD5=[b63b949d92c1fb2c61102e611b370e1d]
entity b7--><rect fill="#d6f089" filter="url(#f1pfa1pux4efgx)" height="45" style="stroke: #000000; stroke-width: 1.5;" width="51" x="601.5" y="169"/><svg x="611.5" y="179"><!--Generated by the Batik Graphics2D SVG Generator--><defs id="genericDefs"
  /><g
  ><g transform="scale(20,20) translate(0.2,0.8833)" style="font-size:1; text-rendering:geometricPrecision; color-rendering:optimizeQuality; image-rendering:optimizeQuality; font-family:&apos;jlm_cmmi10&apos;; color-interpolation:linearRGB;"
    ><path style="stroke:none;" d="M0.1562 -0.0781 L0.2969 -0.6094 Q0.2969 -0.625 0.2969 -0.6406 Q0.2969 -0.6406 0.2812 -0.6562 L0.2812 -0.6562 L0.2812 -0.6562 Q0.2812 -0.6562 0.2656 -0.6562 Q0.25 -0.6562 0.2344 -0.6562 Q0.2031 -0.6562 0.2031 -0.6562 Q0.2031 -0.6875 0.2188 -0.6875 L0.2188 -0.6875 L0.2188 -0.6875 L0.2344 -0.6875 L0.5625 -0.6875 Q0.6875 -0.6875 0.7344 -0.6094 Q0.75 -0.5781 0.75 -0.5469 Q0.75 -0.4688 0.6719 -0.4062 Q0.6719 -0.4062 0.6562 -0.4062 Q0.6094 -0.375 0.5469 -0.3594 Q0.6562 -0.3438 0.6875 -0.2812 Q0.7031 -0.25 0.7031 -0.2188 Q0.7031 -0.1406 0.625 -0.0781 L0.625 -0.0781 Q0.5469 0 0.4219 0 L0.0625 0 Q0.0469 0 0.0469 -0.0156 Q0.0469 -0.0312 0.0625 -0.0312 L0.0625 -0.0312 Q0.1406 -0.0312 0.1406 -0.0469 Q0.1562 -0.0469 0.1562 -0.0781 Q0.1562 -0.0781 0.1562 -0.0781 ZM0.3125 -0.3594 L0.4531 -0.3594 Q0.5625 -0.3594 0.625 -0.4375 Q0.6719 -0.4844 0.6719 -0.5469 Q0.6719 -0.625 0.6094 -0.6406 Q0.5781 -0.6562 0.5625 -0.6562 L0.4219 -0.6562 Q0.3906 -0.6562 0.3906 -0.6406 L0.3906 -0.6406 L0.3906 -0.6406 L0.375 -0.6406 L0.375 -0.6406 Q0.375 -0.6406 0.375 -0.6094 L0.3125 -0.3594 ZM0.2656 -0.0312 L0.4062 -0.0312 Q0.5 -0.0312 0.5625 -0.1094 Q0.6094 -0.1562 0.6094 -0.2344 Q0.6094 -0.2969 0.5625 -0.3281 Q0.5312 -0.3438 0.5 -0.3438 L0.3125 -0.3438 L0.2344 -0.0625 Q0.2344 -0.0469 0.2344 -0.0469 Q0.2344 -0.0312 0.2344 -0.0312 L0.2344 -0.0312 L0.2344 -0.0312 L0.25 -0.0312 Q0.25 -0.0312 0.2656 -0.0312 Z"
    /></g
    ><g transform="matrix(20,0,0,20,0,0) translate(0.9585,1.0333) scale(0.7,0.7)" style="font-size:1; text-rendering:geometricPrecision; color-rendering:optimizeQuality; image-rendering:optimizeQuality; font-family:&apos;jlm_cmr10&apos;; color-interpolation:linearRGB;"
    ><path style="stroke:none;" d="M0.4688 -0.6094 L0.3438 -0.4219 Q0.2969 -0.3594 0.2812 -0.25 Q0.2656 -0.1719 0.2656 -0.0781 L0.2656 -0.0312 Q0.2656 0.0156 0.2188 0.0156 Q0.1719 0.0156 0.1719 -0.0312 Q0.1719 -0.2031 0.2656 -0.375 L0.2969 -0.4062 L0.4062 -0.5625 L0.2031 -0.5625 Q0.1094 -0.5625 0.1094 -0.5625 Q0.0938 -0.5469 0.0781 -0.4688 L0.0625 -0.4688 L0.0938 -0.6719 L0.1094 -0.6719 Q0.125 -0.6562 0.125 -0.6562 L0.1406 -0.6562 L0.1406 -0.6562 Q0.1562 -0.6406 0.2344 -0.6406 L0.4844 -0.6406 Q0.4844 -0.625 0.4688 -0.6094 Z"
    /></g
  ></g
></svg
>
<!--MD5=[a0bade23152799fdfb83a32a25d0dced]
entity b8--><rect fill="#fa7373" filter="url(#f1pfa1pux4efgx)" height="45" style="stroke: #000000; stroke-width: 1.5;" width="51" x="687.5" y="169"/><svg x="697.5" y="179"><!--Generated by the Batik Graphics2D SVG Generator--><defs id="genericDefs"
  /><g
  ><g transform="scale(20,20) translate(0.2,0.8833)" style="font-size:1; text-rendering:geometricPrecision; color-rendering:optimizeQuality; image-rendering:optimizeQuality; font-family:&apos;jlm_cmmi10&apos;; color-interpolation:linearRGB;"
    ><path style="stroke:none;" d="M0.1562 -0.0781 L0.2969 -0.6094 Q0.2969 -0.625 0.2969 -0.6406 Q0.2969 -0.6406 0.2812 -0.6562 L0.2812 -0.6562 L0.2812 -0.6562 Q0.2812 -0.6562 0.2656 -0.6562 Q0.25 -0.6562 0.2344 -0.6562 Q0.2031 -0.6562 0.2031 -0.6562 Q0.2031 -0.6875 0.2188 -0.6875 L0.2188 -0.6875 L0.2188 -0.6875 L0.2344 -0.6875 L0.5625 -0.6875 Q0.6875 -0.6875 0.7344 -0.6094 Q0.75 -0.5781 0.75 -0.5469 Q0.75 -0.4688 0.6719 -0.4062 Q0.6719 -0.4062 0.6562 -0.4062 Q0.6094 -0.375 0.5469 -0.3594 Q0.6562 -0.3438 0.6875 -0.2812 Q0.7031 -0.25 0.7031 -0.2188 Q0.7031 -0.1406 0.625 -0.0781 L0.625 -0.0781 Q0.5469 0 0.4219 0 L0.0625 0 Q0.0469 0 0.0469 -0.0156 Q0.0469 -0.0312 0.0625 -0.0312 L0.0625 -0.0312 Q0.1406 -0.0312 0.1406 -0.0469 Q0.1562 -0.0469 0.1562 -0.0781 Q0.1562 -0.0781 0.1562 -0.0781 ZM0.3125 -0.3594 L0.4531 -0.3594 Q0.5625 -0.3594 0.625 -0.4375 Q0.6719 -0.4844 0.6719 -0.5469 Q0.6719 -0.625 0.6094 -0.6406 Q0.5781 -0.6562 0.5625 -0.6562 L0.4219 -0.6562 Q0.3906 -0.6562 0.3906 -0.6406 L0.3906 -0.6406 L0.3906 -0.6406 L0.375 -0.6406 L0.375 -0.6406 Q0.375 -0.6406 0.375 -0.6094 L0.3125 -0.3594 ZM0.2656 -0.0312 L0.4062 -0.0312 Q0.5 -0.0312 0.5625 -0.1094 Q0.6094 -0.1562 0.6094 -0.2344 Q0.6094 -0.2969 0.5625 -0.3281 Q0.5312 -0.3438 0.5 -0.3438 L0.3125 -0.3438 L0.2344 -0.0625 Q0.2344 -0.0469 0.2344 -0.0469 Q0.2344 -0.0312 0.2344 -0.0312 L0.2344 -0.0312 L0.2344 -0.0312 L0.25 -0.0312 Q0.25 -0.0312 0.2656 -0.0312 Z"
    /></g
    ><g transform="matrix(20,0,0,20,0,0) translate(0.9585,1.0333) scale(0.7,0.7)" style="font-size:1; text-rendering:geometricPrecision; color-rendering:optimizeQuality; image-rendering:optimizeQuality; font-family:&apos;jlm_cmr10&apos;; color-interpolation:linearRGB;"
    ><path style="stroke:none;" d="M0.1562 -0.4531 L0.2812 -0.375 Q0.3906 -0.4375 0.3906 -0.5156 Q0.3906 -0.5781 0.3281 -0.625 Q0.2969 -0.6406 0.25 -0.6406 Q0.1719 -0.6406 0.1406 -0.5938 L0.1406 -0.5938 L0.1406 -0.5938 Q0.1094 -0.5625 0.1094 -0.5312 Q0.1094 -0.4844 0.1562 -0.4531 ZM0.3125 -0.3594 L0.3125 -0.3594 Q0.3906 -0.3125 0.4062 -0.2969 Q0.4062 -0.2969 0.4062 -0.2969 Q0.4531 -0.2344 0.4531 -0.1719 Q0.4531 -0.0781 0.3906 -0.0156 Q0.3281 0.0156 0.25 0.0156 Q0.1562 0.0156 0.0938 -0.0312 Q0.0469 -0.0781 0.0469 -0.1562 Q0.0469 -0.2656 0.1875 -0.3281 Q0.125 -0.375 0.1094 -0.3906 Q0.0625 -0.4375 0.0625 -0.5 Q0.0625 -0.5781 0.1406 -0.625 Q0.1875 -0.6719 0.25 -0.6719 Q0.3438 -0.6719 0.3906 -0.6094 Q0.4375 -0.5781 0.4375 -0.5156 Q0.4375 -0.4219 0.3125 -0.3594 ZM0.2031 -0.3125 L0.2031 -0.3125 Q0.0938 -0.25 0.0938 -0.1562 Q0.0938 -0.0781 0.1562 -0.0312 Q0.2031 0 0.25 0 Q0.3281 0 0.375 -0.0625 Q0.4062 -0.0938 0.4062 -0.125 Q0.4062 -0.1875 0.3438 -0.2344 Q0.3438 -0.2344 0.3281 -0.2344 L0.2031 -0.3125 Z"
    /></g
  ></g
></svg
>
<!--MD5=[1f8caf223df8564b5628bfb421b70b72]
link a0 to a4--><path d="M45.6324,63.854 C55.8933,52.568 69.8723,40.061 85.5,34 C177.904,-1.839 215.65,-0.669 308.5,34 C322.888,39.372 336.121,49.88 346.519,60.092 " fill="none" id="a0-&gt;a4" style="stroke: #A80036; stroke-width: 1.0;"/><polygon fill="#A80036" points="350.218,63.831,346.7308,54.6202,346.7011,60.2769,341.0443,60.2472,350.218,63.831" style="stroke: #A80036; stroke-width: 1.0;"/><!--MD5=[86de563402725ba6804a36db772d9c7c]
reverse link a4 to a8--><path d="M391.481,60.092 C401.879,49.88 415.112,39.372 429.5,34 C522.35,-0.669 560.096,-1.839 652.5,34 C668.128,40.061 682.107,52.568 692.368,63.854 " fill="none" id="a4&lt;-a8" style="stroke: #A80036; stroke-width: 1.0;"/><polygon fill="#A80036" points="387.782,63.831,396.9557,60.2472,391.2989,60.2769,391.2692,54.6202,387.782,63.831" style="stroke: #A80036; stroke-width: 1.0;"/><!--MD5=[a45cce5dd9aad36c536bf449c6707fb4]
link a0 to a2--><path d="M45.6324,63.854 C55.8933,52.568 69.8723,40.061 85.5,34 C106.633,25.804 115.265,26.071 136.5,34 C150.888,39.372 164.121,49.88 174.519,60.092 " fill="none" id="a0-&gt;a2" style="stroke: #A80036; stroke-width: 1.0;"/><polygon fill="#A80036" points="178.218,63.831,174.7308,54.6202,174.7011,60.2769,169.0443,60.2472,178.218,63.831" style="stroke: #A80036; stroke-width: 1.0;"/><!--MD5=[6cd7656f2565fb9c6db7fc3b9496e0aa]
reverse link a2 to a4--><path d="M219.481,60.092 C229.879,49.88 243.112,39.372 257.5,34 C278.735,26.071 287.265,26.071 308.5,34 C324.655,40.032 339.354,52.538 350.218,63.831 " fill="none" id="a2&lt;-a4" style="stroke: #A80036; stroke-width: 1.0;"/><polygon fill="#A80036" points="215.782,63.831,224.9557,60.2472,219.2989,60.2769,219.2692,54.6202,215.782,63.831" style="stroke: #A80036; stroke-width: 1.0;"/><!--MD5=[a3d1cfe02506ef26eb5c6adca7549952]
link a0 to a1--><path d="M50.0469,86.5 C60.0495,86.5 70.0521,86.5 80.0547,86.5 " fill="none" id="a0-&gt;a1" style="stroke: #A80036; stroke-width: 1.0;"/><polygon fill="#A80036" points="85.2854,86.5,76.2854,82.5,80.2854,86.5,76.2854,90.5,85.2854,86.5" style="stroke: #A80036; stroke-width: 1.0;"/><!--MD5=[06e455bb8bb3f6259f43ee21ae29a70d]
reverse link a1 to a2--><path d="M141.72,86.5 C151.644,86.5 161.567,86.5 171.49,86.5 " fill="none" id="a1&lt;-a2" style="stroke: #A80036; stroke-width: 1.0;"/><polygon fill="#A80036" points="136.531,86.5,145.531,90.5,141.531,86.5,145.531,82.5,136.531,86.5" style="stroke: #A80036; stroke-width: 1.0;"/><!--MD5=[48e6a9b3d85fe7ba8ffa393deadabe09]
link a2 to a3--><path d="M222.531,86.5 C232.454,86.5 242.377,86.5 252.301,86.5 " fill="none" id="a2-&gt;a3" style="stroke: #A80036; stroke-width: 1.0;"/><polygon fill="#A80036" points="257.49,86.5,248.49,82.5,252.49,86.5,248.49,90.5,257.49,86.5" style="stroke: #A80036; stroke-width: 1.0;"/><!--MD5=[1a265408be242f237a4e615f3b63dc41]
reverse link a3 to a4--><path d="M313.72,86.5 C323.644,86.5 333.567,86.5 343.49,86.5 " fill="none" id="a3&lt;-a4" style="stroke: #A80036; stroke-width: 1.0;"/><polygon fill="#A80036" points="308.531,86.5,317.531,90.5,313.531,86.5,317.531,82.5,308.531,86.5" style="stroke: #A80036; stroke-width: 1.0;"/><!--MD5=[f92455d2e48a25dd77a2613d48886926]
link a4 to a6--><path d="M387.782,63.831 C398.646,52.538 413.345,40.032 429.5,34 C450.735,26.071 459.265,26.071 480.5,34 C494.888,39.372 508.121,49.88 518.519,60.092 " fill="none" id="a4-&gt;a6" style="stroke: #A80036; stroke-width: 1.0;"/><polygon fill="#A80036" points="522.218,63.831,518.7308,54.6202,518.7011,60.2769,513.0443,60.2472,522.218,63.831" style="stroke: #A80036; stroke-width: 1.0;"/><!--MD5=[7eefbe0ce8e87547af8b1433fcea7611]
reverse link a6 to a8--><path d="M563.481,60.092 C573.879,49.88 587.112,39.372 601.5,34 C622.735,26.071 631.367,25.804 652.5,34 C668.128,40.061 682.107,52.568 692.368,63.854 " fill="none" id="a6&lt;-a8" style="stroke: #A80036; stroke-width: 1.0;"/><polygon fill="#A80036" points="559.782,63.831,568.9557,60.2472,563.2989,60.2769,563.2692,54.6202,559.782,63.831" style="stroke: #A80036; stroke-width: 1.0;"/><!--MD5=[e045084714e933b1d3e9d324f0aa40bd]
link a4 to a5--><path d="M394.531,86.5 C404.454,86.5 414.377,86.5 424.301,86.5 " fill="none" id="a4-&gt;a5" style="stroke: #A80036; stroke-width: 1.0;"/><polygon fill="#A80036" points="429.49,86.5,420.49,82.5,424.49,86.5,420.49,90.5,429.49,86.5" style="stroke: #A80036; stroke-width: 1.0;"/><!--MD5=[65d50afeb1fd1e1ef914adc495fbedaa]
reverse link a5 to a6--><path d="M485.72,86.5 C495.644,86.5 505.567,86.5 515.49,86.5 " fill="none" id="a5&lt;-a6" style="stroke: #A80036; stroke-width: 1.0;"/><polygon fill="#A80036" points="480.531,86.5,489.531,90.5,485.531,86.5,489.531,82.5,480.531,86.5" style="stroke: #A80036; stroke-width: 1.0;"/><!--MD5=[75e86cbb79074d8f46f91f14867f5af3]
link a6 to a7--><path d="M566.531,86.5 C576.454,86.5 586.377,86.5 596.301,86.5 " fill="none" id="a6-&gt;a7" style="stroke: #A80036; stroke-width: 1.0;"/><polygon fill="#A80036" points="601.49,86.5,592.49,82.5,596.49,86.5,592.49,90.5,601.49,86.5" style="stroke: #A80036; stroke-width: 1.0;"/><!--MD5=[7d74ee514778bcd99486753e748fc010]
reverse link a7 to a8--><path d="M657.804,86.5 C667.731,86.5 677.657,86.5 687.583,86.5 " fill="none" id="a7&lt;-a8" style="stroke: #A80036; stroke-width: 1.0;"/><polygon fill="#A80036" points="652.613,86.5,661.613,90.5,657.613,86.5,661.613,82.5,652.613,86.5" style="stroke: #A80036; stroke-width: 1.0;"/><!--MD5=[189b433cacfdb1012e1743a4af7e7358]
link a1 to b1--><path d="M111,109.344 C111,125.1844 111,146.7037 111,163.603 " fill="none" id="a1-&gt;b1" style="stroke: #A80036; stroke-width: 1.0;"/><polygon fill="#A80036" points="111,168.6878,115,159.6878,111,163.6878,107,159.6878,111,168.6878" style="stroke: #A80036; stroke-width: 1.0;"/><!--MD5=[88910945547547a3781b3eb28d250145]
link a2 to b2--><path d="M197,109.344 C197,125.1844 197,146.7037 197,163.603 " fill="none" id="a2-&gt;b2" style="stroke: #A80036; stroke-width: 1.0;"/><polygon fill="#A80036" points="197,168.6878,201,159.6878,197,163.6878,193,159.6878,197,168.6878" style="stroke: #A80036; stroke-width: 1.0;"/><!--MD5=[1f7327c64e700625ddde0df50b0f6e78]
link a3 to b3--><path d="M283,109.344 C283,125.1844 283,146.7037 283,163.603 " fill="none" id="a3-&gt;b3" style="stroke: #A80036; stroke-width: 1.0;"/><polygon fill="#A80036" points="283,168.6878,287,159.6878,283,163.6878,279,159.6878,283,168.6878" style="stroke: #A80036; stroke-width: 1.0;"/><!--MD5=[c1d22ec3ef14585aa584a84fa9c05922]
link a4 to b4--><path d="M369,109.344 C369,125.1844 369,146.7037 369,163.603 " fill="none" id="a4-&gt;b4" style="stroke: #A80036; stroke-width: 1.0;"/><polygon fill="#A80036" points="369,168.6878,373,159.6878,369,163.6878,365,159.6878,369,168.6878" style="stroke: #A80036; stroke-width: 1.0;"/><!--MD5=[019b6b3aff972d1fefa2270b90c7053d]
link a5 to b5--><path d="M455,109.344 C455,125.1844 455,146.7037 455,163.603 " fill="none" id="a5-&gt;b5" style="stroke: #A80036; stroke-width: 1.0;"/><polygon fill="#A80036" points="455,168.6878,459,159.6878,455,163.6878,451,159.6878,455,168.6878" style="stroke: #A80036; stroke-width: 1.0;"/><!--MD5=[3a7751982f5005005b872d801faa9b0f]
link a6 to b6--><path d="M541,109.344 C541,125.1844 541,146.7037 541,163.603 " fill="none" id="a6-&gt;b6" style="stroke: #A80036; stroke-width: 1.0;"/><polygon fill="#A80036" points="541,168.6878,545,159.6878,541,163.6878,537,159.6878,541,168.6878" style="stroke: #A80036; stroke-width: 1.0;"/><!--MD5=[083d6039d6cdfeb99eceaa46bf115bd7]
link a7 to b7--><path d="M627,109.344 C627,125.1844 627,146.7037 627,163.603 " fill="none" id="a7-&gt;b7" style="stroke: #A80036; stroke-width: 1.0;"/><polygon fill="#A80036" points="627,168.6878,631,159.6878,627,163.6878,623,159.6878,627,168.6878" style="stroke: #A80036; stroke-width: 1.0;"/><!--MD5=[dacdc8077c693e75db44f8073332b5f0]
link a8 to b8--><path d="M710.636,109.344 C711.098,125.1844 711.724,146.7037 712.217,163.603 " fill="none" id="a8-&gt;b8" style="stroke: #A80036; stroke-width: 1.0;"/><polygon fill="#A80036" points="712.365,168.6878,716.1012,159.5751,712.2194,163.6899,708.1046,159.8081,712.365,168.6878" style="stroke: #A80036; stroke-width: 1.0;"/><!--MD5=[6762754ac25db1de101d8ca99127e6b8]
link b0 to b4--><path d="M45.6324,168.8544 C55.8933,157.5681 69.8723,145.0612 85.5,139 C177.904,103.161 215.65,104.331 308.5,139 C322.888,144.3724 336.121,154.8799 346.519,165.0922 " fill="none" id="b0-&gt;b4" style="stroke: #A80036; stroke-width: 1.0;"/><polygon fill="#A80036" points="350.218,168.8312,346.7315,159.6201,346.7014,165.2769,341.0446,165.2467,350.218,168.8312" style="stroke: #A80036; stroke-width: 1.0;"/><!--MD5=[c3f480f0d3cd0eb7f7f52b00a66d39f3]
reverse link b4 to b8--><path d="M391.481,165.0922 C401.879,154.8799 415.112,144.3724 429.5,139 C522.35,104.331 559.65,104.331 652.5,139 C668.655,145.0321 683.354,157.5381 694.218,168.8312 " fill="none" id="b4&lt;-b8" style="stroke: #A80036; stroke-width: 1.0;"/><polygon fill="#A80036" points="387.782,168.8312,396.9554,165.2467,391.2986,165.2769,391.2685,159.6201,387.782,168.8312" style="stroke: #A80036; stroke-width: 1.0;"/><!--MD5=[3f81f5146dfb3baba599cbae6528a853]
link b0 to b2--><path d="M45.6324,168.8544 C55.8933,157.5681 69.8723,145.0612 85.5,139 C106.633,130.8036 115.265,131.0712 136.5,139 C150.888,144.3724 164.121,154.8799 174.519,165.0922 " fill="none" id="b0-&gt;b2" style="stroke: #A80036; stroke-width: 1.0;"/><polygon fill="#A80036" points="178.218,168.8312,174.7315,159.6201,174.7014,165.2769,169.0446,165.2467,178.218,168.8312" style="stroke: #A80036; stroke-width: 1.0;"/><!--MD5=[40f2003dbd9f8a0737c0715c79f4e07d]
reverse link b2 to b4--><path d="M219.481,165.0922 C229.879,154.8799 243.112,144.3724 257.5,139 C278.735,131.0712 287.265,131.0712 308.5,139 C324.655,145.0321 339.354,157.5381 350.218,168.8312 " fill="none" id="b2&lt;-b4" style="stroke: #A80036; stroke-width: 1.0;"/><polygon fill="#A80036" points="215.782,168.8312,224.9554,165.2467,219.2986,165.2769,219.2685,159.6201,215.782,168.8312" style="stroke: #A80036; stroke-width: 1.0;"/><!--MD5=[e80bbe958836a2fc4f12f5762f23ca31]
link b0 to b1--><path d="M50.0469,191.5 C60.0495,191.5 70.0521,191.5 80.0547,191.5 " fill="none" id="b0-&gt;b1" style="stroke: #A80036; stroke-width: 1.0;"/><polygon fill="#A80036" points="85.2854,191.5,76.2854,187.5,80.2854,191.5,76.2854,195.5,85.2854,191.5" style="stroke: #A80036; stroke-width: 1.0;"/><!--MD5=[cf9fce994dd2ee16063608429d674bd4]
reverse link b1 to b2--><path d="M141.72,191.5 C151.644,191.5 161.567,191.5 171.49,191.5 " fill="none" id="b1&lt;-b2" style="stroke: #A80036; stroke-width: 1.0;"/><polygon fill="#A80036" points="136.531,191.5,145.531,195.5,141.531,191.5,145.531,187.5,136.531,191.5" style="stroke: #A80036; stroke-width: 1.0;"/><!--MD5=[dd7bb088cf108c78ec097dfd9fc00472]
link b2 to b3--><path d="M222.531,191.5 C232.454,191.5 242.377,191.5 252.301,191.5 " fill="none" id="b2-&gt;b3" style="stroke: #A80036; stroke-width: 1.0;"/><polygon fill="#A80036" points="257.49,191.5,248.49,187.5,252.49,191.5,248.49,195.5,257.49,191.5" style="stroke: #A80036; stroke-width: 1.0;"/><!--MD5=[2b4484969166ccd27b7f1ab46b675174]
reverse link b3 to b4--><path d="M313.72,191.5 C323.644,191.5 333.567,191.5 343.49,191.5 " fill="none" id="b3&lt;-b4" style="stroke: #A80036; stroke-width: 1.0;"/><polygon fill="#A80036" points="308.531,191.5,317.531,195.5,313.531,191.5,317.531,187.5,308.531,191.5" style="stroke: #A80036; stroke-width: 1.0;"/><!--MD5=[c5cc7eddb70363946a22c41e3966dee0]
link b4 to b6--><path d="M387.782,168.8312 C398.646,157.5381 413.345,145.0321 429.5,139 C450.735,131.0712 459.265,131.0712 480.5,139 C494.888,144.3724 508.121,154.8799 518.519,165.0922 " fill="none" id="b4-&gt;b6" style="stroke: #A80036; stroke-width: 1.0;"/><polygon fill="#A80036" points="522.218,168.8312,518.7315,159.6201,518.7014,165.2769,513.0446,165.2467,522.218,168.8312" style="stroke: #A80036; stroke-width: 1.0;"/><!--MD5=[dc1b4be9064e893411e8a2b25e04c91c]
reverse link b6 to b8--><path d="M563.481,165.0922 C573.879,154.8799 587.112,144.3724 601.5,139 C622.735,131.0712 631.265,131.0712 652.5,139 C668.655,145.0321 683.354,157.5381 694.218,168.8312 " fill="none" id="b6&lt;-b8" style="stroke: #A80036; stroke-width: 1.0;"/><polygon fill="#A80036" points="559.782,168.8312,568.9554,165.2467,563.2986,165.2769,563.2685,159.6201,559.782,168.8312" style="stroke: #A80036; stroke-width: 1.0;"/><!--MD5=[77b3608f0cf365f20363d64a54ef6dca]
link b4 to b5--><path d="M394.531,191.5 C404.454,191.5 414.377,191.5 424.301,191.5 " fill="none" id="b4-&gt;b5" style="stroke: #A80036; stroke-width: 1.0;"/><polygon fill="#A80036" points="429.49,191.5,420.49,187.5,424.49,191.5,420.49,195.5,429.49,191.5" style="stroke: #A80036; stroke-width: 1.0;"/><!--MD5=[56603882ac8174e5e4e6111b4386a827]
reverse link b5 to b6--><path d="M485.72,191.5 C495.644,191.5 505.567,191.5 515.49,191.5 " fill="none" id="b5&lt;-b6" style="stroke: #A80036; stroke-width: 1.0;"/><polygon fill="#A80036" points="480.531,191.5,489.531,195.5,485.531,191.5,489.531,187.5,480.531,191.5" style="stroke: #A80036; stroke-width: 1.0;"/><!--MD5=[7774d65093cf5781ac5d95a354424bd8]
link b6 to b7--><path d="M566.531,191.5 C576.454,191.5 586.377,191.5 596.301,191.5 " fill="none" id="b6-&gt;b7" style="stroke: #A80036; stroke-width: 1.0;"/><polygon fill="#A80036" points="601.49,191.5,592.49,187.5,596.49,191.5,592.49,195.5,601.49,191.5" style="stroke: #A80036; stroke-width: 1.0;"/><!--MD5=[f36f871530a6fe62df5b3a27e9bdab17]
reverse link b7 to b8--><path d="M657.72,191.5 C667.644,191.5 677.567,191.5 687.49,191.5 " fill="none" id="b7&lt;-b8" style="stroke: #A80036; stroke-width: 1.0;"/><polygon fill="#A80036" points="652.531,191.5,661.531,195.5,657.531,191.5,661.531,187.5,652.531,191.5" style="stroke: #A80036; stroke-width: 1.0;"/><!--MD5=[9b2e2a7712bd1fff21c25840f35df297]
@startuml
rectangle "<math>I_0</math>" as a0
rectangle "<math>B_1</math>" as a1 
rectangle "<math>B_2</math>" as a2
rectangle "<math>B_3</math>" as a3 
rectangle "<math>B_4</math>" as a4

rectangle "<math>B_5</math>" as a5
rectangle "<math>B_6</math>" as a6
rectangle "<math>B_7</math>" as a7
rectangle "<math>I_1</math>" as a8

a0 -right-> a4
a4 <-right- a8

a0 -right-> a2
a2 <-right- a4

a0 -right-> a1
a1 <-right- a2

a2 -right-> a3
a3 <-right- a4

a4 -right-> a6
a6 <-right- a8

a4 -right-> a5
a5 <-right- a6

a6 -right-> a7
a7 <-right- a8

rectangle "<math>I_0</math>" as b0
rectangle "<math>B_1</math>" as b1 
rectangle "<math>B_2</math>" as b2
rectangle "<math>B_3</math>" as b3 
rectangle "<math>B_4</math>" as b4

rectangle "<math>B_5</math>" as b5
rectangle "<math>B_6</math>" as b6
rectangle "<math>B_7</math>" as b7
rectangle "<math>B_8</math>" as b8



a1 -down-> b1
a2 -down-> b2
a3 -down-> b3
a4 -down-> b4
a5 -down-> b5
a6 -down-> b6
a7 -down-> b7
a8 -down-> b8

b0 -right-> b4
b4 <-right- b8

b0 -right-> b2
b2 <-right- b4

b0 -right-> b1
b1 <-right- b2

b2 -right-> b3
b3 <-right- b4

b4 -right-> b6
b6 <-right- b8

b4 -right-> b5
b5 <-right- b6

b6 -right-> b7
b7 <-right- b8
@enduml

PlantUML version 1.2019.12beta6(Unknown compile time)
(GPL source distribution)
Java Runtime: Java(TM) SE Runtime Environment
JVM: Java HotSpot(TM) 64-Bit Server VM
Java Version: 1.7.0_25-b15
Operating System: Linux
Default Encoding: UTF-8
Language: en
Country: US
--></g></svg>
