<?xml version="1.0" encoding="UTF-8" standalone="no"?><svg xmlns="http://www.w3.org/2000/svg" xmlns:xlink="http://www.w3.org/1999/xlink" contentScriptType="application/ecmascript" contentStyleType="text/css" height="120px" preserveAspectRatio="none" style="width:743px;height:120px;" version="1.1" viewBox="0 0 743 120" width="743px" zoomAndPan="magnify"><defs><filter height="300%" id="f193chh632ljaj" width="300%" x="-1" y="-1"><feGaussianBlur result="blurOut" stdDeviation="2.0"/><feColorMatrix in="blurOut" result="blurOut2" type="matrix" values="0 0 0 0 0 0 0 0 0 0 0 0 0 0 0 0 0 0 .4 0"/><feOffset dx="4.0" dy="4.0" in="blurOut2" result="blurOut3"/><feBlend in="SourceGraphic" in2="blurOut3" mode="normal"/></filter></defs><g><!--MD5=[6b0e729622303f4def5f3eba755f4c5f]
entity b0--><rect fill="#fa7373" filter="url(#f193chh632ljaj)" height="45" style="stroke: #000000; stroke-width: 1.5;" width="44" x="6" y="64"/><svg x="16" y="74"><!--Generated by the Batik Graphics2D SVG Generator--><defs id="genericDefs"
  /><g
  ><g transform="scale(20,20) translate(0.2,0.8833)" style="font-size:1; text-rendering:geometricPrecision; color-rendering:optimizeQuality; image-rendering:optimizeQuality; font-family:&apos;jlm_cmmi10&apos;; color-interpolation:linearRGB;"
    ><path style="stroke:none;" d="M0.375 -0.6094 L0.2344 -0.0781 Q0.2344 -0.0625 0.2344 -0.0469 Q0.2344 -0.0312 0.25 -0.0312 L0.25 -0.0312 L0.25 -0.0312 Q0.25 -0.0312 0.2656 -0.0312 Q0.2812 -0.0312 0.2969 -0.0312 Q0.3281 -0.0312 0.3281 -0.0312 Q0.3281 -0.0156 0.3281 -0.0156 Q0.3281 0 0.3125 0 L0.1875 0 L0.1875 0 L0.0469 0 L0.0469 0 Q0.0312 0 0.0312 -0.0156 Q0.0312 -0.0312 0.0469 -0.0312 Q0.0469 -0.0312 0.0625 -0.0312 Q0.1406 -0.0312 0.1406 -0.0469 Q0.1562 -0.0625 0.1562 -0.0781 L0.2969 -0.6094 Q0.2969 -0.625 0.2969 -0.6406 Q0.2969 -0.6562 0.25 -0.6562 L0.25 -0.6562 L0.2188 -0.6562 Q0.2031 -0.6562 0.2031 -0.6562 Q0.2031 -0.6875 0.2188 -0.6875 L0.3438 -0.6875 L0.3438 -0.6875 L0.4844 -0.6875 L0.4844 -0.6875 Q0.5 -0.6875 0.5 -0.6719 Q0.5 -0.6562 0.4844 -0.6562 Q0.4844 -0.6562 0.4688 -0.6562 Q0.3906 -0.6562 0.3906 -0.6406 Q0.375 -0.625 0.375 -0.6094 Z"
    /></g
    ><g transform="matrix(20,0,0,20,0,0) translate(0.6396,1.0333) scale(0.7,0.7)" style="font-size:1; text-rendering:geometricPrecision; color-rendering:optimizeQuality; image-rendering:optimizeQuality; font-family:&apos;jlm_cmr10&apos;; color-interpolation:linearRGB;"
    ><path style="stroke:none;" d="M0.4531 -0.3125 Q0.4531 -0.1719 0.4219 -0.0938 Q0.3594 0.0156 0.25 0.0156 Q0.1562 0.0156 0.1094 -0.0469 Q0.0938 -0.0625 0.0781 -0.0781 Q0.0312 -0.1562 0.0312 -0.3125 Q0.0312 -0.4688 0.0781 -0.5469 Q0.125 -0.6562 0.2344 -0.6719 L0.25 -0.6719 Q0.3438 -0.6719 0.3906 -0.5938 L0.3906 -0.5938 Q0.4062 -0.5781 0.4219 -0.5469 Q0.4531 -0.4688 0.4531 -0.3125 ZM0.25 0 L0.25 0 Q0.3125 0 0.3438 -0.0625 Q0.3594 -0.0938 0.3594 -0.125 Q0.375 -0.1875 0.375 -0.3281 Q0.375 -0.4688 0.3594 -0.5312 Q0.3438 -0.625 0.2812 -0.6406 Q0.2656 -0.6406 0.25 -0.6406 Q0.1719 -0.6406 0.1406 -0.5781 Q0.1406 -0.5469 0.125 -0.5156 Q0.125 -0.4688 0.125 -0.3281 Q0.125 -0.1875 0.1406 -0.125 Q0.1562 -0.0312 0.2188 0 Q0.2344 0 0.25 0 Z"
    /></g
  ></g
></svg
>
<!--MD5=[55492eb1c4b62cc9e892e1fafdaeb44c]
entity b1--><rect fill="#d6f089" filter="url(#f193chh632ljaj)" height="45" style="stroke: #000000; stroke-width: 1.5;" width="51" x="85.5" y="64"/><svg x="95.5" y="74"><!--Generated by the Batik Graphics2D SVG Generator--><defs id="genericDefs"
  /><g
  ><g transform="scale(20,20) translate(0.2,0.8833)" style="font-size:1; text-rendering:geometricPrecision; color-rendering:optimizeQuality; image-rendering:optimizeQuality; font-family:&apos;jlm_cmmi10&apos;; color-interpolation:linearRGB;"
    ><path style="stroke:none;" d="M0.1562 -0.0781 L0.2969 -0.6094 Q0.2969 -0.625 0.2969 -0.6406 Q0.2969 -0.6406 0.2812 -0.6562 L0.2812 -0.6562 L0.2812 -0.6562 Q0.2812 -0.6562 0.2656 -0.6562 Q0.25 -0.6562 0.2344 -0.6562 Q0.2031 -0.6562 0.2031 -0.6562 Q0.2031 -0.6875 0.2188 -0.6875 L0.2188 -0.6875 L0.2188 -0.6875 L0.2344 -0.6875 L0.5625 -0.6875 Q0.6875 -0.6875 0.7344 -0.6094 Q0.75 -0.5781 0.75 -0.5469 Q0.75 -0.4688 0.6719 -0.4062 Q0.6719 -0.4062 0.6562 -0.4062 Q0.6094 -0.375 0.5469 -0.3594 Q0.6562 -0.3438 0.6875 -0.2812 Q0.7031 -0.25 0.7031 -0.2188 Q0.7031 -0.1406 0.625 -0.0781 L0.625 -0.0781 Q0.5469 0 0.4219 0 L0.0625 0 Q0.0469 0 0.0469 -0.0156 Q0.0469 -0.0312 0.0625 -0.0312 L0.0625 -0.0312 Q0.1406 -0.0312 0.1406 -0.0469 Q0.1562 -0.0469 0.1562 -0.0781 Q0.1562 -0.0781 0.1562 -0.0781 ZM0.3125 -0.3594 L0.4531 -0.3594 Q0.5625 -0.3594 0.625 -0.4375 Q0.6719 -0.4844 0.6719 -0.5469 Q0.6719 -0.625 0.6094 -0.6406 Q0.5781 -0.6562 0.5625 -0.6562 L0.4219 -0.6562 Q0.3906 -0.6562 0.3906 -0.6406 L0.3906 -0.6406 L0.3906 -0.6406 L0.375 -0.6406 L0.375 -0.6406 Q0.375 -0.6406 0.375 -0.6094 L0.3125 -0.3594 ZM0.2656 -0.0312 L0.4062 -0.0312 Q0.5 -0.0312 0.5625 -0.1094 Q0.6094 -0.1562 0.6094 -0.2344 Q0.6094 -0.2969 0.5625 -0.3281 Q0.5312 -0.3438 0.5 -0.3438 L0.3125 -0.3438 L0.2344 -0.0625 Q0.2344 -0.0469 0.2344 -0.0469 Q0.2344 -0.0312 0.2344 -0.0312 L0.2344 -0.0312 L0.2344 -0.0312 L0.25 -0.0312 Q0.25 -0.0312 0.2656 -0.0312 Z"
    /></g
    ><g transform="matrix(20,0,0,20,0,0) translate(0.9585,1.0333) scale(0.7,0.7)" style="font-size:1; text-rendering:geometricPrecision; color-rendering:optimizeQuality; image-rendering:optimizeQuality; font-family:&apos;jlm_cmr10&apos;; color-interpolation:linearRGB;"
    ><path style="stroke:none;" d="M0.4531 -0.3125 Q0.4531 -0.1719 0.4219 -0.0938 Q0.3594 0.0156 0.25 0.0156 Q0.1562 0.0156 0.1094 -0.0469 Q0.0938 -0.0625 0.0781 -0.0781 Q0.0312 -0.1562 0.0312 -0.3125 Q0.0312 -0.4688 0.0781 -0.5469 Q0.125 -0.6562 0.2344 -0.6719 L0.25 -0.6719 Q0.3438 -0.6719 0.3906 -0.5938 L0.3906 -0.5938 Q0.4062 -0.5781 0.4219 -0.5469 Q0.4531 -0.4688 0.4531 -0.3125 ZM0.25 0 L0.25 0 Q0.3125 0 0.3438 -0.0625 Q0.3594 -0.0938 0.3594 -0.125 Q0.375 -0.1875 0.375 -0.3281 Q0.375 -0.4688 0.3594 -0.5312 Q0.3438 -0.625 0.2812 -0.6406 Q0.2656 -0.6406 0.25 -0.6406 Q0.1719 -0.6406 0.1406 -0.5781 Q0.1406 -0.5469 0.125 -0.5156 Q0.125 -0.4688 0.125 -0.3281 Q0.125 -0.1875 0.1406 -0.125 Q0.1562 -0.0312 0.2188 0 Q0.2344 0 0.25 0 Z"
    /></g
  ></g
></svg
>
<!--MD5=[bb04a20f8ffc3fa40d9086bdeb8759dc]
entity b2--><rect fill="#edc679" filter="url(#f193chh632ljaj)" height="45" style="stroke: #000000; stroke-width: 1.5;" width="51" x="171.5" y="64"/><svg x="181.5" y="74"><!--Generated by the Batik Graphics2D SVG Generator--><defs id="genericDefs"
  /><g
  ><g transform="scale(20,20) translate(0.2,0.8833)" style="font-size:1; text-rendering:geometricPrecision; color-rendering:optimizeQuality; image-rendering:optimizeQuality; font-family:&apos;jlm_cmmi10&apos;; color-interpolation:linearRGB;"
    ><path style="stroke:none;" d="M0.1562 -0.0781 L0.2969 -0.6094 Q0.2969 -0.625 0.2969 -0.6406 Q0.2969 -0.6406 0.2812 -0.6562 L0.2812 -0.6562 L0.2812 -0.6562 Q0.2812 -0.6562 0.2656 -0.6562 Q0.25 -0.6562 0.2344 -0.6562 Q0.2031 -0.6562 0.2031 -0.6562 Q0.2031 -0.6875 0.2188 -0.6875 L0.2188 -0.6875 L0.2188 -0.6875 L0.2344 -0.6875 L0.5625 -0.6875 Q0.6875 -0.6875 0.7344 -0.6094 Q0.75 -0.5781 0.75 -0.5469 Q0.75 -0.4688 0.6719 -0.4062 Q0.6719 -0.4062 0.6562 -0.4062 Q0.6094 -0.375 0.5469 -0.3594 Q0.6562 -0.3438 0.6875 -0.2812 Q0.7031 -0.25 0.7031 -0.2188 Q0.7031 -0.1406 0.625 -0.0781 L0.625 -0.0781 Q0.5469 0 0.4219 0 L0.0625 0 Q0.0469 0 0.0469 -0.0156 Q0.0469 -0.0312 0.0625 -0.0312 L0.0625 -0.0312 Q0.1406 -0.0312 0.1406 -0.0469 Q0.1562 -0.0469 0.1562 -0.0781 Q0.1562 -0.0781 0.1562 -0.0781 ZM0.3125 -0.3594 L0.4531 -0.3594 Q0.5625 -0.3594 0.625 -0.4375 Q0.6719 -0.4844 0.6719 -0.5469 Q0.6719 -0.625 0.6094 -0.6406 Q0.5781 -0.6562 0.5625 -0.6562 L0.4219 -0.6562 Q0.3906 -0.6562 0.3906 -0.6406 L0.3906 -0.6406 L0.3906 -0.6406 L0.375 -0.6406 L0.375 -0.6406 Q0.375 -0.6406 0.375 -0.6094 L0.3125 -0.3594 ZM0.2656 -0.0312 L0.4062 -0.0312 Q0.5 -0.0312 0.5625 -0.1094 Q0.6094 -0.1562 0.6094 -0.2344 Q0.6094 -0.2969 0.5625 -0.3281 Q0.5312 -0.3438 0.5 -0.3438 L0.3125 -0.3438 L0.2344 -0.0625 Q0.2344 -0.0469 0.2344 -0.0469 Q0.2344 -0.0312 0.2344 -0.0312 L0.2344 -0.0312 L0.2344 -0.0312 L0.25 -0.0312 Q0.25 -0.0312 0.2656 -0.0312 Z"
    /></g
    ><g transform="matrix(20,0,0,20,0,0) translate(0.9585,1.0333) scale(0.7,0.7)" style="font-size:1; text-rendering:geometricPrecision; color-rendering:optimizeQuality; image-rendering:optimizeQuality; font-family:&apos;jlm_cmr10&apos;; color-interpolation:linearRGB;"
    ><path style="stroke:none;" d="M0.2969 -0.6406 L0.2969 -0.0781 Q0.2969 -0.0469 0.3125 -0.0469 Q0.3281 -0.0312 0.3906 -0.0312 L0.4219 -0.0312 L0.4219 0 Q0.3906 0 0.25 0 Q0.125 0 0.0938 0 L0.0938 -0.0312 L0.125 -0.0312 Q0.2031 -0.0312 0.2188 -0.0469 L0.2188 -0.0469 Q0.2188 -0.0625 0.2188 -0.0781 L0.2188 -0.5938 Q0.1719 -0.5781 0.0938 -0.5781 L0.0938 -0.6094 Q0.2031 -0.6094 0.2656 -0.6719 Q0.2969 -0.6719 0.2969 -0.6562 L0.2969 -0.6562 L0.2969 -0.6562 Q0.2969 -0.6562 0.2969 -0.6406 Z"
    /></g
  ></g
></svg
>
<!--MD5=[e9d95f20fc99ce2fb8b977df372e67de]
entity b3--><rect fill="#d6f089" filter="url(#f193chh632ljaj)" height="45" style="stroke: #000000; stroke-width: 1.5;" width="51" x="257.5" y="64"/><svg x="267.5" y="74"><!--Generated by the Batik Graphics2D SVG Generator--><defs id="genericDefs"
  /><g
  ><g transform="scale(20,20) translate(0.2,0.8833)" style="font-size:1; text-rendering:geometricPrecision; color-rendering:optimizeQuality; image-rendering:optimizeQuality; font-family:&apos;jlm_cmmi10&apos;; color-interpolation:linearRGB;"
    ><path style="stroke:none;" d="M0.1562 -0.0781 L0.2969 -0.6094 Q0.2969 -0.625 0.2969 -0.6406 Q0.2969 -0.6406 0.2812 -0.6562 L0.2812 -0.6562 L0.2812 -0.6562 Q0.2812 -0.6562 0.2656 -0.6562 Q0.25 -0.6562 0.2344 -0.6562 Q0.2031 -0.6562 0.2031 -0.6562 Q0.2031 -0.6875 0.2188 -0.6875 L0.2188 -0.6875 L0.2188 -0.6875 L0.2344 -0.6875 L0.5625 -0.6875 Q0.6875 -0.6875 0.7344 -0.6094 Q0.75 -0.5781 0.75 -0.5469 Q0.75 -0.4688 0.6719 -0.4062 Q0.6719 -0.4062 0.6562 -0.4062 Q0.6094 -0.375 0.5469 -0.3594 Q0.6562 -0.3438 0.6875 -0.2812 Q0.7031 -0.25 0.7031 -0.2188 Q0.7031 -0.1406 0.625 -0.0781 L0.625 -0.0781 Q0.5469 0 0.4219 0 L0.0625 0 Q0.0469 0 0.0469 -0.0156 Q0.0469 -0.0312 0.0625 -0.0312 L0.0625 -0.0312 Q0.1406 -0.0312 0.1406 -0.0469 Q0.1562 -0.0469 0.1562 -0.0781 Q0.1562 -0.0781 0.1562 -0.0781 ZM0.3125 -0.3594 L0.4531 -0.3594 Q0.5625 -0.3594 0.625 -0.4375 Q0.6719 -0.4844 0.6719 -0.5469 Q0.6719 -0.625 0.6094 -0.6406 Q0.5781 -0.6562 0.5625 -0.6562 L0.4219 -0.6562 Q0.3906 -0.6562 0.3906 -0.6406 L0.3906 -0.6406 L0.3906 -0.6406 L0.375 -0.6406 L0.375 -0.6406 Q0.375 -0.6406 0.375 -0.6094 L0.3125 -0.3594 ZM0.2656 -0.0312 L0.4062 -0.0312 Q0.5 -0.0312 0.5625 -0.1094 Q0.6094 -0.1562 0.6094 -0.2344 Q0.6094 -0.2969 0.5625 -0.3281 Q0.5312 -0.3438 0.5 -0.3438 L0.3125 -0.3438 L0.2344 -0.0625 Q0.2344 -0.0469 0.2344 -0.0469 Q0.2344 -0.0312 0.2344 -0.0312 L0.2344 -0.0312 L0.2344 -0.0312 L0.25 -0.0312 Q0.25 -0.0312 0.2656 -0.0312 Z"
    /></g
    ><g transform="matrix(20,0,0,20,0,0) translate(0.9585,1.0333) scale(0.7,0.7)" style="font-size:1; text-rendering:geometricPrecision; color-rendering:optimizeQuality; image-rendering:optimizeQuality; font-family:&apos;jlm_cmr10&apos;; color-interpolation:linearRGB;"
    ><path style="stroke:none;" d="M0.4531 -0.1719 L0.4531 -0.1719 L0.4219 0 L0.0469 0 Q0.0469 -0.0312 0.0625 -0.0312 L0.0625 -0.0312 L0.25 -0.25 Q0.3594 -0.375 0.3594 -0.4688 Q0.3594 -0.5625 0.2969 -0.6094 L0.2969 -0.6094 L0.2969 -0.6094 Q0.2656 -0.6406 0.2188 -0.6406 Q0.1562 -0.6406 0.1094 -0.5781 Q0.0938 -0.5625 0.0938 -0.5312 Q0.0938 -0.5312 0.1094 -0.5312 Q0.1406 -0.5312 0.1562 -0.5 L0.1562 -0.5 Q0.1562 -0.4844 0.1562 -0.4844 Q0.1562 -0.4375 0.1094 -0.4375 Q0.1094 -0.4219 0.1094 -0.4219 Q0.0625 -0.4219 0.0469 -0.4531 Q0.0469 -0.4688 0.0469 -0.4844 Q0.0469 -0.5625 0.1094 -0.6094 Q0.1562 -0.6719 0.2344 -0.6719 Q0.3438 -0.6719 0.4062 -0.5938 Q0.4375 -0.5469 0.4531 -0.4844 Q0.4531 -0.4844 0.4531 -0.4688 Q0.4531 -0.4062 0.3906 -0.3281 Q0.3594 -0.2969 0.2969 -0.25 L0.25 -0.1875 L0.2344 -0.1875 L0.125 -0.0781 L0.3125 -0.0781 Q0.3906 -0.0781 0.4062 -0.0781 Q0.4062 -0.0938 0.4219 -0.1719 L0.4531 -0.1719 Z"
    /></g
  ></g
></svg
>
<!--MD5=[1ce960fb38560755b862e8efbf4a4ac4]
entity b4--><rect fill="#ed905a" filter="url(#f193chh632ljaj)" height="45" style="stroke: #000000; stroke-width: 1.5;" width="51" x="343.5" y="64"/><svg x="353.5" y="74"><!--Generated by the Batik Graphics2D SVG Generator--><defs id="genericDefs"
  /><g
  ><g transform="scale(20,20) translate(0.2,0.8833)" style="font-size:1; text-rendering:geometricPrecision; color-rendering:optimizeQuality; image-rendering:optimizeQuality; font-family:&apos;jlm_cmmi10&apos;; color-interpolation:linearRGB;"
    ><path style="stroke:none;" d="M0.1562 -0.0781 L0.2969 -0.6094 Q0.2969 -0.625 0.2969 -0.6406 Q0.2969 -0.6406 0.2812 -0.6562 L0.2812 -0.6562 L0.2812 -0.6562 Q0.2812 -0.6562 0.2656 -0.6562 Q0.25 -0.6562 0.2344 -0.6562 Q0.2031 -0.6562 0.2031 -0.6562 Q0.2031 -0.6875 0.2188 -0.6875 L0.2188 -0.6875 L0.2188 -0.6875 L0.2344 -0.6875 L0.5625 -0.6875 Q0.6875 -0.6875 0.7344 -0.6094 Q0.75 -0.5781 0.75 -0.5469 Q0.75 -0.4688 0.6719 -0.4062 Q0.6719 -0.4062 0.6562 -0.4062 Q0.6094 -0.375 0.5469 -0.3594 Q0.6562 -0.3438 0.6875 -0.2812 Q0.7031 -0.25 0.7031 -0.2188 Q0.7031 -0.1406 0.625 -0.0781 L0.625 -0.0781 Q0.5469 0 0.4219 0 L0.0625 0 Q0.0469 0 0.0469 -0.0156 Q0.0469 -0.0312 0.0625 -0.0312 L0.0625 -0.0312 Q0.1406 -0.0312 0.1406 -0.0469 Q0.1562 -0.0469 0.1562 -0.0781 Q0.1562 -0.0781 0.1562 -0.0781 ZM0.3125 -0.3594 L0.4531 -0.3594 Q0.5625 -0.3594 0.625 -0.4375 Q0.6719 -0.4844 0.6719 -0.5469 Q0.6719 -0.625 0.6094 -0.6406 Q0.5781 -0.6562 0.5625 -0.6562 L0.4219 -0.6562 Q0.3906 -0.6562 0.3906 -0.6406 L0.3906 -0.6406 L0.3906 -0.6406 L0.375 -0.6406 L0.375 -0.6406 Q0.375 -0.6406 0.375 -0.6094 L0.3125 -0.3594 ZM0.2656 -0.0312 L0.4062 -0.0312 Q0.5 -0.0312 0.5625 -0.1094 Q0.6094 -0.1562 0.6094 -0.2344 Q0.6094 -0.2969 0.5625 -0.3281 Q0.5312 -0.3438 0.5 -0.3438 L0.3125 -0.3438 L0.2344 -0.0625 Q0.2344 -0.0469 0.2344 -0.0469 Q0.2344 -0.0312 0.2344 -0.0312 L0.2344 -0.0312 L0.2344 -0.0312 L0.25 -0.0312 Q0.25 -0.0312 0.2656 -0.0312 Z"
    /></g
    ><g transform="matrix(20,0,0,20,0,0) translate(0.9585,1.0333) scale(0.7,0.7)" style="font-size:1; text-rendering:geometricPrecision; color-rendering:optimizeQuality; image-rendering:optimizeQuality; font-family:&apos;jlm_cmr10&apos;; color-interpolation:linearRGB;"
    ><path style="stroke:none;" d="M0.2969 -0.3594 L0.2969 -0.3594 Q0.3906 -0.3281 0.4375 -0.25 Q0.4531 -0.2188 0.4531 -0.1719 Q0.4531 -0.0938 0.3906 -0.0312 Q0.3281 0.0156 0.25 0.0156 Q0.1406 0.0156 0.0781 -0.0312 Q0.0469 -0.0781 0.0469 -0.1406 Q0.0469 -0.1875 0.0781 -0.1875 Q0.0938 -0.1875 0.0938 -0.1875 Q0.1406 -0.1875 0.1562 -0.1562 Q0.1562 -0.1406 0.1562 -0.1406 Q0.1562 -0.0938 0.125 -0.0781 Q0.1094 -0.0781 0.0938 -0.0781 Q0.125 -0.0156 0.2188 -0.0156 Q0.2344 0 0.2344 0 Q0.3125 0 0.3281 -0.0625 Q0.3594 -0.1094 0.3594 -0.1719 Q0.3594 -0.2969 0.2812 -0.3281 Q0.25 -0.3438 0.2344 -0.3438 L0.1875 -0.3438 Q0.1719 -0.3438 0.1719 -0.3438 Q0.1719 -0.3594 0.1875 -0.3594 Q0.2031 -0.3594 0.2188 -0.3594 Q0.2656 -0.3594 0.2969 -0.4062 L0.2969 -0.4062 L0.2969 -0.4062 L0.2969 -0.4062 L0.2969 -0.4062 L0.3125 -0.4219 Q0.3438 -0.4688 0.3438 -0.5312 Q0.3438 -0.625 0.2656 -0.6406 Q0.25 -0.6406 0.2344 -0.6406 Q0.1719 -0.6406 0.125 -0.5938 Q0.1094 -0.5938 0.1094 -0.5781 Q0.1719 -0.5781 0.1719 -0.5312 Q0.1719 -0.5 0.1406 -0.4844 Q0.125 -0.4844 0.125 -0.4844 Q0.0781 -0.4844 0.0781 -0.5156 L0.0781 -0.5156 L0.0781 -0.5156 Q0.0625 -0.5156 0.0625 -0.5312 Q0.0625 -0.5938 0.1406 -0.6406 Q0.1875 -0.6719 0.25 -0.6719 Q0.3438 -0.6719 0.3906 -0.6094 L0.3906 -0.6094 Q0.4375 -0.5781 0.4375 -0.5312 Q0.4375 -0.4375 0.3594 -0.3906 Q0.3281 -0.3594 0.2969 -0.3594 Z"
    /></g
  ></g
></svg
>
<!--MD5=[6014ab6cb842fed337e5b1a1d27ca8e7]
entity b1x--><rect fill="#d6f089" filter="url(#f193chh632ljaj)" height="45" style="stroke: #000000; stroke-width: 1.5;" width="51" x="429.5" y="64"/><svg x="439.5" y="74"><!--Generated by the Batik Graphics2D SVG Generator--><defs id="genericDefs"
  /><g
  ><g transform="scale(20,20) translate(0.2,0.8833)" style="font-size:1; text-rendering:geometricPrecision; color-rendering:optimizeQuality; image-rendering:optimizeQuality; font-family:&apos;jlm_cmmi10&apos;; color-interpolation:linearRGB;"
    ><path style="stroke:none;" d="M0.1562 -0.0781 L0.2969 -0.6094 Q0.2969 -0.625 0.2969 -0.6406 Q0.2969 -0.6406 0.2812 -0.6562 L0.2812 -0.6562 L0.2812 -0.6562 Q0.2812 -0.6562 0.2656 -0.6562 Q0.25 -0.6562 0.2344 -0.6562 Q0.2031 -0.6562 0.2031 -0.6562 Q0.2031 -0.6875 0.2188 -0.6875 L0.2188 -0.6875 L0.2188 -0.6875 L0.2344 -0.6875 L0.5625 -0.6875 Q0.6875 -0.6875 0.7344 -0.6094 Q0.75 -0.5781 0.75 -0.5469 Q0.75 -0.4688 0.6719 -0.4062 Q0.6719 -0.4062 0.6562 -0.4062 Q0.6094 -0.375 0.5469 -0.3594 Q0.6562 -0.3438 0.6875 -0.2812 Q0.7031 -0.25 0.7031 -0.2188 Q0.7031 -0.1406 0.625 -0.0781 L0.625 -0.0781 Q0.5469 0 0.4219 0 L0.0625 0 Q0.0469 0 0.0469 -0.0156 Q0.0469 -0.0312 0.0625 -0.0312 L0.0625 -0.0312 Q0.1406 -0.0312 0.1406 -0.0469 Q0.1562 -0.0469 0.1562 -0.0781 Q0.1562 -0.0781 0.1562 -0.0781 ZM0.3125 -0.3594 L0.4531 -0.3594 Q0.5625 -0.3594 0.625 -0.4375 Q0.6719 -0.4844 0.6719 -0.5469 Q0.6719 -0.625 0.6094 -0.6406 Q0.5781 -0.6562 0.5625 -0.6562 L0.4219 -0.6562 Q0.3906 -0.6562 0.3906 -0.6406 L0.3906 -0.6406 L0.3906 -0.6406 L0.375 -0.6406 L0.375 -0.6406 Q0.375 -0.6406 0.375 -0.6094 L0.3125 -0.3594 ZM0.2656 -0.0312 L0.4062 -0.0312 Q0.5 -0.0312 0.5625 -0.1094 Q0.6094 -0.1562 0.6094 -0.2344 Q0.6094 -0.2969 0.5625 -0.3281 Q0.5312 -0.3438 0.5 -0.3438 L0.3125 -0.3438 L0.2344 -0.0625 Q0.2344 -0.0469 0.2344 -0.0469 Q0.2344 -0.0312 0.2344 -0.0312 L0.2344 -0.0312 L0.2344 -0.0312 L0.25 -0.0312 Q0.25 -0.0312 0.2656 -0.0312 Z"
    /></g
    ><g transform="matrix(20,0,0,20,0,0) translate(0.9585,1.0333) scale(0.7,0.7)" style="font-size:1; text-rendering:geometricPrecision; color-rendering:optimizeQuality; image-rendering:optimizeQuality; font-family:&apos;jlm_cmr10&apos;; color-interpolation:linearRGB;"
    ><path style="stroke:none;" d="M0.0312 -0.1719 L0.0312 -0.2031 L0.3281 -0.6719 Q0.3438 -0.6719 0.3594 -0.6719 Q0.375 -0.6719 0.375 -0.6719 L0.375 -0.6562 L0.375 -0.2031 L0.4688 -0.2031 L0.4688 -0.1719 L0.375 -0.1719 L0.375 -0.0781 Q0.375 -0.0469 0.3906 -0.0469 Q0.3906 -0.0312 0.4531 -0.0312 L0.4688 -0.0312 L0.4688 0 Q0.4219 0 0.3281 0 Q0.2344 0 0.2031 0 L0.2031 -0.0312 L0.2188 -0.0312 Q0.2812 -0.0312 0.2969 -0.0469 Q0.2969 -0.0625 0.2969 -0.0781 L0.2969 -0.1719 L0.0312 -0.1719 ZM0.2969 -0.2031 L0.2969 -0.5625 L0.0625 -0.2031 L0.2969 -0.2031 Z"
    /></g
  ></g
></svg
>
<!--MD5=[f8fb026ba308eccece3e2d37d0d37882]
entity b2x--><rect fill="#edc679" filter="url(#f193chh632ljaj)" height="45" style="stroke: #000000; stroke-width: 1.5;" width="51" x="515.5" y="64"/><svg x="525.5" y="74"><!--Generated by the Batik Graphics2D SVG Generator--><defs id="genericDefs"
  /><g
  ><g transform="scale(20,20) translate(0.2,0.8833)" style="font-size:1; text-rendering:geometricPrecision; color-rendering:optimizeQuality; image-rendering:optimizeQuality; font-family:&apos;jlm_cmmi10&apos;; color-interpolation:linearRGB;"
    ><path style="stroke:none;" d="M0.1562 -0.0781 L0.2969 -0.6094 Q0.2969 -0.625 0.2969 -0.6406 Q0.2969 -0.6406 0.2812 -0.6562 L0.2812 -0.6562 L0.2812 -0.6562 Q0.2812 -0.6562 0.2656 -0.6562 Q0.25 -0.6562 0.2344 -0.6562 Q0.2031 -0.6562 0.2031 -0.6562 Q0.2031 -0.6875 0.2188 -0.6875 L0.2188 -0.6875 L0.2188 -0.6875 L0.2344 -0.6875 L0.5625 -0.6875 Q0.6875 -0.6875 0.7344 -0.6094 Q0.75 -0.5781 0.75 -0.5469 Q0.75 -0.4688 0.6719 -0.4062 Q0.6719 -0.4062 0.6562 -0.4062 Q0.6094 -0.375 0.5469 -0.3594 Q0.6562 -0.3438 0.6875 -0.2812 Q0.7031 -0.25 0.7031 -0.2188 Q0.7031 -0.1406 0.625 -0.0781 L0.625 -0.0781 Q0.5469 0 0.4219 0 L0.0625 0 Q0.0469 0 0.0469 -0.0156 Q0.0469 -0.0312 0.0625 -0.0312 L0.0625 -0.0312 Q0.1406 -0.0312 0.1406 -0.0469 Q0.1562 -0.0469 0.1562 -0.0781 Q0.1562 -0.0781 0.1562 -0.0781 ZM0.3125 -0.3594 L0.4531 -0.3594 Q0.5625 -0.3594 0.625 -0.4375 Q0.6719 -0.4844 0.6719 -0.5469 Q0.6719 -0.625 0.6094 -0.6406 Q0.5781 -0.6562 0.5625 -0.6562 L0.4219 -0.6562 Q0.3906 -0.6562 0.3906 -0.6406 L0.3906 -0.6406 L0.3906 -0.6406 L0.375 -0.6406 L0.375 -0.6406 Q0.375 -0.6406 0.375 -0.6094 L0.3125 -0.3594 ZM0.2656 -0.0312 L0.4062 -0.0312 Q0.5 -0.0312 0.5625 -0.1094 Q0.6094 -0.1562 0.6094 -0.2344 Q0.6094 -0.2969 0.5625 -0.3281 Q0.5312 -0.3438 0.5 -0.3438 L0.3125 -0.3438 L0.2344 -0.0625 Q0.2344 -0.0469 0.2344 -0.0469 Q0.2344 -0.0312 0.2344 -0.0312 L0.2344 -0.0312 L0.2344 -0.0312 L0.25 -0.0312 Q0.25 -0.0312 0.2656 -0.0312 Z"
    /></g
    ><g transform="matrix(20,0,0,20,0,0) translate(0.9585,1.0333) scale(0.7,0.7)" style="font-size:1; text-rendering:geometricPrecision; color-rendering:optimizeQuality; image-rendering:optimizeQuality; font-family:&apos;jlm_cmr10&apos;; color-interpolation:linearRGB;"
    ><path style="stroke:none;" d="M0.4531 -0.2031 L0.4531 -0.2031 Q0.4531 -0.0938 0.375 -0.0312 Q0.3125 0.0156 0.2344 0.0156 Q0.1406 0.0156 0.0781 -0.0625 Q0.0469 -0.1094 0.0469 -0.1562 Q0.0469 -0.2031 0.0938 -0.2188 Q0.0938 -0.2188 0.0938 -0.2188 Q0.1406 -0.2188 0.1406 -0.1875 Q0.1562 -0.1719 0.1562 -0.1719 Q0.1562 -0.1406 0.125 -0.125 Q0.1094 -0.1094 0.0938 -0.1094 Q0.0938 -0.1094 0.0781 -0.125 Q0.0938 -0.0625 0.1562 -0.0312 Q0.1875 0 0.2344 0 Q0.2969 0 0.3438 -0.0781 Q0.3594 -0.1094 0.3594 -0.2031 Q0.3594 -0.2969 0.3438 -0.3281 Q0.3125 -0.3906 0.25 -0.3906 Q0.1719 -0.3906 0.125 -0.3281 Q0.125 -0.3125 0.1094 -0.3125 Q0.1094 -0.3125 0.0938 -0.3281 L0.0938 -0.3438 L0.0938 -0.6406 Q0.0938 -0.6562 0.1094 -0.6719 Q0.1094 -0.6719 0.125 -0.6562 Q0.1875 -0.6406 0.25 -0.6406 Q0.3281 -0.6406 0.3906 -0.6562 Q0.3906 -0.6719 0.4062 -0.6719 Q0.4062 -0.6719 0.4062 -0.6562 Q0.4062 -0.6406 0.375 -0.6094 Q0.3125 -0.5469 0.2188 -0.5469 Q0.1719 -0.5469 0.125 -0.5625 L0.125 -0.375 Q0.1875 -0.4219 0.2656 -0.4219 Q0.3438 -0.4219 0.4062 -0.3438 Q0.4531 -0.2812 0.4531 -0.2031 Z"
    /></g
  ></g
></svg
>
<!--MD5=[cb7a0c059b0b23da7ff3608254a61436]
entity b3x--><rect fill="#d6f089" filter="url(#f193chh632ljaj)" height="45" style="stroke: #000000; stroke-width: 1.5;" width="51" x="601.5" y="64"/><svg x="611.5" y="74"><!--Generated by the Batik Graphics2D SVG Generator--><defs id="genericDefs"
  /><g
  ><g transform="scale(20,20) translate(0.2,0.8833)" style="font-size:1; text-rendering:geometricPrecision; color-rendering:optimizeQuality; image-rendering:optimizeQuality; font-family:&apos;jlm_cmmi10&apos;; color-interpolation:linearRGB;"
    ><path style="stroke:none;" d="M0.1562 -0.0781 L0.2969 -0.6094 Q0.2969 -0.625 0.2969 -0.6406 Q0.2969 -0.6406 0.2812 -0.6562 L0.2812 -0.6562 L0.2812 -0.6562 Q0.2812 -0.6562 0.2656 -0.6562 Q0.25 -0.6562 0.2344 -0.6562 Q0.2031 -0.6562 0.2031 -0.6562 Q0.2031 -0.6875 0.2188 -0.6875 L0.2188 -0.6875 L0.2188 -0.6875 L0.2344 -0.6875 L0.5625 -0.6875 Q0.6875 -0.6875 0.7344 -0.6094 Q0.75 -0.5781 0.75 -0.5469 Q0.75 -0.4688 0.6719 -0.4062 Q0.6719 -0.4062 0.6562 -0.4062 Q0.6094 -0.375 0.5469 -0.3594 Q0.6562 -0.3438 0.6875 -0.2812 Q0.7031 -0.25 0.7031 -0.2188 Q0.7031 -0.1406 0.625 -0.0781 L0.625 -0.0781 Q0.5469 0 0.4219 0 L0.0625 0 Q0.0469 0 0.0469 -0.0156 Q0.0469 -0.0312 0.0625 -0.0312 L0.0625 -0.0312 Q0.1406 -0.0312 0.1406 -0.0469 Q0.1562 -0.0469 0.1562 -0.0781 Q0.1562 -0.0781 0.1562 -0.0781 ZM0.3125 -0.3594 L0.4531 -0.3594 Q0.5625 -0.3594 0.625 -0.4375 Q0.6719 -0.4844 0.6719 -0.5469 Q0.6719 -0.625 0.6094 -0.6406 Q0.5781 -0.6562 0.5625 -0.6562 L0.4219 -0.6562 Q0.3906 -0.6562 0.3906 -0.6406 L0.3906 -0.6406 L0.3906 -0.6406 L0.375 -0.6406 L0.375 -0.6406 Q0.375 -0.6406 0.375 -0.6094 L0.3125 -0.3594 ZM0.2656 -0.0312 L0.4062 -0.0312 Q0.5 -0.0312 0.5625 -0.1094 Q0.6094 -0.1562 0.6094 -0.2344 Q0.6094 -0.2969 0.5625 -0.3281 Q0.5312 -0.3438 0.5 -0.3438 L0.3125 -0.3438 L0.2344 -0.0625 Q0.2344 -0.0469 0.2344 -0.0469 Q0.2344 -0.0312 0.2344 -0.0312 L0.2344 -0.0312 L0.2344 -0.0312 L0.25 -0.0312 Q0.25 -0.0312 0.2656 -0.0312 Z"
    /></g
    ><g transform="matrix(20,0,0,20,0,0) translate(0.9585,1.0333) scale(0.7,0.7)" style="font-size:1; text-rendering:geometricPrecision; color-rendering:optimizeQuality; image-rendering:optimizeQuality; font-family:&apos;jlm_cmr10&apos;; color-interpolation:linearRGB;"
    ><path style="stroke:none;" d="M0.125 -0.3281 L0.125 -0.3281 Q0.1719 -0.4219 0.25 -0.4219 Q0.3438 -0.4219 0.4062 -0.3438 Q0.4375 -0.3125 0.4531 -0.25 Q0.4531 -0.2344 0.4531 -0.2031 Q0.4531 -0.0938 0.375 -0.0312 Q0.3281 0.0156 0.25 0.0156 Q0.1562 0.0156 0.0938 -0.0781 Q0.0469 -0.1562 0.0469 -0.3125 Q0.0469 -0.4844 0.1406 -0.5938 Q0.2188 -0.6719 0.3125 -0.6719 Q0.3906 -0.6719 0.4219 -0.6094 Q0.4375 -0.5781 0.4375 -0.5625 Q0.4375 -0.5156 0.3906 -0.5156 Q0.3906 -0.5156 0.3906 -0.5156 Q0.3594 -0.5156 0.3438 -0.5312 Q0.3438 -0.5469 0.3438 -0.5625 Q0.3438 -0.5938 0.3906 -0.5938 Q0.375 -0.6406 0.3125 -0.6406 Q0.2344 -0.6406 0.1875 -0.5781 Q0.125 -0.5 0.125 -0.3594 L0.125 -0.3281 ZM0.25 0 L0.25 0 Q0.3125 0 0.3438 -0.0781 Q0.3594 -0.1094 0.3594 -0.2031 Q0.3594 -0.3125 0.3438 -0.3438 Q0.3125 -0.4062 0.25 -0.4062 Q0.1719 -0.4062 0.1406 -0.3125 Q0.1406 -0.2656 0.1406 -0.2188 Q0.1406 -0.125 0.1562 -0.0781 Q0.1719 -0.0312 0.2188 -0.0156 Q0.2344 0 0.25 0 Z"
    /></g
  ></g
></svg
>
<!--MD5=[cb84d7b689a742b23164a973c87b1153]
entity b4x--><rect fill="#fa7373" filter="url(#f193chh632ljaj)" height="45" style="stroke: #000000; stroke-width: 1.5;" width="44" x="688" y="64"/><svg x="698" y="74"><!--Generated by the Batik Graphics2D SVG Generator--><defs id="genericDefs"
  /><g
  ><g transform="scale(20,20) translate(0.2,0.8833)" style="font-size:1; text-rendering:geometricPrecision; color-rendering:optimizeQuality; image-rendering:optimizeQuality; font-family:&apos;jlm_cmmi10&apos;; color-interpolation:linearRGB;"
    ><path style="stroke:none;" d="M0.375 -0.6094 L0.2344 -0.0781 Q0.2344 -0.0625 0.2344 -0.0469 Q0.2344 -0.0312 0.25 -0.0312 L0.25 -0.0312 L0.25 -0.0312 Q0.25 -0.0312 0.2656 -0.0312 Q0.2812 -0.0312 0.2969 -0.0312 Q0.3281 -0.0312 0.3281 -0.0312 Q0.3281 -0.0156 0.3281 -0.0156 Q0.3281 0 0.3125 0 L0.1875 0 L0.1875 0 L0.0469 0 L0.0469 0 Q0.0312 0 0.0312 -0.0156 Q0.0312 -0.0312 0.0469 -0.0312 Q0.0469 -0.0312 0.0625 -0.0312 Q0.1406 -0.0312 0.1406 -0.0469 Q0.1562 -0.0625 0.1562 -0.0781 L0.2969 -0.6094 Q0.2969 -0.625 0.2969 -0.6406 Q0.2969 -0.6562 0.25 -0.6562 L0.25 -0.6562 L0.2188 -0.6562 Q0.2031 -0.6562 0.2031 -0.6562 Q0.2031 -0.6875 0.2188 -0.6875 L0.3438 -0.6875 L0.3438 -0.6875 L0.4844 -0.6875 L0.4844 -0.6875 Q0.5 -0.6875 0.5 -0.6719 Q0.5 -0.6562 0.4844 -0.6562 Q0.4844 -0.6562 0.4688 -0.6562 Q0.3906 -0.6562 0.3906 -0.6406 Q0.375 -0.625 0.375 -0.6094 Z"
    /></g
    ><g transform="matrix(20,0,0,20,0,0) translate(0.6396,1.0333) scale(0.7,0.7)" style="font-size:1; text-rendering:geometricPrecision; color-rendering:optimizeQuality; image-rendering:optimizeQuality; font-family:&apos;jlm_cmr10&apos;; color-interpolation:linearRGB;"
    ><path style="stroke:none;" d="M0.2969 -0.6406 L0.2969 -0.0781 Q0.2969 -0.0469 0.3125 -0.0469 Q0.3281 -0.0312 0.3906 -0.0312 L0.4219 -0.0312 L0.4219 0 Q0.3906 0 0.25 0 Q0.125 0 0.0938 0 L0.0938 -0.0312 L0.125 -0.0312 Q0.2031 -0.0312 0.2188 -0.0469 L0.2188 -0.0469 Q0.2188 -0.0625 0.2188 -0.0781 L0.2188 -0.5938 Q0.1719 -0.5781 0.0938 -0.5781 L0.0938 -0.6094 Q0.2031 -0.6094 0.2656 -0.6719 Q0.2969 -0.6719 0.2969 -0.6562 L0.2969 -0.6562 L0.2969 -0.6562 Q0.2969 -0.6562 0.2969 -0.6406 Z"
    /></g
  ></g
></svg
>
<!--MD5=[6762754ac25db1de101d8ca99127e6b8]
link b0 to b4--><path d="M45.6324,63.8544 C55.8933,52.5681 69.8723,40.0612 85.5,34 C177.904,-1.839 215.65,-0.669 308.5,34 C322.888,39.3724 336.121,49.8799 346.519,60.0922 " fill="none" id="b0-&gt;b4" style="stroke: #A80036; stroke-width: 1.0;"/><polygon fill="#A80036" points="350.218,63.8312,346.7315,54.6201,346.7014,60.2769,341.0446,60.2467,350.218,63.8312" style="stroke: #A80036; stroke-width: 1.0;"/><!--MD5=[f15ffcfce7e073c9a4468355e8775159]
reverse link b4 to b4x--><path d="M391.481,60.0922 C401.879,49.8799 415.112,39.3724 429.5,34 C522.35,-0.669 560.096,-1.839 652.5,34 C668.128,40.0612 682.107,52.5681 692.368,63.8544 " fill="none" id="b4&lt;-b4x" style="stroke: #A80036; stroke-width: 1.0;"/><polygon fill="#A80036" points="387.782,63.8312,396.9554,60.2467,391.2986,60.2769,391.2685,54.6201,387.782,63.8312" style="stroke: #A80036; stroke-width: 1.0;"/><!--MD5=[3f81f5146dfb3baba599cbae6528a853]
link b0 to b2--><path d="M45.6324,63.8544 C55.8933,52.5681 69.8723,40.0612 85.5,34 C106.633,25.8036 115.265,26.0712 136.5,34 C150.888,39.3724 164.121,49.8799 174.519,60.0922 " fill="none" id="b0-&gt;b2" style="stroke: #A80036; stroke-width: 1.0;"/><polygon fill="#A80036" points="178.218,63.8312,174.7315,54.6201,174.7014,60.2769,169.0446,60.2467,178.218,63.8312" style="stroke: #A80036; stroke-width: 1.0;"/><!--MD5=[40f2003dbd9f8a0737c0715c79f4e07d]
reverse link b2 to b4--><path d="M219.481,60.0922 C229.879,49.8799 243.112,39.3724 257.5,34 C278.735,26.0712 287.265,26.0712 308.5,34 C324.655,40.0321 339.354,52.5381 350.218,63.8312 " fill="none" id="b2&lt;-b4" style="stroke: #A80036; stroke-width: 1.0;"/><polygon fill="#A80036" points="215.782,63.8312,224.9554,60.2467,219.2986,60.2769,219.2685,54.6201,215.782,63.8312" style="stroke: #A80036; stroke-width: 1.0;"/><!--MD5=[e80bbe958836a2fc4f12f5762f23ca31]
link b0 to b1--><path d="M50.0469,86.5 C60.0495,86.5 70.0521,86.5 80.0547,86.5 " fill="none" id="b0-&gt;b1" style="stroke: #A80036; stroke-width: 1.0;"/><polygon fill="#A80036" points="85.2854,86.5,76.2854,82.5,80.2854,86.5,76.2854,90.5,85.2854,86.5" style="stroke: #A80036; stroke-width: 1.0;"/><!--MD5=[cf9fce994dd2ee16063608429d674bd4]
reverse link b1 to b2--><path d="M141.72,86.5 C151.644,86.5 161.567,86.5 171.49,86.5 " fill="none" id="b1&lt;-b2" style="stroke: #A80036; stroke-width: 1.0;"/><polygon fill="#A80036" points="136.531,86.5,145.531,90.5,141.531,86.5,145.531,82.5,136.531,86.5" style="stroke: #A80036; stroke-width: 1.0;"/><!--MD5=[dd7bb088cf108c78ec097dfd9fc00472]
link b2 to b3--><path d="M222.531,86.5 C232.454,86.5 242.377,86.5 252.301,86.5 " fill="none" id="b2-&gt;b3" style="stroke: #A80036; stroke-width: 1.0;"/><polygon fill="#A80036" points="257.49,86.5,248.49,82.5,252.49,86.5,248.49,90.5,257.49,86.5" style="stroke: #A80036; stroke-width: 1.0;"/><!--MD5=[2b4484969166ccd27b7f1ab46b675174]
reverse link b3 to b4--><path d="M313.72,86.5 C323.644,86.5 333.567,86.5 343.49,86.5 " fill="none" id="b3&lt;-b4" style="stroke: #A80036; stroke-width: 1.0;"/><polygon fill="#A80036" points="308.531,86.5,317.531,90.5,313.531,86.5,317.531,82.5,308.531,86.5" style="stroke: #A80036; stroke-width: 1.0;"/><!--MD5=[cfa3d0992e2a4ea01976ea22a8f27a69]
link b4 to b2x--><path d="M387.782,63.8312 C398.646,52.5381 413.345,40.0321 429.5,34 C450.735,26.0712 459.265,26.0712 480.5,34 C494.888,39.3724 508.121,49.8799 518.519,60.0922 " fill="none" id="b4-&gt;b2x" style="stroke: #A80036; stroke-width: 1.0;"/><polygon fill="#A80036" points="522.218,63.8312,518.7315,54.6201,518.7014,60.2769,513.0446,60.2467,522.218,63.8312" style="stroke: #A80036; stroke-width: 1.0;"/><!--MD5=[63fa720112728a4427ba84513450c66d]
reverse link b2x to b4x--><path d="M563.481,60.0922 C573.879,49.8799 587.112,39.3724 601.5,34 C622.735,26.0712 631.367,25.8036 652.5,34 C668.128,40.0612 682.107,52.5681 692.368,63.8544 " fill="none" id="b2x&lt;-b4x" style="stroke: #A80036; stroke-width: 1.0;"/><polygon fill="#A80036" points="559.782,63.8312,568.9554,60.2467,563.2986,60.2769,563.2685,54.6201,559.782,63.8312" style="stroke: #A80036; stroke-width: 1.0;"/><!--MD5=[55260dcaa4f0d51e54de1faadc15289c]
link b4 to b1x--><path d="M394.531,86.5 C404.454,86.5 414.377,86.5 424.301,86.5 " fill="none" id="b4-&gt;b1x" style="stroke: #A80036; stroke-width: 1.0;"/><polygon fill="#A80036" points="429.49,86.5,420.49,82.5,424.49,86.5,420.49,90.5,429.49,86.5" style="stroke: #A80036; stroke-width: 1.0;"/><!--MD5=[b7dea5430eb400f7fed1b41a39560194]
reverse link b1x to b2x--><path d="M485.72,86.5 C495.644,86.5 505.567,86.5 515.49,86.5 " fill="none" id="b1x&lt;-b2x" style="stroke: #A80036; stroke-width: 1.0;"/><polygon fill="#A80036" points="480.531,86.5,489.531,90.5,485.531,86.5,489.531,82.5,480.531,86.5" style="stroke: #A80036; stroke-width: 1.0;"/><!--MD5=[5a83b8afe21614999013879c51e6681e]
link b2x to b3x--><path d="M566.531,86.5 C576.454,86.5 586.377,86.5 596.301,86.5 " fill="none" id="b2x-&gt;b3x" style="stroke: #A80036; stroke-width: 1.0;"/><polygon fill="#A80036" points="601.49,86.5,592.49,82.5,596.49,86.5,592.49,90.5,601.49,86.5" style="stroke: #A80036; stroke-width: 1.0;"/><!--MD5=[13e4707b4faeb79971c6959a52ae0b77]
reverse link b3x to b4x--><path d="M657.804,86.5 C667.731,86.5 677.657,86.5 687.583,86.5 " fill="none" id="b3x&lt;-b4x" style="stroke: #A80036; stroke-width: 1.0;"/><polygon fill="#A80036" points="652.613,86.5,661.613,90.5,657.613,86.5,661.613,82.5,652.613,86.5" style="stroke: #A80036; stroke-width: 1.0;"/><!--MD5=[971b810f09c94fbe40c863dddc2f8d2d]
@startuml
rectangle "<math>I_0</math>" as b0
rectangle "<math>B_0</math>" as b1 
rectangle "<math>B_1</math>" as b2
rectangle "<math>B_2</math>" as b3 
rectangle "<math>B_3</math>" as b4

rectangle "<math>B_4</math>" as b1x
rectangle "<math>B_5</math>" as b2x
rectangle "<math>B_6</math>" as b3x
rectangle "<math>I_1</math>" as b4x


b0 -right-> b4
b4 <-right- b4x

b0 -right-> b2
b2 <-right- b4

b0 -right-> b1
b1 <-right- b2

b2 -right-> b3
b3 <-right- b4

b4 -right-> b2x
b2x <-right- b4x

b4 -right-> b1x
b1x <-right- b2x

b2x -right-> b3x
b3x <-right- b4x
@enduml

PlantUML version 1.2019.11(Sun Sep 22 10:02:15 UTC 2019)
(GPL source distribution)
Java Runtime: Java(TM) SE Runtime Environment
JVM: Java HotSpot(TM) 64-Bit Server VM
Java Version: 1.7.0_25-b15
Operating System: Linux
Default Encoding: UTF-8
Language: en
Country: US
--></g></svg>
