<?xml version="1.0" encoding="UTF-8" standalone="no"?><svg xmlns="http://www.w3.org/2000/svg" xmlns:xlink="http://www.w3.org/1999/xlink" contentScriptType="application/ecmascript" contentStyleType="text/css" height="100px" preserveAspectRatio="none" style="width:399px;height:100px;" version="1.1" viewBox="0 0 399 100" width="399px" zoomAndPan="magnify"><defs><filter height="300%" id="fen1bcnxh1era" width="300%" x="-1" y="-1"><feGaussianBlur result="blurOut" stdDeviation="2.0"/><feColorMatrix in="blurOut" result="blurOut2" type="matrix" values="0 0 0 0 0 0 0 0 0 0 0 0 0 0 0 0 0 0 .4 0"/><feOffset dx="4.0" dy="4.0" in="blurOut2" result="blurOut3"/><feBlend in="SourceGraphic" in2="blurOut3" mode="normal"/></filter></defs><g><!--MD5=[e86f453ec6fcad8fc7e8d9ade10a477f]
entity i0--><rect fill="#fa7373" filter="url(#fen1bcnxh1era)" height="45" style="stroke: #000000; stroke-width: 1.5;" width="44" x="6" y="44"/><svg x="16" y="54"><!--Generated by the Batik Graphics2D SVG Generator--><defs id="genericDefs"
  /><g
  ><g transform="scale(20,20) translate(0.2,0.8833)" style="font-size:1; text-rendering:geometricPrecision; color-rendering:optimizeQuality; image-rendering:optimizeQuality; font-family:&apos;jlm_cmmi10&apos;; color-interpolation:linearRGB;"
    ><path style="stroke:none;" d="M0.375 -0.6094 L0.2344 -0.0781 Q0.2344 -0.0625 0.2344 -0.0469 Q0.2344 -0.0312 0.25 -0.0312 L0.25 -0.0312 L0.25 -0.0312 Q0.25 -0.0312 0.2656 -0.0312 Q0.2812 -0.0312 0.2969 -0.0312 Q0.3281 -0.0312 0.3281 -0.0312 Q0.3281 -0.0156 0.3281 -0.0156 Q0.3281 0 0.3125 0 L0.1875 0 L0.1875 0 L0.0469 0 L0.0469 0 Q0.0312 0 0.0312 -0.0156 Q0.0312 -0.0312 0.0469 -0.0312 Q0.0469 -0.0312 0.0625 -0.0312 Q0.1406 -0.0312 0.1406 -0.0469 Q0.1562 -0.0625 0.1562 -0.0781 L0.2969 -0.6094 Q0.2969 -0.625 0.2969 -0.6406 Q0.2969 -0.6562 0.25 -0.6562 L0.25 -0.6562 L0.2188 -0.6562 Q0.2031 -0.6562 0.2031 -0.6562 Q0.2031 -0.6875 0.2188 -0.6875 L0.3438 -0.6875 L0.3438 -0.6875 L0.4844 -0.6875 L0.4844 -0.6875 Q0.5 -0.6875 0.5 -0.6719 Q0.5 -0.6562 0.4844 -0.6562 Q0.4844 -0.6562 0.4688 -0.6562 Q0.3906 -0.6562 0.3906 -0.6406 Q0.375 -0.625 0.375 -0.6094 Z"
    /></g
    ><g transform="matrix(20,0,0,20,0,0) translate(0.6396,1.0333) scale(0.7,0.7)" style="font-size:1; text-rendering:geometricPrecision; color-rendering:optimizeQuality; image-rendering:optimizeQuality; font-family:&apos;jlm_cmr10&apos;; color-interpolation:linearRGB;"
    ><path style="stroke:none;" d="M0.4531 -0.3125 Q0.4531 -0.1719 0.4219 -0.0938 Q0.3594 0.0156 0.25 0.0156 Q0.1562 0.0156 0.1094 -0.0469 Q0.0938 -0.0625 0.0781 -0.0781 Q0.0312 -0.1562 0.0312 -0.3125 Q0.0312 -0.4688 0.0781 -0.5469 Q0.125 -0.6562 0.2344 -0.6719 L0.25 -0.6719 Q0.3438 -0.6719 0.3906 -0.5938 L0.3906 -0.5938 Q0.4062 -0.5781 0.4219 -0.5469 Q0.4531 -0.4688 0.4531 -0.3125 ZM0.25 0 L0.25 0 Q0.3125 0 0.3438 -0.0625 Q0.3594 -0.0938 0.3594 -0.125 Q0.375 -0.1875 0.375 -0.3281 Q0.375 -0.4688 0.3594 -0.5312 Q0.3438 -0.625 0.2812 -0.6406 Q0.2656 -0.6406 0.25 -0.6406 Q0.1719 -0.6406 0.1406 -0.5781 Q0.1406 -0.5469 0.125 -0.5156 Q0.125 -0.4688 0.125 -0.3281 Q0.125 -0.1875 0.1406 -0.125 Q0.1562 -0.0312 0.2188 0 Q0.2344 0 0.25 0 Z"
    /></g
  ></g
></svg
>
<!--MD5=[6b0e729622303f4def5f3eba755f4c5f]
entity b0--><rect fill="#edc679" filter="url(#fen1bcnxh1era)" height="45" style="stroke: #000000; stroke-width: 1.5;" width="51" x="85.5" y="44"/><svg x="95.5" y="54"><!--Generated by the Batik Graphics2D SVG Generator--><defs id="genericDefs"
  /><g
  ><g transform="scale(20,20) translate(0.2,0.8833)" style="font-size:1; text-rendering:geometricPrecision; color-rendering:optimizeQuality; image-rendering:optimizeQuality; font-family:&apos;jlm_cmmi10&apos;; color-interpolation:linearRGB;"
    ><path style="stroke:none;" d="M0.1562 -0.0781 L0.2969 -0.6094 Q0.2969 -0.625 0.2969 -0.6406 Q0.2969 -0.6406 0.2812 -0.6562 L0.2812 -0.6562 L0.2812 -0.6562 Q0.2812 -0.6562 0.2656 -0.6562 Q0.25 -0.6562 0.2344 -0.6562 Q0.2031 -0.6562 0.2031 -0.6562 Q0.2031 -0.6875 0.2188 -0.6875 L0.2188 -0.6875 L0.2188 -0.6875 L0.2344 -0.6875 L0.5625 -0.6875 Q0.6875 -0.6875 0.7344 -0.6094 Q0.75 -0.5781 0.75 -0.5469 Q0.75 -0.4688 0.6719 -0.4062 Q0.6719 -0.4062 0.6562 -0.4062 Q0.6094 -0.375 0.5469 -0.3594 Q0.6562 -0.3438 0.6875 -0.2812 Q0.7031 -0.25 0.7031 -0.2188 Q0.7031 -0.1406 0.625 -0.0781 L0.625 -0.0781 Q0.5469 0 0.4219 0 L0.0625 0 Q0.0469 0 0.0469 -0.0156 Q0.0469 -0.0312 0.0625 -0.0312 L0.0625 -0.0312 Q0.1406 -0.0312 0.1406 -0.0469 Q0.1562 -0.0469 0.1562 -0.0781 Q0.1562 -0.0781 0.1562 -0.0781 ZM0.3125 -0.3594 L0.4531 -0.3594 Q0.5625 -0.3594 0.625 -0.4375 Q0.6719 -0.4844 0.6719 -0.5469 Q0.6719 -0.625 0.6094 -0.6406 Q0.5781 -0.6562 0.5625 -0.6562 L0.4219 -0.6562 Q0.3906 -0.6562 0.3906 -0.6406 L0.3906 -0.6406 L0.3906 -0.6406 L0.375 -0.6406 L0.375 -0.6406 Q0.375 -0.6406 0.375 -0.6094 L0.3125 -0.3594 ZM0.2656 -0.0312 L0.4062 -0.0312 Q0.5 -0.0312 0.5625 -0.1094 Q0.6094 -0.1562 0.6094 -0.2344 Q0.6094 -0.2969 0.5625 -0.3281 Q0.5312 -0.3438 0.5 -0.3438 L0.3125 -0.3438 L0.2344 -0.0625 Q0.2344 -0.0469 0.2344 -0.0469 Q0.2344 -0.0312 0.2344 -0.0312 L0.2344 -0.0312 L0.2344 -0.0312 L0.25 -0.0312 Q0.25 -0.0312 0.2656 -0.0312 Z"
    /></g
    ><g transform="matrix(20,0,0,20,0,0) translate(0.9585,1.0333) scale(0.7,0.7)" style="font-size:1; text-rendering:geometricPrecision; color-rendering:optimizeQuality; image-rendering:optimizeQuality; font-family:&apos;jlm_cmr10&apos;; color-interpolation:linearRGB;"
    ><path style="stroke:none;" d="M0.4531 -0.3125 Q0.4531 -0.1719 0.4219 -0.0938 Q0.3594 0.0156 0.25 0.0156 Q0.1562 0.0156 0.1094 -0.0469 Q0.0938 -0.0625 0.0781 -0.0781 Q0.0312 -0.1562 0.0312 -0.3125 Q0.0312 -0.4688 0.0781 -0.5469 Q0.125 -0.6562 0.2344 -0.6719 L0.25 -0.6719 Q0.3438 -0.6719 0.3906 -0.5938 L0.3906 -0.5938 Q0.4062 -0.5781 0.4219 -0.5469 Q0.4531 -0.4688 0.4531 -0.3125 ZM0.25 0 L0.25 0 Q0.3125 0 0.3438 -0.0625 Q0.3594 -0.0938 0.3594 -0.125 Q0.375 -0.1875 0.375 -0.3281 Q0.375 -0.4688 0.3594 -0.5312 Q0.3438 -0.625 0.2812 -0.6406 Q0.2656 -0.6406 0.25 -0.6406 Q0.1719 -0.6406 0.1406 -0.5781 Q0.1406 -0.5469 0.125 -0.5156 Q0.125 -0.4688 0.125 -0.3281 Q0.125 -0.1875 0.1406 -0.125 Q0.1562 -0.0312 0.2188 0 Q0.2344 0 0.25 0 Z"
    /></g
  ></g
></svg
>
<!--MD5=[55492eb1c4b62cc9e892e1fafdaeb44c]
entity b1--><rect fill="#ed905a" filter="url(#fen1bcnxh1era)" height="45" style="stroke: #000000; stroke-width: 1.5;" width="51" x="171.5" y="44"/><svg x="181.5" y="54"><!--Generated by the Batik Graphics2D SVG Generator--><defs id="genericDefs"
  /><g
  ><g transform="scale(20,20) translate(0.2,0.8833)" style="font-size:1; text-rendering:geometricPrecision; color-rendering:optimizeQuality; image-rendering:optimizeQuality; font-family:&apos;jlm_cmmi10&apos;; color-interpolation:linearRGB;"
    ><path style="stroke:none;" d="M0.1562 -0.0781 L0.2969 -0.6094 Q0.2969 -0.625 0.2969 -0.6406 Q0.2969 -0.6406 0.2812 -0.6562 L0.2812 -0.6562 L0.2812 -0.6562 Q0.2812 -0.6562 0.2656 -0.6562 Q0.25 -0.6562 0.2344 -0.6562 Q0.2031 -0.6562 0.2031 -0.6562 Q0.2031 -0.6875 0.2188 -0.6875 L0.2188 -0.6875 L0.2188 -0.6875 L0.2344 -0.6875 L0.5625 -0.6875 Q0.6875 -0.6875 0.7344 -0.6094 Q0.75 -0.5781 0.75 -0.5469 Q0.75 -0.4688 0.6719 -0.4062 Q0.6719 -0.4062 0.6562 -0.4062 Q0.6094 -0.375 0.5469 -0.3594 Q0.6562 -0.3438 0.6875 -0.2812 Q0.7031 -0.25 0.7031 -0.2188 Q0.7031 -0.1406 0.625 -0.0781 L0.625 -0.0781 Q0.5469 0 0.4219 0 L0.0625 0 Q0.0469 0 0.0469 -0.0156 Q0.0469 -0.0312 0.0625 -0.0312 L0.0625 -0.0312 Q0.1406 -0.0312 0.1406 -0.0469 Q0.1562 -0.0469 0.1562 -0.0781 Q0.1562 -0.0781 0.1562 -0.0781 ZM0.3125 -0.3594 L0.4531 -0.3594 Q0.5625 -0.3594 0.625 -0.4375 Q0.6719 -0.4844 0.6719 -0.5469 Q0.6719 -0.625 0.6094 -0.6406 Q0.5781 -0.6562 0.5625 -0.6562 L0.4219 -0.6562 Q0.3906 -0.6562 0.3906 -0.6406 L0.3906 -0.6406 L0.3906 -0.6406 L0.375 -0.6406 L0.375 -0.6406 Q0.375 -0.6406 0.375 -0.6094 L0.3125 -0.3594 ZM0.2656 -0.0312 L0.4062 -0.0312 Q0.5 -0.0312 0.5625 -0.1094 Q0.6094 -0.1562 0.6094 -0.2344 Q0.6094 -0.2969 0.5625 -0.3281 Q0.5312 -0.3438 0.5 -0.3438 L0.3125 -0.3438 L0.2344 -0.0625 Q0.2344 -0.0469 0.2344 -0.0469 Q0.2344 -0.0312 0.2344 -0.0312 L0.2344 -0.0312 L0.2344 -0.0312 L0.25 -0.0312 Q0.25 -0.0312 0.2656 -0.0312 Z"
    /></g
    ><g transform="matrix(20,0,0,20,0,0) translate(0.9585,1.0333) scale(0.7,0.7)" style="font-size:1; text-rendering:geometricPrecision; color-rendering:optimizeQuality; image-rendering:optimizeQuality; font-family:&apos;jlm_cmr10&apos;; color-interpolation:linearRGB;"
    ><path style="stroke:none;" d="M0.2969 -0.6406 L0.2969 -0.0781 Q0.2969 -0.0469 0.3125 -0.0469 Q0.3281 -0.0312 0.3906 -0.0312 L0.4219 -0.0312 L0.4219 0 Q0.3906 0 0.25 0 Q0.125 0 0.0938 0 L0.0938 -0.0312 L0.125 -0.0312 Q0.2031 -0.0312 0.2188 -0.0469 L0.2188 -0.0469 Q0.2188 -0.0625 0.2188 -0.0781 L0.2188 -0.5938 Q0.1719 -0.5781 0.0938 -0.5781 L0.0938 -0.6094 Q0.2031 -0.6094 0.2656 -0.6719 Q0.2969 -0.6719 0.2969 -0.6562 L0.2969 -0.6562 L0.2969 -0.6562 Q0.2969 -0.6562 0.2969 -0.6406 Z"
    /></g
  ></g
></svg
>
<!--MD5=[bb04a20f8ffc3fa40d9086bdeb8759dc]
entity b2--><rect fill="#edc679" filter="url(#fen1bcnxh1era)" height="45" style="stroke: #000000; stroke-width: 1.5;" width="51" x="257.5" y="44"/><svg x="267.5" y="54"><!--Generated by the Batik Graphics2D SVG Generator--><defs id="genericDefs"
  /><g
  ><g transform="scale(20,20) translate(0.2,0.8833)" style="font-size:1; text-rendering:geometricPrecision; color-rendering:optimizeQuality; image-rendering:optimizeQuality; font-family:&apos;jlm_cmmi10&apos;; color-interpolation:linearRGB;"
    ><path style="stroke:none;" d="M0.1562 -0.0781 L0.2969 -0.6094 Q0.2969 -0.625 0.2969 -0.6406 Q0.2969 -0.6406 0.2812 -0.6562 L0.2812 -0.6562 L0.2812 -0.6562 Q0.2812 -0.6562 0.2656 -0.6562 Q0.25 -0.6562 0.2344 -0.6562 Q0.2031 -0.6562 0.2031 -0.6562 Q0.2031 -0.6875 0.2188 -0.6875 L0.2188 -0.6875 L0.2188 -0.6875 L0.2344 -0.6875 L0.5625 -0.6875 Q0.6875 -0.6875 0.7344 -0.6094 Q0.75 -0.5781 0.75 -0.5469 Q0.75 -0.4688 0.6719 -0.4062 Q0.6719 -0.4062 0.6562 -0.4062 Q0.6094 -0.375 0.5469 -0.3594 Q0.6562 -0.3438 0.6875 -0.2812 Q0.7031 -0.25 0.7031 -0.2188 Q0.7031 -0.1406 0.625 -0.0781 L0.625 -0.0781 Q0.5469 0 0.4219 0 L0.0625 0 Q0.0469 0 0.0469 -0.0156 Q0.0469 -0.0312 0.0625 -0.0312 L0.0625 -0.0312 Q0.1406 -0.0312 0.1406 -0.0469 Q0.1562 -0.0469 0.1562 -0.0781 Q0.1562 -0.0781 0.1562 -0.0781 ZM0.3125 -0.3594 L0.4531 -0.3594 Q0.5625 -0.3594 0.625 -0.4375 Q0.6719 -0.4844 0.6719 -0.5469 Q0.6719 -0.625 0.6094 -0.6406 Q0.5781 -0.6562 0.5625 -0.6562 L0.4219 -0.6562 Q0.3906 -0.6562 0.3906 -0.6406 L0.3906 -0.6406 L0.3906 -0.6406 L0.375 -0.6406 L0.375 -0.6406 Q0.375 -0.6406 0.375 -0.6094 L0.3125 -0.3594 ZM0.2656 -0.0312 L0.4062 -0.0312 Q0.5 -0.0312 0.5625 -0.1094 Q0.6094 -0.1562 0.6094 -0.2344 Q0.6094 -0.2969 0.5625 -0.3281 Q0.5312 -0.3438 0.5 -0.3438 L0.3125 -0.3438 L0.2344 -0.0625 Q0.2344 -0.0469 0.2344 -0.0469 Q0.2344 -0.0312 0.2344 -0.0312 L0.2344 -0.0312 L0.2344 -0.0312 L0.25 -0.0312 Q0.25 -0.0312 0.2656 -0.0312 Z"
    /></g
    ><g transform="matrix(20,0,0,20,0,0) translate(0.9585,1.0333) scale(0.7,0.7)" style="font-size:1; text-rendering:geometricPrecision; color-rendering:optimizeQuality; image-rendering:optimizeQuality; font-family:&apos;jlm_cmr10&apos;; color-interpolation:linearRGB;"
    ><path style="stroke:none;" d="M0.4531 -0.1719 L0.4531 -0.1719 L0.4219 0 L0.0469 0 Q0.0469 -0.0312 0.0625 -0.0312 L0.0625 -0.0312 L0.25 -0.25 Q0.3594 -0.375 0.3594 -0.4688 Q0.3594 -0.5625 0.2969 -0.6094 L0.2969 -0.6094 L0.2969 -0.6094 Q0.2656 -0.6406 0.2188 -0.6406 Q0.1562 -0.6406 0.1094 -0.5781 Q0.0938 -0.5625 0.0938 -0.5312 Q0.0938 -0.5312 0.1094 -0.5312 Q0.1406 -0.5312 0.1562 -0.5 L0.1562 -0.5 Q0.1562 -0.4844 0.1562 -0.4844 Q0.1562 -0.4375 0.1094 -0.4375 Q0.1094 -0.4219 0.1094 -0.4219 Q0.0625 -0.4219 0.0469 -0.4531 Q0.0469 -0.4688 0.0469 -0.4844 Q0.0469 -0.5625 0.1094 -0.6094 Q0.1562 -0.6719 0.2344 -0.6719 Q0.3438 -0.6719 0.4062 -0.5938 Q0.4375 -0.5469 0.4531 -0.4844 Q0.4531 -0.4844 0.4531 -0.4688 Q0.4531 -0.4062 0.3906 -0.3281 Q0.3594 -0.2969 0.2969 -0.25 L0.25 -0.1875 L0.2344 -0.1875 L0.125 -0.0781 L0.3125 -0.0781 Q0.3906 -0.0781 0.4062 -0.0781 Q0.4062 -0.0938 0.4219 -0.1719 L0.4531 -0.1719 Z"
    /></g
  ></g
></svg
>
<!--MD5=[21e9faaae1927b116601d310a19ac3ea]
entity i1--><rect fill="#fa7373" filter="url(#fen1bcnxh1era)" height="45" style="stroke: #000000; stroke-width: 1.5;" width="44" x="344" y="44"/><svg x="354" y="54"><!--Generated by the Batik Graphics2D SVG Generator--><defs id="genericDefs"
  /><g
  ><g transform="scale(20,20) translate(0.2,0.8833)" style="font-size:1; text-rendering:geometricPrecision; color-rendering:optimizeQuality; image-rendering:optimizeQuality; font-family:&apos;jlm_cmmi10&apos;; color-interpolation:linearRGB;"
    ><path style="stroke:none;" d="M0.375 -0.6094 L0.2344 -0.0781 Q0.2344 -0.0625 0.2344 -0.0469 Q0.2344 -0.0312 0.25 -0.0312 L0.25 -0.0312 L0.25 -0.0312 Q0.25 -0.0312 0.2656 -0.0312 Q0.2812 -0.0312 0.2969 -0.0312 Q0.3281 -0.0312 0.3281 -0.0312 Q0.3281 -0.0156 0.3281 -0.0156 Q0.3281 0 0.3125 0 L0.1875 0 L0.1875 0 L0.0469 0 L0.0469 0 Q0.0312 0 0.0312 -0.0156 Q0.0312 -0.0312 0.0469 -0.0312 Q0.0469 -0.0312 0.0625 -0.0312 Q0.1406 -0.0312 0.1406 -0.0469 Q0.1562 -0.0625 0.1562 -0.0781 L0.2969 -0.6094 Q0.2969 -0.625 0.2969 -0.6406 Q0.2969 -0.6562 0.25 -0.6562 L0.25 -0.6562 L0.2188 -0.6562 Q0.2031 -0.6562 0.2031 -0.6562 Q0.2031 -0.6875 0.2188 -0.6875 L0.3438 -0.6875 L0.3438 -0.6875 L0.4844 -0.6875 L0.4844 -0.6875 Q0.5 -0.6875 0.5 -0.6719 Q0.5 -0.6562 0.4844 -0.6562 Q0.4844 -0.6562 0.4688 -0.6562 Q0.3906 -0.6562 0.3906 -0.6406 Q0.375 -0.625 0.375 -0.6094 Z"
    /></g
    ><g transform="matrix(20,0,0,20,0,0) translate(0.6396,1.0333) scale(0.7,0.7)" style="font-size:1; text-rendering:geometricPrecision; color-rendering:optimizeQuality; image-rendering:optimizeQuality; font-family:&apos;jlm_cmr10&apos;; color-interpolation:linearRGB;"
    ><path style="stroke:none;" d="M0.2969 -0.6406 L0.2969 -0.0781 Q0.2969 -0.0469 0.3125 -0.0469 Q0.3281 -0.0312 0.3906 -0.0312 L0.4219 -0.0312 L0.4219 0 Q0.3906 0 0.25 0 Q0.125 0 0.0938 0 L0.0938 -0.0312 L0.125 -0.0312 Q0.2031 -0.0312 0.2188 -0.0469 L0.2188 -0.0469 Q0.2188 -0.0625 0.2188 -0.0781 L0.2188 -0.5938 Q0.1719 -0.5781 0.0938 -0.5781 L0.0938 -0.6094 Q0.2031 -0.6094 0.2656 -0.6719 Q0.2969 -0.6719 0.2969 -0.6562 L0.2969 -0.6562 L0.2969 -0.6562 Q0.2969 -0.6562 0.2969 -0.6406 Z"
    /></g
  ></g
></svg
>
<!--MD5=[fc034503da99d47592ca03d0d497346b]
link i0 to b1--><path d="M45.6324,43.8544 C55.8933,32.5681 69.8723,20.0612 85.5,14 C106.633,5.8036 115.265,6.0712 136.5,14 C150.888,19.3724 164.121,29.8799 174.519,40.0922 " fill="none" id="i0-&gt;b1" style="stroke: #A80036; stroke-width: 1.0;"/><polygon fill="#A80036" points="178.218,43.8312,174.7315,34.6201,174.7014,40.2769,169.0446,40.2467,178.218,43.8312" style="stroke: #A80036; stroke-width: 1.0;"/><!--MD5=[f046e06c1896c58661eee4637fbd8ead]
link i0 to b0--><path d="M50.0469,66.5 C60.0495,66.5 70.0521,66.5 80.0547,66.5 " fill="none" id="i0-&gt;b0" style="stroke: #A80036; stroke-width: 1.0;"/><polygon fill="#A80036" points="85.2854,66.5,76.2854,62.5,80.2854,66.5,76.2854,70.5,85.2854,66.5" style="stroke: #A80036; stroke-width: 1.0;"/><!--MD5=[825bbdf7e0215ea28103d8177ab32415]
reverse link b0 to b1--><path d="M141.72,66.5 C151.644,66.5 161.567,66.5 171.49,66.5 " fill="none" id="b0&lt;-b1" style="stroke: #A80036; stroke-width: 1.0;"/><polygon fill="#A80036" points="136.531,66.5,145.531,70.5,141.531,66.5,145.531,62.5,136.531,66.5" style="stroke: #A80036; stroke-width: 1.0;"/><!--MD5=[dad5d2e1a2a5ca29001c223a65c3ee5f]
link b1 to b2--><path d="M222.531,66.5 C232.454,66.5 242.377,66.5 252.301,66.5 " fill="none" id="b1-&gt;b2" style="stroke: #A80036; stroke-width: 1.0;"/><polygon fill="#A80036" points="257.49,66.5,248.49,62.5,252.49,66.5,248.49,70.5,257.49,66.5" style="stroke: #A80036; stroke-width: 1.0;"/><!--MD5=[7622585f01af56296faefc5cc45d6719]
reverse link b2 to i1--><path d="M313.804,66.5 C323.731,66.5 333.657,66.5 343.583,66.5 " fill="none" id="b2&lt;-i1" style="stroke: #A80036; stroke-width: 1.0;"/><polygon fill="#A80036" points="308.613,66.5,317.613,70.5,313.613,66.5,317.613,62.5,308.613,66.5" style="stroke: #A80036; stroke-width: 1.0;"/><!--MD5=[90e08dbbe5079c1905643a5c0d7b8885]
reverse link b1 to i1--><path d="M219.481,40.0922 C229.879,29.8799 243.112,19.3724 257.5,14 C278.735,6.0712 287.367,5.8036 308.5,14 C324.128,20.0612 338.107,32.5681 348.368,43.8544 " fill="none" id="b1&lt;-i1" style="stroke: #A80036; stroke-width: 1.0;"/><polygon fill="#A80036" points="215.782,43.8312,224.9554,40.2467,219.2986,40.2769,219.2685,34.6201,215.782,43.8312" style="stroke: #A80036; stroke-width: 1.0;"/><!--MD5=[12906fe431e6722c4276221172aaf437]
@startuml
rectangle "<math>I_0</math>" as i0
rectangle "<math>B_0</math>" as b0 
rectangle "<math>B_1</math>" as b1
rectangle "<math>B_2</math>" as b2 
rectangle "<math>I_1</math>" as i1 


i0 -right-> b1
i0 -right-> b0
b0 <-right- b1
b1 -right-> b2
b2 <-right- i1
b1 <-right- i1
@enduml

PlantUML version 1.2019.12beta6(Unknown compile time)
(GPL source distribution)
Java Runtime: Java(TM) SE Runtime Environment
JVM: Java HotSpot(TM) 64-Bit Server VM
Java Version: 1.7.0_25-b15
Operating System: Linux
Default Encoding: UTF-8
Language: en
Country: US
--></g></svg>
