<?xml version="1.0" encoding="UTF-8" standalone="no"?><svg xmlns="http://www.w3.org/2000/svg" xmlns:xlink="http://www.w3.org/1999/xlink" contentScriptType="application/ecmascript" contentStyleType="text/css" height="280px" preserveAspectRatio="none" style="width:261px;height:280px;" version="1.1" viewBox="0 0 261 280" width="261px" zoomAndPan="magnify"><defs><filter height="300%" id="f1u4exot6si6s3" width="300%" x="-1" y="-1"><feGaussianBlur result="blurOut" stdDeviation="2.0"/><feColorMatrix in="blurOut" result="blurOut2" type="matrix" values="0 0 0 0 0 0 0 0 0 0 0 0 0 0 0 0 0 0 .4 0"/><feOffset dx="4.0" dy="4.0" in="blurOut2" result="blurOut3"/><feBlend in="SourceGraphic" in2="blurOut3" mode="normal"/></filter></defs><g><!--MD5=[f7b9c92259726bf4f434d5aa0e9285fe]
entity t_neg--><rect fill="#FEFECE" filter="url(#f1u4exot6si6s3)" height="47" style="stroke: #000000; stroke-width: 1.5;" width="66" x="6" y="115"/><svg x="16" y="125"><!--Generated by the Batik Graphics2D SVG Generator--><defs id="genericDefs"
  /><g
  ><g transform="scale(20,20) translate(0.2,0.8833)" style="font-size:1; text-rendering:geometricPrecision; color-rendering:optimizeQuality; image-rendering:optimizeQuality; font-family:&apos;jlm_cmmi10&apos;; color-interpolation:linearRGB;"
    ><path style="stroke:none;" d="M0.4219 -0.6094 L0.2969 -0.0781 Q0.2969 -0.0625 0.2969 -0.0625 Q0.2969 -0.0469 0.3125 -0.0312 L0.3125 -0.0312 Q0.3125 -0.0312 0.3281 -0.0312 Q0.3594 -0.0312 0.3906 -0.0312 Q0.4219 -0.0312 0.4219 -0.0312 Q0.4219 -0.0156 0.4219 -0.0156 Q0.4219 0 0.4062 0 L0.3125 0 L0.3125 0 L0.2344 0 L0.2344 0 L0.1562 0 L0.1406 0 L0.0625 0 L0.0625 0 Q0.0469 0 0.0469 -0.0156 Q0.0469 -0.0312 0.0625 -0.0312 Q0.0625 -0.0312 0.0938 -0.0312 Q0.1875 -0.0312 0.2031 -0.0469 Q0.2031 -0.0469 0.2031 -0.0625 Q0.2031 -0.0625 0.2031 -0.0781 L0.2031 -0.0781 L0.2031 -0.0781 L0.2031 -0.0781 Q0.2031 -0.0781 0.2031 -0.0781 L0.3438 -0.6094 Q0.3438 -0.625 0.3438 -0.6328 Q0.3438 -0.6406 0.3438 -0.6406 Q0.3281 -0.6406 0.3125 -0.6406 L0.2812 -0.6406 Q0.1719 -0.6406 0.1406 -0.625 Q0.125 -0.6094 0.1094 -0.5938 L0.1094 -0.5781 L0.1094 -0.5781 L0.0938 -0.5781 Q0.0781 -0.5469 0.0469 -0.4688 Q0.0469 -0.4531 0.0469 -0.4531 Q0.0312 -0.4531 0.0312 -0.4531 Q0.0312 -0.4531 0.0312 -0.4688 Q0.0312 -0.4688 0.0312 -0.4844 L0.0938 -0.6562 Q0.0938 -0.6719 0.1094 -0.6719 Q0.1094 -0.6719 0.125 -0.6719 L0.6719 -0.6719 Q0.7031 -0.6719 0.7031 -0.6719 Q0.7031 -0.6562 0.7031 -0.6562 L0.6719 -0.4688 Q0.6719 -0.4531 0.6562 -0.4531 Q0.6406 -0.4531 0.6406 -0.4688 Q0.6406 -0.4688 0.6562 -0.4844 Q0.6562 -0.5312 0.6562 -0.5625 Q0.6562 -0.625 0.625 -0.6406 Q0.5938 -0.6406 0.5156 -0.6406 Q0.4531 -0.6406 0.4531 -0.6406 Q0.4375 -0.6406 0.4375 -0.625 L0.4375 -0.625 Q0.4219 -0.6094 0.4219 -0.6094 Z"
    /></g
    ><g transform="matrix(20,0,0,20,0,0) translate(0.7844,1.0333) scale(0.7,0.7)" style="font-size:1; text-rendering:geometricPrecision; color-rendering:optimizeQuality; image-rendering:optimizeQuality; font-family:&apos;jlm_cmmi10&apos;; color-interpolation:linearRGB;"
    ><path style="stroke:none;" d="M0.0938 -0.0625 L0.0938 -0.0625 L0.1406 -0.2969 Q0.1562 -0.3594 0.1562 -0.375 Q0.1562 -0.4219 0.125 -0.4219 Q0.0938 -0.4219 0.0625 -0.3281 Q0.0625 -0.3125 0.0625 -0.2969 Q0.0469 -0.2812 0.0469 -0.2812 Q0.0312 -0.2812 0.0312 -0.2812 Q0.0312 -0.2969 0.0469 -0.3594 L0.0469 -0.3594 Q0.0469 -0.3594 0.0469 -0.3594 L0.0469 -0.3594 L0.0469 -0.3594 L0.0625 -0.3906 Q0.0781 -0.4219 0.1094 -0.4375 Q0.125 -0.4375 0.1406 -0.4375 Q0.1875 -0.4375 0.2188 -0.3906 Q0.2188 -0.375 0.2188 -0.3594 Q0.2969 -0.4375 0.375 -0.4375 Q0.4688 -0.4375 0.4844 -0.375 Q0.5 -0.3594 0.5 -0.3281 Q0.5 -0.2812 0.4375 -0.1094 Q0.4219 -0.0781 0.4219 -0.0469 Q0.4219 -0.0156 0.4375 -0.0156 Q0.5156 -0.0156 0.5469 -0.1406 Q0.5469 -0.1562 0.5469 -0.1562 L0.5469 -0.1562 L0.5625 -0.1562 Q0.5781 -0.1562 0.5781 -0.1406 Q0.5781 -0.125 0.5469 -0.0781 Q0.5 0.0156 0.4375 0.0156 Q0.3906 0.0156 0.3594 -0.0312 Q0.3594 -0.0469 0.3594 -0.0781 Q0.3594 -0.0938 0.375 -0.1094 Q0.4375 -0.2969 0.4375 -0.3438 Q0.4375 -0.4219 0.375 -0.4219 Q0.2812 -0.4219 0.2344 -0.3125 Q0.2188 -0.3125 0.2188 -0.2969 L0.2031 -0.25 Q0.2031 -0.2188 0.1875 -0.1875 L0.1562 -0.0938 Q0.1406 -0.0156 0.1406 -0.0156 Q0.1406 0.0156 0.1094 0.0156 Q0.0781 0 0.0781 -0.0156 Q0.0781 -0.0156 0.0938 -0.0625 Z"
    /></g
    ><g transform="matrix(20,0,0,20,0,0) translate(1.2045,1.0333) scale(0.7,0.7)" style="font-size:1; text-rendering:geometricPrecision; color-rendering:optimizeQuality; image-rendering:optimizeQuality; font-family:&apos;jlm_cmsy10&apos;; color-interpolation:linearRGB;"
    ><path style="stroke:none;" d="M0.6562 -0.2344 L0.1094 -0.2344 Q0.0781 -0.2344 0.0781 -0.25 Q0.0781 -0.2656 0.1094 -0.2656 L0.6562 -0.2656 Q0.6875 -0.2656 0.6875 -0.25 Q0.6875 -0.2344 0.6562 -0.2344 Z"
    /></g
    ><g transform="matrix(20,0,0,20,0,0) translate(1.749,1.0333) scale(0.7,0.7)" style="font-size:1; text-rendering:geometricPrecision; color-rendering:optimizeQuality; image-rendering:optimizeQuality; font-family:&apos;jlm_cmr10&apos;; color-interpolation:linearRGB;"
    ><path style="stroke:none;" d="M0.2969 -0.6406 L0.2969 -0.0781 Q0.2969 -0.0469 0.3125 -0.0469 Q0.3281 -0.0312 0.3906 -0.0312 L0.4219 -0.0312 L0.4219 0 Q0.3906 0 0.25 0 Q0.125 0 0.0938 0 L0.0938 -0.0312 L0.125 -0.0312 Q0.2031 -0.0312 0.2188 -0.0469 L0.2188 -0.0469 Q0.2188 -0.0625 0.2188 -0.0781 L0.2188 -0.5938 Q0.1719 -0.5781 0.0938 -0.5781 L0.0938 -0.6094 Q0.2031 -0.6094 0.2656 -0.6719 Q0.2969 -0.6719 0.2969 -0.6562 L0.2969 -0.6562 L0.2969 -0.6562 Q0.2969 -0.6562 0.2969 -0.6406 Z"
    /></g
  ></g
></svg
>
<!--MD5=[be5750da26e06623bc49653cefaf97c7]
entity p--><rect fill="#FEFECE" filter="url(#f1u4exot6si6s3)" height="42" style="stroke: #000000; stroke-width: 1.5;" width="41" x="107.5" y="117.5"/><svg x="117.5" y="127.5"><!--Generated by the Batik Graphics2D SVG Generator--><defs id="genericDefs"
  /><g
  ><g transform="scale(20,20) translate(0.2,0.8833)" style="font-size:1; text-rendering:geometricPrecision; color-rendering:optimizeQuality; image-rendering:optimizeQuality; font-family:&apos;jlm_cmmi10&apos;; color-interpolation:linearRGB;"
    ><path style="stroke:none;" d="M0.2969 -0.3125 L0.2969 -0.3125 L0.2344 -0.0625 L0.2344 -0.0469 Q0.2344 -0.0312 0.2812 -0.0312 L0.2812 -0.0312 L0.2812 -0.0312 L0.2969 -0.0312 Q0.3281 -0.0312 0.3281 -0.0156 Q0.3281 0 0.3125 0 L0.25 0 L0.25 0 L0.1875 0 L0.1875 0 L0.0625 0 L0.0625 0 Q0.0469 0 0.0469 -0.0156 Q0.0469 -0.0312 0.0625 -0.0312 L0.0625 -0.0312 Q0.1406 -0.0312 0.1406 -0.0469 Q0.1562 -0.0469 0.1562 -0.0781 Q0.1562 -0.0781 0.1562 -0.0781 L0.2969 -0.6094 Q0.2969 -0.625 0.2969 -0.6406 Q0.2969 -0.6406 0.2812 -0.6562 L0.2812 -0.6562 L0.2812 -0.6562 Q0.2812 -0.6562 0.2812 -0.6562 Q0.25 -0.6562 0.2344 -0.6562 Q0.2031 -0.6562 0.2031 -0.6562 Q0.2031 -0.6562 0.2031 -0.6562 Q0.2031 -0.6875 0.2188 -0.6875 L0.2188 -0.6875 L0.2344 -0.6875 L0.5625 -0.6875 Q0.6719 -0.6875 0.7344 -0.6094 Q0.75 -0.5781 0.75 -0.5312 Q0.75 -0.4531 0.6719 -0.3906 Q0.5781 -0.3125 0.4688 -0.3125 L0.2969 -0.3125 ZM0.375 -0.6094 L0.3125 -0.3438 L0.4531 -0.3438 Q0.5469 -0.3438 0.6094 -0.3906 Q0.6406 -0.4375 0.6562 -0.5156 L0.6562 -0.5156 Q0.6562 -0.5469 0.6562 -0.5625 Q0.6562 -0.6562 0.5312 -0.6562 L0.4219 -0.6562 Q0.3906 -0.6562 0.3906 -0.6406 L0.3906 -0.6406 L0.3906 -0.6406 L0.3906 -0.6406 L0.3906 -0.6406 Q0.375 -0.6406 0.375 -0.6094 Z"
    /></g
  ></g
></svg
>
<!--MD5=[09e88febe2d266b7a23469bd704c9ea0]
entity t_pos--><rect fill="#FEFECE" filter="url(#f1u4exot6si6s3)" height="47" style="stroke: #000000; stroke-width: 1.5;" width="66" x="184" y="115"/><svg x="194" y="125"><!--Generated by the Batik Graphics2D SVG Generator--><defs id="genericDefs"
  /><g
  ><g transform="scale(20,20) translate(0.2,0.8833)" style="font-size:1; text-rendering:geometricPrecision; color-rendering:optimizeQuality; image-rendering:optimizeQuality; font-family:&apos;jlm_cmmi10&apos;; color-interpolation:linearRGB;"
    ><path style="stroke:none;" d="M0.4219 -0.6094 L0.2969 -0.0781 Q0.2969 -0.0625 0.2969 -0.0625 Q0.2969 -0.0469 0.3125 -0.0312 L0.3125 -0.0312 Q0.3125 -0.0312 0.3281 -0.0312 Q0.3594 -0.0312 0.3906 -0.0312 Q0.4219 -0.0312 0.4219 -0.0312 Q0.4219 -0.0156 0.4219 -0.0156 Q0.4219 0 0.4062 0 L0.3125 0 L0.3125 0 L0.2344 0 L0.2344 0 L0.1562 0 L0.1406 0 L0.0625 0 L0.0625 0 Q0.0469 0 0.0469 -0.0156 Q0.0469 -0.0312 0.0625 -0.0312 Q0.0625 -0.0312 0.0938 -0.0312 Q0.1875 -0.0312 0.2031 -0.0469 Q0.2031 -0.0469 0.2031 -0.0625 Q0.2031 -0.0625 0.2031 -0.0781 L0.2031 -0.0781 L0.2031 -0.0781 L0.2031 -0.0781 Q0.2031 -0.0781 0.2031 -0.0781 L0.3438 -0.6094 Q0.3438 -0.625 0.3438 -0.6328 Q0.3438 -0.6406 0.3438 -0.6406 Q0.3281 -0.6406 0.3125 -0.6406 L0.2812 -0.6406 Q0.1719 -0.6406 0.1406 -0.625 Q0.125 -0.6094 0.1094 -0.5938 L0.1094 -0.5781 L0.1094 -0.5781 L0.0938 -0.5781 Q0.0781 -0.5469 0.0469 -0.4688 Q0.0469 -0.4531 0.0469 -0.4531 Q0.0312 -0.4531 0.0312 -0.4531 Q0.0312 -0.4531 0.0312 -0.4688 Q0.0312 -0.4688 0.0312 -0.4844 L0.0938 -0.6562 Q0.0938 -0.6719 0.1094 -0.6719 Q0.1094 -0.6719 0.125 -0.6719 L0.6719 -0.6719 Q0.7031 -0.6719 0.7031 -0.6719 Q0.7031 -0.6562 0.7031 -0.6562 L0.6719 -0.4688 Q0.6719 -0.4531 0.6562 -0.4531 Q0.6406 -0.4531 0.6406 -0.4688 Q0.6406 -0.4688 0.6562 -0.4844 Q0.6562 -0.5312 0.6562 -0.5625 Q0.6562 -0.625 0.625 -0.6406 Q0.5938 -0.6406 0.5156 -0.6406 Q0.4531 -0.6406 0.4531 -0.6406 Q0.4375 -0.6406 0.4375 -0.625 L0.4375 -0.625 Q0.4219 -0.6094 0.4219 -0.6094 Z"
    /></g
    ><g transform="matrix(20,0,0,20,0,0) translate(0.7844,1.0333) scale(0.7,0.7)" style="font-size:1; text-rendering:geometricPrecision; color-rendering:optimizeQuality; image-rendering:optimizeQuality; font-family:&apos;jlm_cmmi10&apos;; color-interpolation:linearRGB;"
    ><path style="stroke:none;" d="M0.0938 -0.0625 L0.0938 -0.0625 L0.1406 -0.2969 Q0.1562 -0.3594 0.1562 -0.375 Q0.1562 -0.4219 0.125 -0.4219 Q0.0938 -0.4219 0.0625 -0.3281 Q0.0625 -0.3125 0.0625 -0.2969 Q0.0469 -0.2812 0.0469 -0.2812 Q0.0312 -0.2812 0.0312 -0.2812 Q0.0312 -0.2969 0.0469 -0.3594 L0.0469 -0.3594 Q0.0469 -0.3594 0.0469 -0.3594 L0.0469 -0.3594 L0.0469 -0.3594 L0.0625 -0.3906 Q0.0781 -0.4219 0.1094 -0.4375 Q0.125 -0.4375 0.1406 -0.4375 Q0.1875 -0.4375 0.2188 -0.3906 Q0.2188 -0.375 0.2188 -0.3594 Q0.2969 -0.4375 0.375 -0.4375 Q0.4688 -0.4375 0.4844 -0.375 Q0.5 -0.3594 0.5 -0.3281 Q0.5 -0.2812 0.4375 -0.1094 Q0.4219 -0.0781 0.4219 -0.0469 Q0.4219 -0.0156 0.4375 -0.0156 Q0.5156 -0.0156 0.5469 -0.1406 Q0.5469 -0.1562 0.5469 -0.1562 L0.5469 -0.1562 L0.5625 -0.1562 Q0.5781 -0.1562 0.5781 -0.1406 Q0.5781 -0.125 0.5469 -0.0781 Q0.5 0.0156 0.4375 0.0156 Q0.3906 0.0156 0.3594 -0.0312 Q0.3594 -0.0469 0.3594 -0.0781 Q0.3594 -0.0938 0.375 -0.1094 Q0.4375 -0.2969 0.4375 -0.3438 Q0.4375 -0.4219 0.375 -0.4219 Q0.2812 -0.4219 0.2344 -0.3125 Q0.2188 -0.3125 0.2188 -0.2969 L0.2031 -0.25 Q0.2031 -0.2188 0.1875 -0.1875 L0.1562 -0.0938 Q0.1406 -0.0156 0.1406 -0.0156 Q0.1406 0.0156 0.1094 0.0156 Q0.0781 0 0.0781 -0.0156 Q0.0781 -0.0156 0.0938 -0.0625 Z"
    /></g
    ><g transform="matrix(20,0,0,20,0,0) translate(1.2045,1.0333) scale(0.7,0.7)" style="font-size:1; text-rendering:geometricPrecision; color-rendering:optimizeQuality; image-rendering:optimizeQuality; font-family:&apos;jlm_cmr10&apos;; color-interpolation:linearRGB;"
    ><path style="stroke:none;" d="M0.4062 -0.2344 L0.4062 0.0469 Q0.4062 0.0781 0.3906 0.0781 Q0.375 0.0781 0.375 0.0469 L0.375 -0.2344 L0.0938 -0.2344 Q0.0625 -0.2344 0.0625 -0.25 Q0.0625 -0.2656 0.0938 -0.2656 L0.375 -0.2656 L0.375 -0.5469 Q0.375 -0.5781 0.3906 -0.5781 Q0.4062 -0.5781 0.4062 -0.5469 L0.4062 -0.2656 L0.6875 -0.2656 Q0.7188 -0.2656 0.7188 -0.25 Q0.7188 -0.2344 0.6875 -0.2344 L0.4062 -0.2344 Z"
    /></g
    ><g transform="matrix(20,0,0,20,0,0) translate(1.749,1.0333) scale(0.7,0.7)" style="font-size:1; text-rendering:geometricPrecision; color-rendering:optimizeQuality; image-rendering:optimizeQuality; font-family:&apos;jlm_cmr10&apos;; color-interpolation:linearRGB;"
    ><path style="stroke:none;" d="M0.2969 -0.6406 L0.2969 -0.0781 Q0.2969 -0.0469 0.3125 -0.0469 Q0.3281 -0.0312 0.3906 -0.0312 L0.4219 -0.0312 L0.4219 0 Q0.3906 0 0.25 0 Q0.125 0 0.0938 0 L0.0938 -0.0312 L0.125 -0.0312 Q0.2031 -0.0312 0.2188 -0.0469 L0.2188 -0.0469 Q0.2188 -0.0625 0.2188 -0.0781 L0.2188 -0.5938 Q0.1719 -0.5781 0.0938 -0.5781 L0.0938 -0.6094 Q0.2031 -0.6094 0.2656 -0.6719 Q0.2969 -0.6719 0.2969 -0.6562 L0.2969 -0.6562 L0.2969 -0.6562 Q0.2969 -0.6562 0.2969 -0.6406 Z"
    /></g
  ></g
></svg
>
<!--MD5=[c5d715f850cffe751a1993fb21c7d71b]
entity s_neg--><rect fill="#FEFECE" filter="url(#f1u4exot6si6s3)" height="47" style="stroke: #000000; stroke-width: 1.5;" width="67" x="94.5" y="8"/><svg x="104.5" y="18"><!--Generated by the Batik Graphics2D SVG Generator--><defs id="genericDefs"
  /><g
  ><g transform="scale(20,20) translate(0.2,0.8833)" style="font-size:1; text-rendering:geometricPrecision; color-rendering:optimizeQuality; image-rendering:optimizeQuality; font-family:&apos;jlm_cmmi10&apos;; color-interpolation:linearRGB;"
    ><path style="stroke:none;" d="M0.6406 -0.6875 L0.6406 -0.6875 L0.5938 -0.4688 Q0.5781 -0.4531 0.5781 -0.4531 Q0.5625 -0.4531 0.5625 -0.4688 L0.5625 -0.5156 L0.5625 -0.5156 Q0.5625 -0.6562 0.4531 -0.6719 Q0.4375 -0.6719 0.4219 -0.6719 Q0.3438 -0.6719 0.2969 -0.6094 Q0.25 -0.5625 0.25 -0.5156 Q0.25 -0.4531 0.2969 -0.4219 Q0.2969 -0.4219 0.3125 -0.4219 Q0.3125 -0.4219 0.375 -0.4062 Q0.4688 -0.375 0.4844 -0.3594 Q0.5 -0.3594 0.5 -0.3594 Q0.5469 -0.3125 0.5469 -0.2344 Q0.5469 -0.1406 0.4844 -0.0625 Q0.4062 0.0156 0.2969 0.0156 Q0.1875 0.0156 0.125 -0.0469 L0.0781 0 Q0.0625 0.0156 0.0625 0.0156 Q0.0469 0.0156 0.0469 0.0156 L0.1094 -0.2188 L0.1094 -0.2188 Q0.1094 -0.2188 0.1094 -0.2188 Q0.1094 -0.2344 0.125 -0.2344 Q0.1406 -0.2344 0.1406 -0.2188 L0.125 -0.2031 Q0.125 -0.1719 0.125 -0.1562 Q0.125 -0.0469 0.2344 -0.0156 Q0.2656 -0.0156 0.2969 -0.0156 Q0.375 -0.0156 0.4375 -0.0781 Q0.4844 -0.125 0.4844 -0.1875 Q0.4844 -0.2656 0.4062 -0.2969 L0.3906 -0.2969 L0.2812 -0.3281 Q0.2188 -0.3438 0.1875 -0.4062 Q0.1719 -0.4375 0.1719 -0.4688 Q0.1719 -0.5625 0.25 -0.6406 Q0.3281 -0.7031 0.4219 -0.7031 Q0.5312 -0.7031 0.5625 -0.6406 L0.6094 -0.6875 Q0.625 -0.7031 0.6406 -0.7031 Q0.6406 -0.7031 0.6406 -0.6875 Z"
    /></g
    ><g transform="matrix(20,0,0,20,0,0) translate(0.8132,1.0333) scale(0.7,0.7)" style="font-size:1; text-rendering:geometricPrecision; color-rendering:optimizeQuality; image-rendering:optimizeQuality; font-family:&apos;jlm_cmmi10&apos;; color-interpolation:linearRGB;"
    ><path style="stroke:none;" d="M0.0938 -0.0625 L0.0938 -0.0625 L0.1406 -0.2969 Q0.1562 -0.3594 0.1562 -0.375 Q0.1562 -0.4219 0.125 -0.4219 Q0.0938 -0.4219 0.0625 -0.3281 Q0.0625 -0.3125 0.0625 -0.2969 Q0.0469 -0.2812 0.0469 -0.2812 Q0.0312 -0.2812 0.0312 -0.2812 Q0.0312 -0.2969 0.0469 -0.3594 L0.0469 -0.3594 Q0.0469 -0.3594 0.0469 -0.3594 L0.0469 -0.3594 L0.0469 -0.3594 L0.0625 -0.3906 Q0.0781 -0.4219 0.1094 -0.4375 Q0.125 -0.4375 0.1406 -0.4375 Q0.1875 -0.4375 0.2188 -0.3906 Q0.2188 -0.375 0.2188 -0.3594 Q0.2969 -0.4375 0.375 -0.4375 Q0.4688 -0.4375 0.4844 -0.375 Q0.5 -0.3594 0.5 -0.3281 Q0.5 -0.2812 0.4375 -0.1094 Q0.4219 -0.0781 0.4219 -0.0469 Q0.4219 -0.0156 0.4375 -0.0156 Q0.5156 -0.0156 0.5469 -0.1406 Q0.5469 -0.1562 0.5469 -0.1562 L0.5469 -0.1562 L0.5625 -0.1562 Q0.5781 -0.1562 0.5781 -0.1406 Q0.5781 -0.125 0.5469 -0.0781 Q0.5 0.0156 0.4375 0.0156 Q0.3906 0.0156 0.3594 -0.0312 Q0.3594 -0.0469 0.3594 -0.0781 Q0.3594 -0.0938 0.375 -0.1094 Q0.4375 -0.2969 0.4375 -0.3438 Q0.4375 -0.4219 0.375 -0.4219 Q0.2812 -0.4219 0.2344 -0.3125 Q0.2188 -0.3125 0.2188 -0.2969 L0.2031 -0.25 Q0.2031 -0.2188 0.1875 -0.1875 L0.1562 -0.0938 Q0.1406 -0.0156 0.1406 -0.0156 Q0.1406 0.0156 0.1094 0.0156 Q0.0781 0 0.0781 -0.0156 Q0.0781 -0.0156 0.0938 -0.0625 Z"
    /></g
    ><g transform="matrix(20,0,0,20,0,0) translate(1.2334,1.0333) scale(0.7,0.7)" style="font-size:1; text-rendering:geometricPrecision; color-rendering:optimizeQuality; image-rendering:optimizeQuality; font-family:&apos;jlm_cmsy10&apos;; color-interpolation:linearRGB;"
    ><path style="stroke:none;" d="M0.6562 -0.2344 L0.1094 -0.2344 Q0.0781 -0.2344 0.0781 -0.25 Q0.0781 -0.2656 0.1094 -0.2656 L0.6562 -0.2656 Q0.6875 -0.2656 0.6875 -0.25 Q0.6875 -0.2344 0.6562 -0.2344 Z"
    /></g
    ><g transform="matrix(20,0,0,20,0,0) translate(1.7778,1.0333) scale(0.7,0.7)" style="font-size:1; text-rendering:geometricPrecision; color-rendering:optimizeQuality; image-rendering:optimizeQuality; font-family:&apos;jlm_cmr10&apos;; color-interpolation:linearRGB;"
    ><path style="stroke:none;" d="M0.2969 -0.6406 L0.2969 -0.0781 Q0.2969 -0.0469 0.3125 -0.0469 Q0.3281 -0.0312 0.3906 -0.0312 L0.4219 -0.0312 L0.4219 0 Q0.3906 0 0.25 0 Q0.125 0 0.0938 0 L0.0938 -0.0312 L0.125 -0.0312 Q0.2031 -0.0312 0.2188 -0.0469 L0.2188 -0.0469 Q0.2188 -0.0625 0.2188 -0.0781 L0.2188 -0.5938 Q0.1719 -0.5781 0.0938 -0.5781 L0.0938 -0.6094 Q0.2031 -0.6094 0.2656 -0.6719 Q0.2969 -0.6719 0.2969 -0.6562 L0.2969 -0.6562 L0.2969 -0.6562 Q0.2969 -0.6562 0.2969 -0.6406 Z"
    /></g
  ></g
></svg
>
<!--MD5=[02353efa80677b14cdb5aaf58b5d08ed]
entity s_pos--><rect fill="#FEFECE" filter="url(#f1u4exot6si6s3)" height="47" style="stroke: #000000; stroke-width: 1.5;" width="67" x="94.5" y="222"/><svg x="104.5" y="232"><!--Generated by the Batik Graphics2D SVG Generator--><defs id="genericDefs"
  /><g
  ><g transform="scale(20,20) translate(0.2,0.8833)" style="font-size:1; text-rendering:geometricPrecision; color-rendering:optimizeQuality; image-rendering:optimizeQuality; font-family:&apos;jlm_cmmi10&apos;; color-interpolation:linearRGB;"
    ><path style="stroke:none;" d="M0.6406 -0.6875 L0.6406 -0.6875 L0.5938 -0.4688 Q0.5781 -0.4531 0.5781 -0.4531 Q0.5625 -0.4531 0.5625 -0.4688 L0.5625 -0.5156 L0.5625 -0.5156 Q0.5625 -0.6562 0.4531 -0.6719 Q0.4375 -0.6719 0.4219 -0.6719 Q0.3438 -0.6719 0.2969 -0.6094 Q0.25 -0.5625 0.25 -0.5156 Q0.25 -0.4531 0.2969 -0.4219 Q0.2969 -0.4219 0.3125 -0.4219 Q0.3125 -0.4219 0.375 -0.4062 Q0.4688 -0.375 0.4844 -0.3594 Q0.5 -0.3594 0.5 -0.3594 Q0.5469 -0.3125 0.5469 -0.2344 Q0.5469 -0.1406 0.4844 -0.0625 Q0.4062 0.0156 0.2969 0.0156 Q0.1875 0.0156 0.125 -0.0469 L0.0781 0 Q0.0625 0.0156 0.0625 0.0156 Q0.0469 0.0156 0.0469 0.0156 L0.1094 -0.2188 L0.1094 -0.2188 Q0.1094 -0.2188 0.1094 -0.2188 Q0.1094 -0.2344 0.125 -0.2344 Q0.1406 -0.2344 0.1406 -0.2188 L0.125 -0.2031 Q0.125 -0.1719 0.125 -0.1562 Q0.125 -0.0469 0.2344 -0.0156 Q0.2656 -0.0156 0.2969 -0.0156 Q0.375 -0.0156 0.4375 -0.0781 Q0.4844 -0.125 0.4844 -0.1875 Q0.4844 -0.2656 0.4062 -0.2969 L0.3906 -0.2969 L0.2812 -0.3281 Q0.2188 -0.3438 0.1875 -0.4062 Q0.1719 -0.4375 0.1719 -0.4688 Q0.1719 -0.5625 0.25 -0.6406 Q0.3281 -0.7031 0.4219 -0.7031 Q0.5312 -0.7031 0.5625 -0.6406 L0.6094 -0.6875 Q0.625 -0.7031 0.6406 -0.7031 Q0.6406 -0.7031 0.6406 -0.6875 Z"
    /></g
    ><g transform="matrix(20,0,0,20,0,0) translate(0.8132,1.0333) scale(0.7,0.7)" style="font-size:1; text-rendering:geometricPrecision; color-rendering:optimizeQuality; image-rendering:optimizeQuality; font-family:&apos;jlm_cmmi10&apos;; color-interpolation:linearRGB;"
    ><path style="stroke:none;" d="M0.0938 -0.0625 L0.0938 -0.0625 L0.1406 -0.2969 Q0.1562 -0.3594 0.1562 -0.375 Q0.1562 -0.4219 0.125 -0.4219 Q0.0938 -0.4219 0.0625 -0.3281 Q0.0625 -0.3125 0.0625 -0.2969 Q0.0469 -0.2812 0.0469 -0.2812 Q0.0312 -0.2812 0.0312 -0.2812 Q0.0312 -0.2969 0.0469 -0.3594 L0.0469 -0.3594 Q0.0469 -0.3594 0.0469 -0.3594 L0.0469 -0.3594 L0.0469 -0.3594 L0.0625 -0.3906 Q0.0781 -0.4219 0.1094 -0.4375 Q0.125 -0.4375 0.1406 -0.4375 Q0.1875 -0.4375 0.2188 -0.3906 Q0.2188 -0.375 0.2188 -0.3594 Q0.2969 -0.4375 0.375 -0.4375 Q0.4688 -0.4375 0.4844 -0.375 Q0.5 -0.3594 0.5 -0.3281 Q0.5 -0.2812 0.4375 -0.1094 Q0.4219 -0.0781 0.4219 -0.0469 Q0.4219 -0.0156 0.4375 -0.0156 Q0.5156 -0.0156 0.5469 -0.1406 Q0.5469 -0.1562 0.5469 -0.1562 L0.5469 -0.1562 L0.5625 -0.1562 Q0.5781 -0.1562 0.5781 -0.1406 Q0.5781 -0.125 0.5469 -0.0781 Q0.5 0.0156 0.4375 0.0156 Q0.3906 0.0156 0.3594 -0.0312 Q0.3594 -0.0469 0.3594 -0.0781 Q0.3594 -0.0938 0.375 -0.1094 Q0.4375 -0.2969 0.4375 -0.3438 Q0.4375 -0.4219 0.375 -0.4219 Q0.2812 -0.4219 0.2344 -0.3125 Q0.2188 -0.3125 0.2188 -0.2969 L0.2031 -0.25 Q0.2031 -0.2188 0.1875 -0.1875 L0.1562 -0.0938 Q0.1406 -0.0156 0.1406 -0.0156 Q0.1406 0.0156 0.1094 0.0156 Q0.0781 0 0.0781 -0.0156 Q0.0781 -0.0156 0.0938 -0.0625 Z"
    /></g
    ><g transform="matrix(20,0,0,20,0,0) translate(1.2334,1.0333) scale(0.7,0.7)" style="font-size:1; text-rendering:geometricPrecision; color-rendering:optimizeQuality; image-rendering:optimizeQuality; font-family:&apos;jlm_cmr10&apos;; color-interpolation:linearRGB;"
    ><path style="stroke:none;" d="M0.4062 -0.2344 L0.4062 0.0469 Q0.4062 0.0781 0.3906 0.0781 Q0.375 0.0781 0.375 0.0469 L0.375 -0.2344 L0.0938 -0.2344 Q0.0625 -0.2344 0.0625 -0.25 Q0.0625 -0.2656 0.0938 -0.2656 L0.375 -0.2656 L0.375 -0.5469 Q0.375 -0.5781 0.3906 -0.5781 Q0.4062 -0.5781 0.4062 -0.5469 L0.4062 -0.2656 L0.6875 -0.2656 Q0.7188 -0.2656 0.7188 -0.25 Q0.7188 -0.2344 0.6875 -0.2344 L0.4062 -0.2344 Z"
    /></g
    ><g transform="matrix(20,0,0,20,0,0) translate(1.7778,1.0333) scale(0.7,0.7)" style="font-size:1; text-rendering:geometricPrecision; color-rendering:optimizeQuality; image-rendering:optimizeQuality; font-family:&apos;jlm_cmr10&apos;; color-interpolation:linearRGB;"
    ><path style="stroke:none;" d="M0.2969 -0.6406 L0.2969 -0.0781 Q0.2969 -0.0469 0.3125 -0.0469 Q0.3281 -0.0312 0.3906 -0.0312 L0.4219 -0.0312 L0.4219 0 Q0.3906 0 0.25 0 Q0.125 0 0.0938 0 L0.0938 -0.0312 L0.125 -0.0312 Q0.2031 -0.0312 0.2188 -0.0469 L0.2188 -0.0469 Q0.2188 -0.0625 0.2188 -0.0781 L0.2188 -0.5938 Q0.1719 -0.5781 0.0938 -0.5781 L0.0938 -0.6094 Q0.2031 -0.6094 0.2656 -0.6719 Q0.2969 -0.6719 0.2969 -0.6562 L0.2969 -0.6562 L0.2969 -0.6562 Q0.2969 -0.6562 0.2969 -0.6406 Z"
    /></g
  ></g
></svg
>
<!--MD5=[5d63e144f8acd0ad71e778ed9da28187]
link s_neg to p--><path d="M128,55.025 C128,71.845 128,94.838 128,112.274 " fill="none" id="s_neg-&gt;p" style="stroke: #A80036; stroke-width: 1.0;"/><polygon fill="#A80036" points="128,117.493,132,108.493,128,112.493,124,108.493,128,117.493" style="stroke: #A80036; stroke-width: 1.0;"/><!--MD5=[7781607e1dc528fdc7be52d8f28d1a20]
link t_neg to p--><path d="M72.0273,138.5 C82.0815,138.5 92.1357,138.5 102.1899,138.5 " fill="none" id="t_neg-&gt;p" style="stroke: #A80036; stroke-width: 1.0;"/><polygon fill="#A80036" points="107.448,138.5,98.448,134.5,102.448,138.5,98.448,142.5,107.448,138.5" style="stroke: #A80036; stroke-width: 1.0;"/><!--MD5=[1705b5fac54f7fb37130e7aa40a4cc34]
reverse link p to t_pos--><path d="M153.754,138.5 C163.778,138.5 173.802,138.5 183.826,138.5 " fill="none" id="p&lt;-t_pos" style="stroke: #A80036; stroke-width: 1.0;"/><polygon fill="#A80036" points="148.512,138.5,157.512,142.5,153.512,138.5,157.512,134.5,148.512,138.5" style="stroke: #A80036; stroke-width: 1.0;"/><!--MD5=[94a3c02fc1889e5259df27fafb0c209f]
reverse link p to s_pos--><path d="M128,164.939 C128,182.2765 128,205.0328 128,221.7651 " fill="none" id="p&lt;-s_pos" style="stroke: #A80036; stroke-width: 1.0;"/><polygon fill="#A80036" points="128,159.745,124,168.745,128,164.745,132,168.745,128,159.745" style="stroke: #A80036; stroke-width: 1.0;"/><!--MD5=[ea239fd27feec15af08cb1a7e9bd8e10]
@startuml
rectangle "<math>T_{n-1}</math>" as t_neg
rectangle "<math>P</math>" as p
rectangle "<math>T_{n+1}</math>" as t_pos

rectangle "<math>S_{n-1}</math>" as s_neg
rectangle "<math>S_{n+1}</math>" as s_pos

s_neg -down-> p
t_neg -right-> p
p <-right- t_pos
p <-down- s_pos
@enduml

PlantUML version 1.2019.11(Sun Sep 22 10:02:15 UTC 2019)
(GPL source distribution)
Java Runtime: Java(TM) SE Runtime Environment
JVM: Java HotSpot(TM) 64-Bit Server VM
Java Version: 1.7.0_25-b15
Operating System: Linux
Default Encoding: UTF-8
Language: en
Country: US
--></g></svg>